o PhysicalSource
v -10.000000 0.000000 -30.000000
v -10.000000 0.004385 -30.167475
v -10.000000 0.017530 -30.334491
v -10.000000 0.039397 -30.500590
v -10.000000 0.069928 -30.665317
v -10.000000 0.109037 -30.828221
v -10.000000 0.156619 -30.988854
v -10.000000 0.212543 -31.146777
v -10.000000 0.276655 -31.301557
v -10.000000 0.348779 -31.452770
v -10.000000 0.428719 -31.600000
v -10.000000 0.516254 -31.742845
v -10.000000 0.611146 -31.880913
v -10.000000 0.713133 -32.013825
v -10.000000 0.821937 -32.141218
v -10.000000 0.937258 -32.262742
v -10.000000 1.058782 -32.378063
v -10.000000 1.186175 -32.486867
v -10.000000 1.319087 -32.588854
v -10.000000 1.457155 -32.683746
v -10.000000 1.600000 -32.771281
v -10.000000 1.747230 -32.851221
v -10.000000 1.898443 -32.923345
v -10.000000 2.053223 -32.987457
v -10.000000 2.211146 -33.043381
v -10.000000 2.371779 -33.090963
v -10.000000 2.534683 -33.130072
v -10.000000 2.699410 -33.160603
v -10.000000 2.865509 -33.182470
v -10.000000 3.032525 -33.195615
v -10.000000 3.200000 -33.200000
v -10.000000 3.550000 -33.200000
v -10.000000 3.550000 -36.200000
v 10.000000 0.000000 -30.000000
v 10.000000 0.004385 -30.167475
v 10.000000 0.017530 -30.334491
v 10.000000 0.039397 -30.500590
v 10.000000 0.069928 -30.665317
v 10.000000 0.109037 -30.828221
v 10.000000 0.156619 -30.988854
v 10.000000 0.212543 -31.146777
v 10.000000 0.276655 -31.301557
v 10.000000 0.348779 -31.452770
v 10.000000 0.428719 -31.600000
v 10.000000 0.516254 -31.742845
v 10.000000 0.611146 -31.880913
v 10.000000 0.713133 -32.013825
v 10.000000 0.821937 -32.141218
v 10.000000 0.937258 -32.262742
v 10.000000 1.058782 -32.378063
v 10.000000 1.186175 -32.486867
v 10.000000 1.319087 -32.588854
v 10.000000 1.457155 -32.683746
v 10.000000 1.600000 -32.771281
v 10.000000 1.747230 -32.851221
v 10.000000 1.898443 -32.923345
v 10.000000 2.053223 -32.987457
v 10.000000 2.211146 -33.043381
v 10.000000 2.371779 -33.090963
v 10.000000 2.534683 -33.130072
v 10.000000 2.699410 -33.160603
v 10.000000 2.865509 -33.182470
v 10.000000 3.032525 -33.195615
v 10.000000 3.200000 -33.200000
v 10.000000 3.550000 -33.200000
v 10.000000 3.550000 -36.200000
v -10.000000 0.000000 -30.334491
v -10.000000 0.000000 -30.500590
v -10.000000 0.000000 -30.665317
v -10.000000 0.000000 -30.828221
v -10.000000 0.000000 -30.988854
v -10.000000 0.000000 -31.146777
v -10.000000 0.000000 -31.301557
v -10.000000 0.000000 -31.452770
v -10.000000 0.000000 -31.600000
v -10.000000 0.000000 -31.742845
v -10.000000 0.000000 -31.880913
v -10.000000 0.000000 -32.013825
v -10.000000 0.000000 -32.141218
v -10.000000 0.000000 -32.262742
v -10.000000 0.000000 -32.378063
v -10.000000 0.000000 -32.486867
v -10.000000 0.000000 -32.588854
v -10.000000 0.000000 -32.683746
v -10.000000 0.000000 -32.771281
v -10.000000 0.000000 -32.851221
v -10.000000 0.000000 -32.923345
v -10.000000 0.000000 -32.987457
v -10.000000 0.000000 -33.043381
v -10.000000 0.000000 -33.090963
v -10.000000 0.000000 -33.130072
v -10.000000 0.000000 -33.160603
v -10.000000 0.000000 -33.182470
v -10.000000 0.000000 -33.195615
v -10.000000 0.000000 -33.200000
v -10.000000 0.000000 -33.200000
v -10.000000 0.000000 -36.200000
v 10.000000 0.000000 -30.334491
v 10.000000 0.000000 -30.500590
v 10.000000 0.000000 -30.665317
v 10.000000 0.000000 -30.828221
v 10.000000 0.000000 -30.988854
v 10.000000 0.000000 -31.146777
v 10.000000 0.000000 -31.301557
v 10.000000 0.000000 -31.452770
v 10.000000 0.000000 -31.600000
v 10.000000 0.000000 -31.742845
v 10.000000 0.000000 -31.880913
v 10.000000 0.000000 -32.013825
v 10.000000 0.000000 -32.141218
v 10.000000 0.000000 -32.262742
v 10.000000 0.000000 -32.378063
v 10.000000 0.000000 -32.486867
v 10.000000 0.000000 -32.588854
v 10.000000 0.000000 -32.683746
v 10.000000 0.000000 -32.771281
v 10.000000 0.000000 -32.851221
v 10.000000 0.000000 -32.923345
v 10.000000 0.000000 -32.987457
v 10.000000 0.000000 -33.043381
v 10.000000 0.000000 -33.090963
v 10.000000 0.000000 -33.130072
v 10.000000 0.000000 -33.160603
v 10.000000 0.000000 -33.182470
v 10.000000 0.000000 -33.195615
v 10.000000 0.000000 -33.200000
v 10.000000 0.000000 -33.200000
v 10.000000 0.000000 -36.200000
f 1 34 35
f 1 35 2
f 2 35 36
f 2 36 3
f 3 36 37
f 3 37 4
f 4 37 38
f 4 38 5
f 5 38 39
f 5 39 6
f 6 39 40
f 6 40 7
f 7 40 41
f 7 41 8
f 8 41 42
f 8 42 9
f 9 42 43
f 9 43 10
f 10 43 44
f 10 44 11
f 11 44 45
f 11 45 12
f 12 45 46
f 12 46 13
f 13 46 47
f 13 47 14
f 14 47 48
f 14 48 15
f 15 48 49
f 15 49 16
f 16 49 50
f 16 50 17
f 17 50 51
f 17 51 18
f 18 51 52
f 18 52 19
f 19 52 53
f 19 53 20
f 20 53 54
f 20 54 21
f 21 54 55
f 21 55 22
f 22 55 56
f 22 56 23
f 23 56 57
f 23 57 24
f 24 57 58
f 24 58 25
f 25 58 59
f 25 59 26
f 26 59 60
f 26 60 27
f 27 60 61
f 27 61 28
f 28 61 62
f 28 62 29
f 29 62 63
f 29 63 30
f 30 63 64
f 30 64 31
f 31 64 65
f 31 65 32
f 32 65 66
f 32 66 33
f 2 3 67
f 3 4 67
f 67 4 68
f 4 5 68
f 68 5 69
f 5 6 69
f 69 6 70
f 6 7 70
f 70 7 71
f 7 8 71
f 71 8 72
f 8 9 72
f 72 9 73
f 9 10 73
f 73 10 74
f 10 11 74
f 74 11 75
f 11 12 75
f 75 12 76
f 12 13 76
f 76 13 77
f 13 14 77
f 77 14 78
f 14 15 78
f 78 15 79
f 15 16 79
f 79 16 80
f 16 17 80
f 80 17 81
f 17 18 81
f 81 18 82
f 18 19 82
f 82 19 83
f 19 20 83
f 83 20 84
f 20 21 84
f 84 21 85
f 21 22 85
f 85 22 86
f 22 23 86
f 86 23 87
f 23 24 87
f 87 24 88
f 24 25 88
f 88 25 89
f 25 26 89
f 89 26 90
f 26 27 90
f 90 27 91
f 27 28 91
f 91 28 92
f 28 29 92
f 92 29 93
f 29 30 93
f 93 30 94
f 30 31 94
f 94 31 95
f 31 32 33
f 31 33 97
f 31 97 95
f 35 98 36
f 36 98 37
f 98 99 37
f 37 99 38
f 99 100 38
f 38 100 39
f 100 101 39
f 39 101 40
f 101 102 40
f 40 102 41
f 102 103 41
f 41 103 42
f 103 104 42
f 42 104 43
f 104 105 43
f 43 105 44
f 105 106 44
f 44 106 45
f 106 107 45
f 45 107 46
f 107 108 46
f 46 108 47
f 108 109 47
f 47 109 48
f 109 110 48
f 48 110 49
f 110 111 49
f 49 111 50
f 111 112 50
f 50 112 51
f 112 113 51
f 51 113 52
f 113 114 52
f 52 114 53
f 114 115 53
f 53 115 54
f 115 116 54
f 54 116 55
f 116 117 55
f 55 117 56
f 117 118 56
f 56 118 57
f 118 119 57
f 57 119 58
f 119 120 58
f 58 120 59
f 120 121 59
f 59 121 60
f 121 122 60
f 60 122 61
f 122 123 61
f 61 123 62
f 123 124 62
f 62 124 63
f 124 125 63
f 63 125 64
f 125 126 64
f 64 66 65
f 64 128 66
f 64 126 128
