o PhysicalSource
v 26.000000 0.000000 -23.000000
v 26.093051 0.002166 -23.000000
v 26.185900 0.008658 -23.000000
v 26.278346 0.019464 -23.000000
v 26.370190 0.034559 -23.000000
v 26.461232 0.053910 -23.000000
v 26.551275 0.077477 -23.000000
v 26.640124 0.105207 -23.000000
v 26.727586 0.137041 -23.000000
v 26.813473 0.172909 -23.000000
v 26.897598 0.212735 -23.000000
v 26.979779 0.256431 -23.000000
v 27.059839 0.303904 -23.000000
v 27.137602 0.355050 -23.000000
v 27.212902 0.409758 -23.000000
v 27.285575 0.467911 -23.000000
v 29.349798 2.200000 -23.000000
v 29.398835 2.238006 -23.000000
v 29.450669 2.272098 -23.000000
v 29.504989 2.302071 -23.000000
v 29.561469 2.327744 -23.000000
v 29.619768 2.348963 -23.000000
v 29.679536 2.365600 -23.000000
v 29.740413 2.377556 -23.000000
v 29.802035 2.384759 -23.000000
v 29.864028 2.387164 -23.000000
v 30.864028 2.387164 -23.000000
v 26.000000 0.000000 -5.000000
v 26.093051 0.002166 -5.000000
v 26.185900 0.008658 -5.000000
v 26.278346 0.019464 -5.000000
v 26.370190 0.034559 -5.000000
v 26.461232 0.053910 -5.000000
v 26.551275 0.077477 -5.000000
v 26.640124 0.105207 -5.000000
v 26.727586 0.137041 -5.000000
v 26.813473 0.172909 -5.000000
v 26.897598 0.212735 -5.000000
v 26.979779 0.256431 -5.000000
v 27.059839 0.303904 -5.000000
v 27.137602 0.355050 -5.000000
v 27.212902 0.409758 -5.000000
v 27.285575 0.467911 -5.000000
v 29.349798 2.200000 -5.000000
v 29.398835 2.238006 -5.000000
v 29.450669 2.272098 -5.000000
v 29.504989 2.302071 -5.000000
v 29.561469 2.327744 -5.000000
v 29.619768 2.348963 -5.000000
v 29.679536 2.365600 -5.000000
v 29.740413 2.377556 -5.000000
v 29.802035 2.384759 -5.000000
v 29.864028 2.387164 -5.000000
v 30.864028 2.387164 -5.000000
v 26.278346 0.000000 -23.000000
v 26.370190 0.000000 -23.000000
v 26.461232 0.000000 -23.000000
v 26.551275 0.000000 -23.000000
v 26.640124 0.000000 -23.000000
v 26.727586 0.000000 -23.000000
v 26.813473 0.000000 -23.000000
v 26.897598 0.000000 -23.000000
v 26.979779 0.000000 -23.000000
v 27.059839 0.000000 -23.000000
v 27.137602 0.000000 -23.000000
v 27.212902 0.000000 -23.000000
v 27.285575 0.000000 -23.000000
v 29.349798 0.000000 -23.000000
v 29.398835 0.000000 -23.000000
v 29.450669 0.000000 -23.000000
v 29.504989 0.000000 -23.000000
v 29.561469 0.000000 -23.000000
v 29.619768 0.000000 -23.000000
v 29.679536 0.000000 -23.000000
v 29.740413 0.000000 -23.000000
v 29.802035 0.000000 -23.000000
v 29.864028 0.000000 -23.000000
v 30.864028 0.000000 -23.000000
v 26.278346 0.000000 -5.000000
v 26.370190 0.000000 -5.000000
v 26.461232 0.000000 -5.000000
v 26.551275 0.000000 -5.000000
v 26.640124 0.000000 -5.000000
v 26.727586 0.000000 -5.000000
v 26.813473 0.000000 -5.000000
v 26.897598 0.000000 -5.000000
v 26.979779 0.000000 -5.000000
v 27.059839 0.000000 -5.000000
v 27.137602 0.000000 -5.000000
v 27.212902 0.000000 -5.000000
v 27.285575 0.000000 -5.000000
v 29.349798 0.000000 -5.000000
v 29.398835 0.000000 -5.000000
v 29.450669 0.000000 -5.000000
v 29.504989 0.000000 -5.000000
v 29.561469 0.000000 -5.000000
v 29.619768 0.000000 -5.000000
v 29.679536 0.000000 -5.000000
v 29.740413 0.000000 -5.000000
v 29.802035 0.000000 -5.000000
v 29.864028 0.000000 -5.000000
v 30.864028 0.000000 -5.000000
f 1 28 29
f 1 29 2
f 2 29 30
f 2 30 3
f 3 30 31
f 3 31 4
f 4 31 32
f 4 32 5
f 5 32 33
f 5 33 6
f 6 33 34
f 6 34 7
f 7 34 35
f 7 35 8
f 8 35 36
f 8 36 9
f 9 36 37
f 9 37 10
f 10 37 38
f 10 38 11
f 11 38 39
f 11 39 12
f 12 39 40
f 12 40 13
f 13 40 41
f 13 41 14
f 14 41 42
f 14 42 15
f 15 42 43
f 15 43 16
f 16 43 44
f 16 44 17
f 17 44 45
f 17 45 18
f 18 45 46
f 18 46 19
f 19 46 47
f 19 47 20
f 20 47 48
f 20 48 21
f 21 48 49
f 21 49 22
f 22 49 50
f 22 50 23
f 23 50 51
f 23 51 24
f 24 51 52
f 24 52 25
f 25 52 53
f 25 53 26
f 26 53 54
f 26 54 27
f 3 4 55
f 4 5 55
f 55 5 56
f 5 6 56
f 56 6 57
f 6 7 57
f 57 7 58
f 7 8 58
f 58 8 59
f 8 9 59
f 59 9 60
f 9 10 60
f 60 10 61
f 10 11 61
f 61 11 62
f 11 12 62
f 62 12 63
f 12 13 63
f 63 13 64
f 13 14 64
f 64 14 65
f 14 15 65
f 65 15 66
f 15 16 66
f 66 16 67
f 16 17 67
f 67 17 68
f 17 18 68
f 68 18 69
f 18 19 69
f 69 19 70
f 19 20 70
f 70 20 71
f 20 21 71
f 71 21 72
f 21 22 72
f 72 22 73
f 22 23 73
f 73 23 74
f 23 24 74
f 74 24 75
f 24 25 75
f 75 25 76
f 25 26 76
f 76 26 77
f 26 27 77
f 77 27 78
f 30 79 31
f 31 79 32
f 79 80 32
f 32 80 33
f 80 81 33
f 33 81 34
f 81 82 34
f 34 82 35
f 82 83 35
f 35 83 36
f 83 84 36
f 36 84 37
f 84 85 37
f 37 85 38
f 85 86 38
f 38 86 39
f 86 87 39
f 39 87 40
f 87 88 40
f 40 88 41
f 88 89 41
f 41 89 42
f 89 90 42
f 42 90 43
f 90 91 43
f 43 91 44
f 91 92 44
f 44 92 45
f 92 93 45
f 45 93 46
f 93 94 46
f 46 94 47
f 94 95 47
f 47 95 48
f 95 96 48
f 48 96 49
f 96 97 49
f 49 97 50
f 97 98 50
f 50 98 51
f 98 99 51
f 51 99 52
f 99 100 52
f 52 100 53
f 100 101 53
f 53 101 54
f 101 102 54
