o PhysicalSource
v -2.600000 0.000000 -2.000000
v -2.600000 0.002487 -2.122139
v -2.600000 0.009945 -2.244076
v -2.600000 0.022362 -2.365608
v -2.600000 0.039715 -2.486534
v -2.600000 0.061978 -2.606653
v -2.600000 0.089113 -2.725766
v -2.600000 0.121074 -2.843675
v -2.600000 0.157810 -2.960186
v -2.600000 0.199259 -3.075104
v -2.600000 0.245352 -3.188239
v -2.600000 0.296013 -3.299404
v -2.600000 0.351157 -3.408415
v -2.600000 0.900000 -4.440638
v -2.600000 0.924178 -4.489249
v -2.600000 0.945682 -4.539102
v -2.600000 0.964449 -4.590048
v -2.600000 0.980423 -4.641937
v -2.600000 0.993558 -4.694617
v -2.600000 1.003814 -4.747931
v -2.600000 1.011161 -4.801724
v -2.600000 1.015579 -4.855837
v -2.600000 1.017052 -4.910109
v -2.600000 1.017052 -7.910109
v -2.600000 1.015579 -7.964382
v -2.600000 1.011161 -8.018494
v -2.600000 1.003814 -8.072287
v -2.600000 0.993558 -8.125602
v -2.600000 0.980423 -8.178282
v -2.600000 0.964449 -8.230171
v -2.600000 0.945682 -8.281117
v -2.600000 0.924178 -8.330969
v -2.600000 0.900000 -8.379581
v -2.600000 0.351157 -9.411804
v -2.600000 0.296013 -9.520814
v -2.600000 0.245352 -9.631979
v -2.600000 0.199259 -9.745115
v -2.600000 0.157810 -9.860033
v -2.600000 0.121074 -9.976544
v -2.600000 0.089113 -10.094453
v -2.600000 0.061978 -10.213566
v -2.600000 0.039715 -10.333685
v -2.600000 0.022362 -10.454611
v -2.600000 0.009945 -10.576143
v -2.600000 0.002487 -10.698079
v -2.600000 -0.000000 -10.820219
v 2.600000 0.000000 -2.000000
v 2.600000 0.002487 -2.122139
v 2.600000 0.009945 -2.244076
v 2.600000 0.022362 -2.365608
v 2.600000 0.039715 -2.486534
v 2.600000 0.061978 -2.606653
v 2.600000 0.089113 -2.725766
v 2.600000 0.121074 -2.843675
v 2.600000 0.157810 -2.960186
v 2.600000 0.199259 -3.075104
v 2.600000 0.245352 -3.188239
v 2.600000 0.296013 -3.299404
v 2.600000 0.351157 -3.408415
v 2.600000 0.900000 -4.440638
v 2.600000 0.924178 -4.489249
v 2.600000 0.945682 -4.539102
v 2.600000 0.964449 -4.590048
v 2.600000 0.980423 -4.641937
v 2.600000 0.993558 -4.694617
v 2.600000 1.003814 -4.747931
v 2.600000 1.011161 -4.801724
v 2.600000 1.015579 -4.855837
v 2.600000 1.017052 -4.910109
v 2.600000 1.017052 -7.910109
v 2.600000 1.015579 -7.964382
v 2.600000 1.011161 -8.018494
v 2.600000 1.003814 -8.072287
v 2.600000 0.993558 -8.125602
v 2.600000 0.980423 -8.178282
v 2.600000 0.964449 -8.230171
v 2.600000 0.945682 -8.281117
v 2.600000 0.924178 -8.330969
v 2.600000 0.900000 -8.379581
v 2.600000 0.351157 -9.411804
v 2.600000 0.296013 -9.520814
v 2.600000 0.245352 -9.631979
v 2.600000 0.199259 -9.745115
v 2.600000 0.157810 -9.860033
v 2.600000 0.121074 -9.976544
v 2.600000 0.089113 -10.094453
v 2.600000 0.061978 -10.213566
v 2.600000 0.039715 -10.333685
v 2.600000 0.022362 -10.454611
v 2.600000 0.009945 -10.576143
v 2.600000 0.002487 -10.698079
v 2.600000 -0.000000 -10.820219
v -2.600000 0.000000 -2.365608
v -2.600000 0.000000 -2.486534
v -2.600000 0.000000 -2.606653
v -2.600000 0.000000 -2.725766
v -2.600000 0.000000 -2.843675
v -2.600000 0.000000 -2.960186
v -2.600000 0.000000 -3.075104
v -2.600000 0.000000 -3.188239
v -2.600000 0.000000 -3.299404
v -2.600000 0.000000 -3.408415
v -2.600000 0.000000 -4.440638
v -2.600000 0.000000 -4.489249
v -2.600000 0.000000 -4.539102
v -2.600000 0.000000 -4.590048
v -2.600000 0.000000 -4.641937
v -2.600000 0.000000 -4.694617
v -2.600000 0.000000 -4.747931
v -2.600000 0.000000 -4.801724
v -2.600000 0.000000 -4.855837
v -2.600000 0.000000 -4.910109
v -2.600000 0.000000 -7.910109
v -2.600000 0.000000 -7.964382
v -2.600000 0.000000 -8.018494
v -2.600000 0.000000 -8.072287
v -2.600000 0.000000 -8.125602
v -2.600000 0.000000 -8.178282
v -2.600000 0.000000 -8.230171
v -2.600000 0.000000 -8.281117
v -2.600000 0.000000 -8.330969
v -2.600000 0.000000 -8.379581
v -2.600000 0.000000 -9.411804
v -2.600000 0.000000 -9.520814
v -2.600000 0.000000 -9.631979
v -2.600000 0.000000 -9.745115
v -2.600000 0.000000 -9.860033
v -2.600000 0.000000 -9.976544
v -2.600000 0.000000 -10.094453
v -2.600000 0.000000 -10.213566
v -2.600000 0.000000 -10.333685
v -2.600000 0.000000 -10.454611
v 2.600000 0.000000 -2.365608
v 2.600000 0.000000 -2.486534
v 2.600000 0.000000 -2.606653
v 2.600000 0.000000 -2.725766
v 2.600000 0.000000 -2.843675
v 2.600000 0.000000 -2.960186
v 2.600000 0.000000 -3.075104
v 2.600000 0.000000 -3.188239
v 2.600000 0.000000 -3.299404
v 2.600000 0.000000 -3.408415
v 2.600000 0.000000 -4.440638
v 2.600000 0.000000 -4.489249
v 2.600000 0.000000 -4.539102
v 2.600000 0.000000 -4.590048
v 2.600000 0.000000 -4.641937
v 2.600000 0.000000 -4.694617
v 2.600000 0.000000 -4.747931
v 2.600000 0.000000 -4.801724
v 2.600000 0.000000 -4.855837
v 2.600000 0.000000 -4.910109
v 2.600000 0.000000 -7.910109
v 2.600000 0.000000 -7.964382
v 2.600000 0.000000 -8.018494
v 2.600000 0.000000 -8.072287
v 2.600000 0.000000 -8.125602
v 2.600000 0.000000 -8.178282
v 2.600000 0.000000 -8.230171
v 2.600000 0.000000 -8.281117
v 2.600000 0.000000 -8.330969
v 2.600000 0.000000 -8.379581
v 2.600000 0.000000 -9.411804
v 2.600000 0.000000 -9.520814
v 2.600000 0.000000 -9.631979
v 2.600000 0.000000 -9.745115
v 2.600000 0.000000 -9.860033
v 2.600000 0.000000 -9.976544
v 2.600000 0.000000 -10.094453
v 2.600000 0.000000 -10.213566
v 2.600000 0.000000 -10.333685
v 2.600000 0.000000 -10.454611
f 1 47 48
f 1 48 2
f 2 48 49
f 2 49 3
f 3 49 50
f 3 50 4
f 4 50 51
f 4 51 5
f 5 51 52
f 5 52 6
f 6 52 53
f 6 53 7
f 7 53 54
f 7 54 8
f 8 54 55
f 8 55 9
f 9 55 56
f 9 56 10
f 10 56 57
f 10 57 11
f 11 57 58
f 11 58 12
f 12 58 59
f 12 59 13
f 13 59 60
f 13 60 14
f 14 60 61
f 14 61 15
f 15 61 62
f 15 62 16
f 16 62 63
f 16 63 17
f 17 63 64
f 17 64 18
f 18 64 65
f 18 65 19
f 19 65 66
f 19 66 20
f 20 66 67
f 20 67 21
f 21 67 68
f 21 68 22
f 22 68 69
f 22 69 23
f 23 69 70
f 23 70 24
f 24 70 71
f 24 71 25
f 25 71 72
f 25 72 26
f 26 72 73
f 26 73 27
f 27 73 74
f 27 74 28
f 28 74 75
f 28 75 29
f 29 75 76
f 29 76 30
f 30 76 77
f 30 77 31
f 31 77 78
f 31 78 32
f 32 78 79
f 32 79 33
f 33 79 80
f 33 80 34
f 34 80 81
f 34 81 35
f 35 81 82
f 35 82 36
f 36 82 83
f 36 83 37
f 37 83 84
f 37 84 38
f 38 84 85
f 38 85 39
f 39 85 86
f 39 86 40
f 40 86 87
f 40 87 41
f 41 87 88
f 41 88 42
f 42 88 89
f 42 89 43
f 43 89 90
f 43 90 44
f 44 90 91
f 44 91 45
f 45 91 92
f 45 92 46
f 3 4 93
f 4 5 93
f 93 5 94
f 5 6 94
f 94 6 95
f 6 7 95
f 95 7 96
f 7 8 96
f 96 8 97
f 8 9 97
f 97 9 98
f 9 10 98
f 98 10 99
f 10 11 99
f 99 11 100
f 11 12 100
f 100 12 101
f 12 13 101
f 101 13 102
f 13 14 102
f 102 14 103
f 14 15 103
f 103 15 104
f 15 16 104
f 104 16 105
f 16 17 105
f 105 17 106
f 17 18 106
f 106 18 107
f 18 19 107
f 107 19 108
f 19 20 108
f 108 20 109
f 20 21 109
f 109 21 110
f 21 22 110
f 110 22 111
f 22 23 111
f 111 23 112
f 23 24 112
f 112 24 113
f 24 25 113
f 113 25 114
f 25 26 114
f 114 26 115
f 26 27 115
f 115 27 116
f 27 28 116
f 116 28 117
f 28 29 117
f 117 29 118
f 29 30 118
f 118 30 119
f 30 31 119
f 119 31 120
f 31 32 120
f 120 32 121
f 32 33 121
f 121 33 122
f 33 34 122
f 122 34 123
f 34 35 123
f 123 35 124
f 35 36 124
f 124 36 125
f 36 37 125
f 125 37 126
f 37 38 126
f 126 38 127
f 38 39 127
f 127 39 128
f 39 40 128
f 128 40 129
f 40 41 129
f 129 41 130
f 41 42 130
f 130 42 131
f 42 43 131
f 131 43 132
f 43 44 132
f 49 133 50
f 50 133 51
f 133 134 51
f 51 134 52
f 134 135 52
f 52 135 53
f 135 136 53
f 53 136 54
f 136 137 54
f 54 137 55
f 137 138 55
f 55 138 56
f 138 139 56
f 56 139 57
f 139 140 57
f 57 140 58
f 140 141 58
f 58 141 59
f 141 142 59
f 59 142 60
f 142 143 60
f 60 143 61
f 143 144 61
f 61 144 62
f 144 145 62
f 62 145 63
f 145 146 63
f 63 146 64
f 146 147 64
f 64 147 65
f 147 148 65
f 65 148 66
f 148 149 66
f 66 149 67
f 149 150 67
f 67 150 68
f 150 151 68
f 68 151 69
f 151 152 69
f 69 152 70
f 152 153 70
f 70 153 71
f 153 154 71
f 71 154 72
f 154 155 72
f 72 155 73
f 155 156 73
f 73 156 74
f 156 157 74
f 74 157 75
f 157 158 75
f 75 158 76
f 158 159 76
f 76 159 77
f 159 160 77
f 77 160 78
f 160 161 78
f 78 161 79
f 161 162 79
f 79 162 80
f 162 163 80
f 80 163 81
f 163 164 81
f 81 164 82
f 164 165 82
f 82 165 83
f 165 166 83
f 83 166 84
f 166 167 84
f 84 167 85
f 167 168 85
f 85 168 86
f 168 169 86
f 86 169 87
f 169 170 87
f 87 170 88
f 170 171 88
f 88 171 89
f 171 172 89
f 89 172 90
