o PhysicalSource
v 11.400000 0.000000 6.000000
v 11.400000 0.001310 5.897619
v 11.400000 0.005241 5.795304
v 11.400000 0.011789 5.693124
v 11.400000 0.020950 5.591145
v 11.400000 0.032719 5.489433
v 11.400000 0.047086 5.388057
v 11.400000 0.064044 5.287081
v 11.400000 0.083581 5.186572
v 11.400000 0.105684 5.086597
v 11.400000 0.130339 4.987219
v 11.400000 0.157529 4.888506
v 11.400000 0.187237 4.790520
v 11.400000 0.219444 4.693328
v 11.400000 0.254127 4.596991
v 11.400000 0.291265 4.501574
v 11.400000 0.890635 3.018079
v 14.600000 0.000000 6.000000
v 14.600000 0.001310 5.897619
v 14.600000 0.005241 5.795304
v 14.600000 0.011789 5.693124
v 14.600000 0.020950 5.591145
v 14.600000 0.032719 5.489433
v 14.600000 0.047086 5.388057
v 14.600000 0.064044 5.287081
v 14.600000 0.083581 5.186572
v 14.600000 0.105684 5.086597
v 14.600000 0.130339 4.987219
v 14.600000 0.157529 4.888506
v 14.600000 0.187237 4.790520
v 14.600000 0.219444 4.693328
v 14.600000 0.254127 4.596991
v 14.600000 0.291265 4.501574
v 14.600000 0.890635 3.018079
v 11.400000 0.000000 5.693124
v 11.400000 0.000000 5.591145
v 11.400000 0.000000 5.489433
v 11.400000 0.000000 5.388057
v 11.400000 0.000000 5.287081
v 11.400000 0.000000 5.186572
v 11.400000 0.000000 5.086597
v 11.400000 0.000000 4.987219
v 11.400000 0.000000 4.888506
v 11.400000 0.000000 4.790520
v 11.400000 0.000000 4.693328
v 11.400000 0.000000 4.596991
v 11.400000 0.000000 4.501574
v 11.400000 0.000000 3.018079
v 14.600000 0.000000 5.693124
v 14.600000 0.000000 5.591145
v 14.600000 0.000000 5.489433
v 14.600000 0.000000 5.388057
v 14.600000 0.000000 5.287081
v 14.600000 0.000000 5.186572
v 14.600000 0.000000 5.086597
v 14.600000 0.000000 4.987219
v 14.600000 0.000000 4.888506
v 14.600000 0.000000 4.790520
v 14.600000 0.000000 4.693328
v 14.600000 0.000000 4.596991
v 14.600000 0.000000 4.501574
v 14.600000 0.000000 3.018079
f 1 18 19
f 1 19 2
f 2 19 20
f 2 20 3
f 3 20 21
f 3 21 4
f 4 21 22
f 4 22 5
f 5 22 23
f 5 23 6
f 6 23 24
f 6 24 7
f 7 24 25
f 7 25 8
f 8 25 26
f 8 26 9
f 9 26 27
f 9 27 10
f 10 27 28
f 10 28 11
f 11 28 29
f 11 29 12
f 12 29 30
f 12 30 13
f 13 30 31
f 13 31 14
f 14 31 32
f 14 32 15
f 15 32 33
f 15 33 16
f 16 33 34
f 16 34 17
f 3 4 35
f 4 5 35
f 35 5 36
f 5 6 36
f 36 6 37
f 6 7 37
f 37 7 38
f 7 8 38
f 38 8 39
f 8 9 39
f 39 9 40
f 9 10 40
f 40 10 41
f 10 11 41
f 41 11 42
f 11 12 42
f 42 12 43
f 12 13 43
f 43 13 44
f 13 14 44
f 44 14 45
f 14 15 45
f 45 15 46
f 15 16 46
f 46 16 47
f 16 17 47
f 47 17 48
f 20 49 21
f 21 49 22
f 49 50 22
f 22 50 23
f 50 51 23
f 23 51 24
f 51 52 24
f 24 52 25
f 52 53 25
f 25 53 26
f 53 54 26
f 26 54 27
f 54 55 27
f 27 55 28
f 55 56 28
f 28 56 29
f 56 57 29
f 29 57 30
f 57 58 30
f 30 58 31
f 58 59 31
f 31 59 32
f 59 60 32
f 32 60 33
f 60 61 33
f 33 61 34
f 61 62 34
