o PhysicalSource
v 11.200000 0.890635 -1.981921
v 11.200000 0.890635 -3.181921
v 11.200000 0.888469 -3.274971
v 11.200000 0.881977 -3.367820
v 11.200000 0.871171 -3.460267
v 11.200000 0.856076 -3.552110
v 11.200000 0.836725 -3.643152
v 11.200000 0.813159 -3.733195
v 11.200000 0.785428 -3.822044
v 11.200000 0.753595 -3.909507
v 11.200000 0.717726 -3.995394
v 11.200000 0.000000 -5.607433
v 11.200000 -0.055003 -5.735764
v 11.200000 -0.106401 -5.865581
v 11.200000 -0.154155 -5.996783
v 11.200000 -0.198226 -6.129267
v 11.200000 -0.238581 -6.262929
v 11.200000 -0.275189 -6.397667
v 11.200000 -0.308019 -6.533374
v 11.200000 -0.337048 -6.669944
v 11.200000 -0.362253 -6.807272
v 11.200000 -0.383613 -6.945251
v 11.200000 -0.401112 -7.083771
v 11.200000 -0.414737 -7.222727
v 11.200000 -0.424477 -7.362009
v 11.200000 -0.430323 -7.501508
v 11.200000 -0.432273 -7.641116
v 11.200000 -0.432273 -8.641116
v 14.800000 0.890635 -1.981921
v 14.800000 0.890635 -3.181921
v 14.800000 0.888469 -3.274971
v 14.800000 0.881977 -3.367820
v 14.800000 0.871171 -3.460267
v 14.800000 0.856076 -3.552110
v 14.800000 0.836725 -3.643152
v 14.800000 0.813159 -3.733195
v 14.800000 0.785428 -3.822044
v 14.800000 0.753595 -3.909507
v 14.800000 0.717726 -3.995394
v 14.800000 0.000000 -5.607433
v 14.800000 -0.055003 -5.735764
v 14.800000 -0.106401 -5.865581
v 14.800000 -0.154155 -5.996783
v 14.800000 -0.198226 -6.129267
v 14.800000 -0.238581 -6.262929
v 14.800000 -0.275189 -6.397667
v 14.800000 -0.308019 -6.533374
v 14.800000 -0.337048 -6.669944
v 14.800000 -0.362253 -6.807272
v 14.800000 -0.383613 -6.945251
v 14.800000 -0.401112 -7.083771
v 14.800000 -0.414737 -7.222727
v 14.800000 -0.424477 -7.362009
v 14.800000 -0.430323 -7.501508
v 14.800000 -0.432273 -7.641116
v 14.800000 -0.432273 -8.641116
v 11.200000 0.000000 -1.981921
v 11.200000 0.000000 -3.181921
v 11.200000 0.000000 -3.274971
v 11.200000 0.000000 -3.367820
v 11.200000 0.000000 -3.460267
v 11.200000 0.000000 -3.552110
v 11.200000 0.000000 -3.643152
v 11.200000 0.000000 -3.733195
v 11.200000 0.000000 -3.822044
v 11.200000 0.000000 -3.909507
v 11.200000 0.000000 -3.995394
v 14.800000 0.000000 -1.981921
v 14.800000 0.000000 -3.181921
v 14.800000 0.000000 -3.274971
v 14.800000 0.000000 -3.367820
v 14.800000 0.000000 -3.460267
v 14.800000 0.000000 -3.552110
v 14.800000 0.000000 -3.643152
v 14.800000 0.000000 -3.733195
v 14.800000 0.000000 -3.822044
v 14.800000 0.000000 -3.909507
v 14.800000 0.000000 -3.995394
f 1 29 30
f 1 30 2
f 2 30 31
f 2 31 3
f 3 31 32
f 3 32 4
f 4 32 33
f 4 33 5
f 5 33 34
f 5 34 6
f 6 34 35
f 6 35 7
f 7 35 36
f 7 36 8
f 8 36 37
f 8 37 9
f 9 37 38
f 9 38 10
f 10 38 39
f 10 39 11
f 11 39 40
f 11 40 12
f 12 40 41
f 12 41 13
f 13 41 42
f 13 42 14
f 14 42 43
f 14 43 15
f 15 43 44
f 15 44 16
f 16 44 45
f 16 45 17
f 17 45 46
f 17 46 18
f 18 46 47
f 18 47 19
f 19 47 48
f 19 48 20
f 20 48 49
f 20 49 21
f 21 49 50
f 21 50 22
f 22 50 51
f 22 51 23
f 23 51 52
f 23 52 24
f 24 52 53
f 24 53 25
f 25 53 54
f 25 54 26
f 26 54 55
f 26 55 27
f 27 55 56
f 27 56 28
f 1 2 57
f 57 2 58
f 2 3 58
f 58 3 59
f 3 4 59
f 59 4 60
f 4 5 60
f 60 5 61
f 5 6 61
f 61 6 62
f 6 7 62
f 62 7 63
f 7 8 63
f 63 8 64
f 8 9 64
f 64 9 65
f 9 10 65
f 65 10 66
f 10 11 66
f 66 11 67
f 11 12 67
f 29 68 30
f 68 69 30
f 30 69 31
f 69 70 31
f 31 70 32
f 70 71 32
f 32 71 33
f 71 72 33
f 33 72 34
f 72 73 34
f 34 73 35
f 73 74 35
f 35 74 36
f 74 75 36
f 36 75 37
f 75 76 37
f 37 76 38
f 76 77 38
f 38 77 39
f 77 78 39
f 39 78 40
