o PhysicalSource
v -33.000000 0.000000 -9.500000
v -33.143887 0.004710 -9.500000
v -33.287158 0.018821 -9.500000
v -33.429199 0.042272 -9.500000
v -33.569402 0.074963 -9.500000
v -33.707167 0.116754 -9.500000
v -33.841904 0.167465 -9.500000
v -33.973035 0.226880 -9.500000
v -34.100000 0.294744 -9.500000
v -34.222255 0.370767 -9.500000
v -34.339275 0.454623 -9.500000
v -34.450561 0.545952 -9.500000
v -34.555635 0.644365 -9.500000
v -34.654048 0.749439 -9.500000
v -34.745377 0.860725 -9.500000
v -34.829233 0.977745 -9.500000
v -34.905256 1.100000 -9.500000
v -34.973120 1.226965 -9.500000
v -35.032535 1.358096 -9.500000
v -35.083246 1.492833 -9.500000
v -35.125037 1.630598 -9.500000
v -35.157728 1.770801 -9.500000
v -35.181179 1.912842 -9.500000
v -35.195290 2.056113 -9.500000
v -35.200000 2.200000 -9.500000
v -35.200000 2.400000 -9.500000
v -36.800000 2.400000 -9.500000
v -33.000000 0.000000 -18.500000
v -33.143887 0.004710 -18.500000
v -33.287158 0.018821 -18.500000
v -33.429199 0.042272 -18.500000
v -33.569402 0.074963 -18.500000
v -33.707167 0.116754 -18.500000
v -33.841904 0.167465 -18.500000
v -33.973035 0.226880 -18.500000
v -34.100000 0.294744 -18.500000
v -34.222255 0.370767 -18.500000
v -34.339275 0.454623 -18.500000
v -34.450561 0.545952 -18.500000
v -34.555635 0.644365 -18.500000
v -34.654048 0.749439 -18.500000
v -34.745377 0.860725 -18.500000
v -34.829233 0.977745 -18.500000
v -34.905256 1.100000 -18.500000
v -34.973120 1.226965 -18.500000
v -35.032535 1.358096 -18.500000
v -35.083246 1.492833 -18.500000
v -35.125037 1.630598 -18.500000
v -35.157728 1.770801 -18.500000
v -35.181179 1.912842 -18.500000
v -35.195290 2.056113 -18.500000
v -35.200000 2.200000 -18.500000
v -35.200000 2.400000 -18.500000
v -36.800000 2.400000 -18.500000
v -33.287158 0.000000 -9.500000
v -33.429199 0.000000 -9.500000
v -33.569402 0.000000 -9.500000
v -33.707167 0.000000 -9.500000
v -33.841904 0.000000 -9.500000
v -33.973035 0.000000 -9.500000
v -34.100000 0.000000 -9.500000
v -34.222255 0.000000 -9.500000
v -34.339275 0.000000 -9.500000
v -34.450561 0.000000 -9.500000
v -34.555635 0.000000 -9.500000
v -34.654048 0.000000 -9.500000
v -34.745377 0.000000 -9.500000
v -34.829233 0.000000 -9.500000
v -34.905256 0.000000 -9.500000
v -34.973120 0.000000 -9.500000
v -35.032535 0.000000 -9.500000
v -35.083246 0.000000 -9.500000
v -35.125037 0.000000 -9.500000
v -35.157728 0.000000 -9.500000
v -35.181179 0.000000 -9.500000
v -35.195290 0.000000 -9.500000
v -35.200000 0.000000 -9.500000
v -35.200000 0.000000 -9.500000
v -36.800000 0.000000 -9.500000
v -33.287158 0.000000 -18.500000
v -33.429199 0.000000 -18.500000
v -33.569402 0.000000 -18.500000
v -33.707167 0.000000 -18.500000
v -33.841904 0.000000 -18.500000
v -33.973035 0.000000 -18.500000
v -34.100000 0.000000 -18.500000
v -34.222255 0.000000 -18.500000
v -34.339275 0.000000 -18.500000
v -34.450561 0.000000 -18.500000
v -34.555635 0.000000 -18.500000
v -34.654048 0.000000 -18.500000
v -34.745377 0.000000 -18.500000
v -34.829233 0.000000 -18.500000
v -34.905256 0.000000 -18.500000
v -34.973120 0.000000 -18.500000
v -35.032535 0.000000 -18.500000
v -35.083246 0.000000 -18.500000
v -35.125037 0.000000 -18.500000
v -35.157728 0.000000 -18.500000
v -35.181179 0.000000 -18.500000
v -35.195290 0.000000 -18.500000
v -35.200000 0.000000 -18.500000
v -35.200000 0.000000 -18.500000
v -36.800000 0.000000 -18.500000
f 1 28 29
f 1 29 2
f 2 29 30
f 2 30 3
f 3 30 31
f 3 31 4
f 4 31 32
f 4 32 5
f 5 32 33
f 5 33 6
f 6 33 34
f 6 34 7
f 7 34 35
f 7 35 8
f 8 35 36
f 8 36 9
f 9 36 37
f 9 37 10
f 10 37 38
f 10 38 11
f 11 38 39
f 11 39 12
f 12 39 40
f 12 40 13
f 13 40 41
f 13 41 14
f 14 41 42
f 14 42 15
f 15 42 43
f 15 43 16
f 16 43 44
f 16 44 17
f 17 44 45
f 17 45 18
f 18 45 46
f 18 46 19
f 19 46 47
f 19 47 20
f 20 47 48
f 20 48 21
f 21 48 49
f 21 49 22
f 22 49 50
f 22 50 23
f 23 50 51
f 23 51 24
f 24 51 52
f 24 52 25
f 25 52 53
f 25 53 26
f 26 53 54
f 26 54 27
f 2 3 55
f 3 4 55
f 55 4 56
f 4 5 56
f 56 5 57
f 5 6 57
f 57 6 58
f 6 7 58
f 58 7 59
f 7 8 59
f 59 8 60
f 8 9 60
f 60 9 61
f 9 10 61
f 61 10 62
f 10 11 62
f 62 11 63
f 11 12 63
f 63 12 64
f 12 13 64
f 64 13 65
f 13 14 65
f 65 14 66
f 14 15 66
f 66 15 67
f 15 16 67
f 67 16 68
f 16 17 68
f 68 17 69
f 17 18 69
f 69 18 70
f 18 19 70
f 70 19 71
f 19 20 71
f 71 20 72
f 20 21 72
f 72 21 73
f 21 22 73
f 73 22 74
f 22 23 74
f 74 23 75
f 23 24 75
f 75 24 76
f 24 25 76
f 76 25 77
f 25 26 27
f 25 27 79
f 25 79 77
f 29 80 30
f 30 80 31
f 80 81 31
f 31 81 32
f 81 82 32
f 32 82 33
f 82 83 33
f 33 83 34
f 83 84 34
f 34 84 35
f 84 85 35
f 35 85 36
f 85 86 36
f 36 86 37
f 86 87 37
f 37 87 38
f 87 88 38
f 38 88 39
f 88 89 39
f 39 89 40
f 89 90 40
f 40 90 41
f 90 91 41
f 41 91 42
f 91 92 42
f 42 92 43
f 92 93 43
f 43 93 44
f 93 94 44
f 44 94 45
f 94 95 45
f 45 95 46
f 95 96 46
f 46 96 47
f 96 97 47
f 47 97 48
f 97 98 48
f 48 98 49
f 98 99 49
f 49 99 50
f 99 100 50
f 50 100 51
f 100 101 51
f 51 101 52
f 101 102 52
f 52 54 53
f 52 104 54
f 52 102 104
