o PhysicalSource
v -16.000000 0.000000 12.738984
v -16.000000 0.002256 12.622658
v -16.000000 0.009021 12.506507
v -16.000000 0.020285 12.390705
v -16.000000 0.036030 12.275428
v -16.000000 0.056234 12.160847
v -16.000000 0.080865 12.047136
v -16.000000 0.109887 11.934466
v -16.000000 0.143256 11.823006
v -16.000000 0.180922 11.712924
v -16.000000 1.200000 8.913030
v -16.000000 1.227445 8.830205
v -16.000000 1.250028 8.745924
v -16.000000 1.267673 8.660472
v -16.000000 1.280319 8.574139
v -16.000000 1.287923 8.487217
v -16.000000 1.290461 8.400000
v -16.000000 1.290461 8.000000
v -10.000000 0.000000 12.738984
v -10.000000 0.002256 12.622658
v -10.000000 0.009021 12.506507
v -10.000000 0.020285 12.390705
v -10.000000 0.036030 12.275428
v -10.000000 0.056234 12.160847
v -10.000000 0.080865 12.047136
v -10.000000 0.109887 11.934466
v -10.000000 0.143256 11.823006
v -10.000000 0.180922 11.712924
v -10.000000 1.200000 8.913030
v -10.000000 1.227445 8.830205
v -10.000000 1.250028 8.745924
v -10.000000 1.267673 8.660472
v -10.000000 1.280319 8.574139
v -10.000000 1.287923 8.487217
v -10.000000 1.290461 8.400000
v -10.000000 1.290461 8.000000
v -16.000000 0.000000 12.390705
v -16.000000 0.000000 12.275428
v -16.000000 0.000000 12.160847
v -16.000000 0.000000 12.047136
v -16.000000 0.000000 11.934466
v -16.000000 0.000000 11.823006
v -16.000000 0.000000 11.712924
v -16.000000 0.000000 8.913030
v -16.000000 0.000000 8.830205
v -16.000000 0.000000 8.745924
v -16.000000 0.000000 8.660472
v -16.000000 0.000000 8.574139
v -16.000000 0.000000 8.487217
v -16.000000 0.000000 8.400000
v -16.000000 0.000000 8.000000
v -10.000000 0.000000 12.390705
v -10.000000 0.000000 12.275428
v -10.000000 0.000000 12.160847
v -10.000000 0.000000 12.047136
v -10.000000 0.000000 11.934466
v -10.000000 0.000000 11.823006
v -10.000000 0.000000 11.712924
v -10.000000 0.000000 8.913030
v -10.000000 0.000000 8.830205
v -10.000000 0.000000 8.745924
v -10.000000 0.000000 8.660472
v -10.000000 0.000000 8.574139
v -10.000000 0.000000 8.487217
v -10.000000 0.000000 8.400000
v -10.000000 0.000000 8.000000
f 1 19 20
f 1 20 2
f 2 20 21
f 2 21 3
f 3 21 22
f 3 22 4
f 4 22 23
f 4 23 5
f 5 23 24
f 5 24 6
f 6 24 25
f 6 25 7
f 7 25 26
f 7 26 8
f 8 26 27
f 8 27 9
f 9 27 28
f 9 28 10
f 10 28 29
f 10 29 11
f 11 29 30
f 11 30 12
f 12 30 31
f 12 31 13
f 13 31 32
f 13 32 14
f 14 32 33
f 14 33 15
f 15 33 34
f 15 34 16
f 16 34 35
f 16 35 17
f 17 35 36
f 17 36 18
f 3 4 37
f 4 5 37
f 37 5 38
f 5 6 38
f 38 6 39
f 6 7 39
f 39 7 40
f 7 8 40
f 40 8 41
f 8 9 41
f 41 9 42
f 9 10 42
f 42 10 43
f 10 11 43
f 43 11 44
f 11 12 44
f 44 12 45
f 12 13 45
f 45 13 46
f 13 14 46
f 46 14 47
f 14 15 47
f 47 15 48
f 15 16 48
f 48 16 49
f 16 17 49
f 49 17 50
f 17 18 50
f 50 18 51
f 21 52 22
f 22 52 23
f 52 53 23
f 23 53 24
f 53 54 24
f 24 54 25
f 54 55 25
f 25 55 26
f 55 56 26
f 26 56 27
f 56 57 27
f 27 57 28
f 57 58 28
f 28 58 29
f 58 59 29
f 29 59 30
f 59 60 30
f 30 60 31
f 60 61 31
f 31 61 32
f 61 62 32
f 32 62 33
f 62 63 33
f 33 63 34
f 63 64 34
f 34 64 35
f 64 65 35
f 35 65 36
f 65 66 36
