o PhysicalSource
v -4.000000 3.000000 27.000000
v -4.000000 3.000000 22.000000
v -4.000000 2.997458 21.899201
v -4.000000 2.989840 21.798659
v -4.000000 2.977163 21.698629
v -4.000000 2.959462 21.599364
v -4.000000 2.936780 21.501118
v -4.000000 2.909175 21.404139
v -4.000000 2.876718 21.308676
v -4.000000 2.839491 21.214969
v -4.000000 2.797588 21.123258
v -4.000000 0.455427 16.321115
v -4.000000 0.406986 16.218534
v -4.000000 0.361146 16.114765
v -4.000000 0.317936 16.009873
v -4.000000 0.277384 15.903925
v -4.000000 0.239516 15.796989
v -4.000000 0.204356 15.689131
v -4.000000 0.171925 15.580422
v -4.000000 0.142245 15.470930
v -4.000000 0.115335 15.360725
v -4.000000 0.091211 15.249876
v -4.000000 0.069889 15.138455
v -4.000000 0.051382 15.026531
v -4.000000 0.035703 14.914176
v -4.000000 0.022861 14.801462
v -4.000000 0.012864 14.688460
v -4.000000 0.005719 14.575242
v -4.000000 0.001430 14.461880
v -4.000000 0.000000 14.348445
v -4.000000 0.000000 12.848445
v 4.000000 3.000000 27.000000
v 4.000000 3.000000 22.000000
v 4.000000 2.997458 21.899201
v 4.000000 2.989840 21.798659
v 4.000000 2.977163 21.698629
v 4.000000 2.959462 21.599364
v 4.000000 2.936780 21.501118
v 4.000000 2.909175 21.404139
v 4.000000 2.876718 21.308676
v 4.000000 2.839491 21.214969
v 4.000000 2.797588 21.123258
v 4.000000 0.455427 16.321115
v 4.000000 0.406986 16.218534
v 4.000000 0.361146 16.114765
v 4.000000 0.317936 16.009873
v 4.000000 0.277384 15.903925
v 4.000000 0.239516 15.796989
v 4.000000 0.204356 15.689131
v 4.000000 0.171925 15.580422
v 4.000000 0.142245 15.470930
v 4.000000 0.115335 15.360725
v 4.000000 0.091211 15.249876
v 4.000000 0.069889 15.138455
v 4.000000 0.051382 15.026531
v 4.000000 0.035703 14.914176
v 4.000000 0.022861 14.801462
v 4.000000 0.012864 14.688460
v 4.000000 0.005719 14.575242
v 4.000000 0.001430 14.461880
v 4.000000 0.000000 14.348445
v 4.000000 0.000000 12.848445
v -4.000000 0.000000 27.000000
v -4.000000 0.000000 22.000000
v -4.000000 0.000000 21.899201
v -4.000000 0.000000 21.798659
v -4.000000 0.000000 21.698629
v -4.000000 0.000000 21.599364
v -4.000000 0.000000 21.501118
v -4.000000 0.000000 21.404139
v -4.000000 0.000000 21.308676
v -4.000000 0.000000 21.214969
v -4.000000 0.000000 21.123258
v -4.000000 0.000000 16.321115
v -4.000000 0.000000 16.218534
v -4.000000 0.000000 16.114765
v -4.000000 0.000000 16.009873
v -4.000000 0.000000 15.903925
v -4.000000 0.000000 15.796989
v -4.000000 0.000000 15.689131
v -4.000000 0.000000 15.580422
v -4.000000 0.000000 15.470930
v -4.000000 0.000000 15.360725
v -4.000000 0.000000 15.249876
v -4.000000 0.000000 15.138455
v -4.000000 0.000000 15.026531
v -4.000000 0.000000 14.914176
v -4.000000 0.000000 14.801462
v -4.000000 0.000000 14.688460
v 4.000000 0.000000 27.000000
v 4.000000 0.000000 22.000000
v 4.000000 0.000000 21.899201
v 4.000000 0.000000 21.798659
v 4.000000 0.000000 21.698629
v 4.000000 0.000000 21.599364
v 4.000000 0.000000 21.501118
v 4.000000 0.000000 21.404139
v 4.000000 0.000000 21.308676
v 4.000000 0.000000 21.214969
v 4.000000 0.000000 21.123258
v 4.000000 0.000000 16.321115
v 4.000000 0.000000 16.218534
v 4.000000 0.000000 16.114765
v 4.000000 0.000000 16.009873
v 4.000000 0.000000 15.903925
v 4.000000 0.000000 15.796989
v 4.000000 0.000000 15.689131
v 4.000000 0.000000 15.580422
v 4.000000 0.000000 15.470930
v 4.000000 0.000000 15.360725
v 4.000000 0.000000 15.249876
v 4.000000 0.000000 15.138455
v 4.000000 0.000000 15.026531
v 4.000000 0.000000 14.914176
v 4.000000 0.000000 14.801462
v 4.000000 0.000000 14.688460
f 1 32 33
f 1 33 2
f 2 33 34
f 2 34 3
f 3 34 35
f 3 35 4
f 4 35 36
f 4 36 5
f 5 36 37
f 5 37 6
f 6 37 38
f 6 38 7
f 7 38 39
f 7 39 8
f 8 39 40
f 8 40 9
f 9 40 41
f 9 41 10
f 10 41 42
f 10 42 11
f 11 42 43
f 11 43 12
f 12 43 44
f 12 44 13
f 13 44 45
f 13 45 14
f 14 45 46
f 14 46 15
f 15 46 47
f 15 47 16
f 16 47 48
f 16 48 17
f 17 48 49
f 17 49 18
f 18 49 50
f 18 50 19
f 19 50 51
f 19 51 20
f 20 51 52
f 20 52 21
f 21 52 53
f 21 53 22
f 22 53 54
f 22 54 23
f 23 54 55
f 23 55 24
f 24 55 56
f 24 56 25
f 25 56 57
f 25 57 26
f 26 57 58
f 26 58 27
f 27 58 59
f 27 59 28
f 28 59 60
f 28 60 29
f 29 60 61
f 29 61 30
f 30 61 62
f 30 62 31
f 1 2 63
f 63 2 64
f 2 3 64
f 64 3 65
f 3 4 65
f 65 4 66
f 4 5 66
f 66 5 67
f 5 6 67
f 67 6 68
f 6 7 68
f 68 7 69
f 7 8 69
f 69 8 70
f 8 9 70
f 70 9 71
f 9 10 71
f 71 10 72
f 10 11 72
f 72 11 73
f 11 12 73
f 73 12 74
f 12 13 74
f 74 13 75
f 13 14 75
f 75 14 76
f 14 15 76
f 76 15 77
f 15 16 77
f 77 16 78
f 16 17 78
f 78 17 79
f 17 18 79
f 79 18 80
f 18 19 80
f 80 19 81
f 19 20 81
f 81 20 82
f 20 21 82
f 82 21 83
f 21 22 83
f 83 22 84
f 22 23 84
f 84 23 85
f 23 24 85
f 85 24 86
f 24 25 86
f 86 25 87
f 25 26 87
f 87 26 88
f 26 27 88
f 88 27 89
f 27 28 89
f 32 90 33
f 90 91 33
f 33 91 34
f 91 92 34
f 34 92 35
f 92 93 35
f 35 93 36
f 93 94 36
f 36 94 37
f 94 95 37
f 37 95 38
f 95 96 38
f 38 96 39
f 96 97 39
f 39 97 40
f 97 98 40
f 40 98 41
f 98 99 41
f 41 99 42
f 99 100 42
f 42 100 43
f 100 101 43
f 43 101 44
f 101 102 44
f 44 102 45
f 102 103 45
f 45 103 46
f 103 104 46
f 46 104 47
f 104 105 47
f 47 105 48
f 105 106 48
f 48 106 49
f 106 107 49
f 49 107 50
f 107 108 50
f 50 108 51
f 108 109 51
f 51 109 52
f 109 110 52
f 52 110 53
f 110 111 53
f 53 111 54
f 111 112 54
f 54 112 55
f 112 113 55
f 55 113 56
f 113 114 56
f 56 114 57
f 114 115 57
f 57 115 58
f 115 116 58
f 58 116 59
