o PhysicalSource
v 0.100000 -3.258231 -31.000000
v 0.100000 -3.269058 -31.120520
v 0.100000 -3.276234 -31.241311
v 0.100000 -3.279754 -31.362265
v 0.100000 -3.279613 -31.483270
v 0.100000 -3.275812 -31.604215
v 0.100000 -3.268355 -31.724990
v 0.100000 -3.257248 -31.845484
v 0.100000 -3.242501 -31.965587
v 0.100000 -3.224128 -32.085189
v 0.100000 -3.202146 -32.204180
v 0.100000 -3.176574 -32.322452
v 0.100000 -3.147437 -32.439897
v 0.100000 -3.114761 -32.556406
v 0.100000 -3.078576 -32.671874
v 0.100000 -3.038914 -32.786194
v 0.100000 -2.628490 -33.913826
v 3.100000 -3.258231 -31.000000
v 3.100000 -3.269058 -31.120520
v 3.100000 -3.276234 -31.241311
v 3.100000 -3.279754 -31.362265
v 3.100000 -3.279613 -31.483270
v 3.100000 -3.275812 -31.604215
v 3.100000 -3.268355 -31.724990
v 3.100000 -3.257248 -31.845484
v 3.100000 -3.242501 -31.965587
v 3.100000 -3.224128 -32.085189
v 3.100000 -3.202146 -32.204180
v 3.100000 -3.176574 -32.322452
v 3.100000 -3.147437 -32.439897
v 3.100000 -3.114761 -32.556406
v 3.100000 -3.078576 -32.671874
v 3.100000 -3.038914 -32.786194
v 3.100000 -2.628490 -33.913826
v 0.100000 -3.579754 -31.000000
v 0.100000 -3.579754 -31.120520
v 0.100000 -3.579754 -31.241311
v 0.100000 -3.579754 -31.362265
v 0.100000 -3.579754 -31.483270
v 0.100000 -3.579754 -31.604215
v 0.100000 -3.579754 -31.724990
v 0.100000 -3.579754 -31.845484
v 0.100000 -3.579754 -31.965587
v 0.100000 -3.579754 -32.085189
v 0.100000 -3.579754 -32.204180
v 0.100000 -3.579754 -32.322452
v 0.100000 -3.579754 -32.439897
v 0.100000 -3.579754 -32.556406
v 0.100000 -3.579754 -32.671874
v 0.100000 -3.579754 -32.786194
v 0.100000 -3.579754 -33.913826
v 3.100000 -3.579754 -31.000000
v 3.100000 -3.579754 -31.120520
v 3.100000 -3.579754 -31.241311
v 3.100000 -3.579754 -31.362265
v 3.100000 -3.579754 -31.483270
v 3.100000 -3.579754 -31.604215
v 3.100000 -3.579754 -31.724990
v 3.100000 -3.579754 -31.845484
v 3.100000 -3.579754 -31.965587
v 3.100000 -3.579754 -32.085189
v 3.100000 -3.579754 -32.204180
v 3.100000 -3.579754 -32.322452
v 3.100000 -3.579754 -32.439897
v 3.100000 -3.579754 -32.556406
v 3.100000 -3.579754 -32.671874
v 3.100000 -3.579754 -32.786194
v 3.100000 -3.579754 -33.913826
f 1 18 19
f 1 19 2
f 2 19 20
f 2 20 3
f 3 20 21
f 3 21 4
f 4 21 22
f 4 22 5
f 5 22 23
f 5 23 6
f 6 23 24
f 6 24 7
f 7 24 25
f 7 25 8
f 8 25 26
f 8 26 9
f 9 26 27
f 9 27 10
f 10 27 28
f 10 28 11
f 11 28 29
f 11 29 12
f 12 29 30
f 12 30 13
f 13 30 31
f 13 31 14
f 14 31 32
f 14 32 15
f 15 32 33
f 15 33 16
f 16 33 34
f 16 34 17
f 1 2 35
f 35 2 36
f 2 3 36
f 36 3 37
f 3 4 37
f 37 4 38
f 4 5 38
f 38 5 39
f 5 6 39
f 39 6 40
f 6 7 40
f 40 7 41
f 7 8 41
f 41 8 42
f 8 9 42
f 42 9 43
f 9 10 43
f 43 10 44
f 10 11 44
f 44 11 45
f 11 12 45
f 45 12 46
f 12 13 46
f 46 13 47
f 13 14 47
f 47 14 48
f 14 15 48
f 48 15 49
f 15 16 49
f 49 16 50
f 16 17 50
f 50 17 51
f 18 52 19
f 52 53 19
f 19 53 20
f 53 54 20
f 20 54 21
f 54 55 21
f 21 55 22
f 55 56 22
f 22 56 23
f 56 57 23
f 23 57 24
f 57 58 24
f 24 58 25
f 58 59 25
f 25 59 26
f 59 60 26
f 26 60 27
f 60 61 27
f 27 61 28
f 61 62 28
f 28 62 29
f 62 63 29
f 29 63 30
f 63 64 30
f 30 64 31
f 64 65 31
f 31 65 32
f 65 66 32
f 32 66 33
f 66 67 33
f 33 67 34
f 67 68 34
