o PhysicalSource
v -12 0 -4
v -12 0 4
v 0 0 -4
v 0 0 4
v 0.294406046 0.00722726277 -4
v 0.294406046 0.00722726277 4
v 0.588102842 0.02889164 -4
v 0.588102842 0.02889164 4
v 0.880382847 0.0649409402 -4
v 0.880382847 0.0649409402 4
v 1.17054193 0.115288318 -4
v 1.17054193 0.115288318 4
v 1.45788108 0.179812481 -4
v 1.45788108 0.179812481 4
v 1.74170806 0.258357986 -4
v 1.74170806 0.258357986 4
v 2.02133912 0.350735609 -4
v 2.02133912 0.350735609 4
v 2.29610059 0.456722805 -4
v 2.29610059 0.456722805 4
v 2.56533056 0.576064241 -4
v 2.56533056 0.576064241 4
v 2.82838042 0.708472414 -4
v 2.82838042 0.708472414 4
v 3.08461647 0.85362834 -4
v 3.08461647 0.85362834 4
v 3.3334214 1.01118233 -4
v 3.3334214 1.01118233 4
v 3.57419583 1.18075481 -4
v 3.57419583 1.18075481 4
v 3.8063597 1.36193728 -4
v 3.8063597 1.36193728 4
v 4.02935373 1.55429325 -4
v 4.02935373 1.55429325 4
v 4.24264069 1.75735931 -4
v 4.24264069 1.75735931 4
v 4.44570675 1.97064627 -4
v 4.44570675 1.97064627 4
v 4.63806272 2.1936403 -4
v 4.63806272 2.1936403 4
v 4.81924519 2.42580417 -4
v 4.81924519 2.42580417 4
v 4.98881767 2.6665786 -4
v 4.98881767 2.6665786 4
v 5.14637166 2.91538353 -4
v 5.14637166 2.91538353 4
v 5.29152759 3.17161958 -4
v 5.29152759 3.17161958 4
v 5.42393576 3.43466944 -4
v 5.42393576 3.43466944 4
v 5.5432772 3.70389941 -4
v 5.5432772 3.70389941 4
v 5.64926439 3.97866088 -4
v 5.64926439 3.97866088 4
v 5.74164201 4.25829194 -4
v 5.74164201 4.25829194 4
v 5.82018752 4.54211892 -4
v 5.82018752 4.54211892 4
v 5.88471168 4.82945807 -4
v 5.88471168 4.82945807 4
v 5.93505906 5.11961715 -4
v 5.93505906 5.11961715 4
v 5.97110836 5.41189716 -4
v 5.97110836 5.41189716 4
v 5.99277274 5.70559395 -4
v 5.99277274 5.70559395 4
v 6 6 -4
v 6 6 4
vn 0 1 0
vn 0 1 0
vn -0.0245412285 0.999698819 0
vn -0.0245412285 0.999698819 0
vn -0.0735645636 0.997290457 0
vn -0.0735645636 0.997290457 0
vn -0.122410675 0.992479535 0
vn -0.122410675 0.992479535 0
vn -0.170961889 0.985277642 0
vn -0.170961889 0.985277642 0
vn -0.21910124 0.97570213 0
vn -0.21910124 0.97570213 0
vn -0.266712757 0.963776066 0
vn -0.266712757 0.963776066 0
vn -0.31368174 0.949528181 0
vn -0.31368174 0.949528181 0
vn -0.359895037 0.932992799 0
vn -0.359895037 0.932992799 0
vn -0.405241314 0.914209756 0
vn -0.405241314 0.914209756 0
vn -0.44961133 0.893224301 0
vn -0.44961133 0.893224301 0
vn -0.492898192 0.870086991 0
vn -0.492898192 0.870086991 0
vn -0.53499762 0.844853565 0
vn -0.53499762 0.844853565 0
vn -0.575808191 0.817584813 0
vn -0.575808191 0.817584813 0
vn -0.615231591 0.788346428 0
vn -0.615231591 0.788346428 0
vn -0.653172843 0.757208847 0
vn -0.653172843 0.757208847 0
vn -0.689540545 0.724247083 0
vn -0.689540545 0.724247083 0
vn -0.724247083 0.689540545 0
vn -0.724247083 0.689540545 0
vn -0.757208847 0.653172843 0
vn -0.757208847 0.653172843 0
vn -0.788346428 0.615231591 0
vn -0.788346428 0.615231591 0
vn -0.817584813 0.575808191 0
vn -0.817584813 0.575808191 0
vn -0.844853565 0.53499762 0
vn -0.844853565 0.53499762 0
vn -0.870086991 0.492898192 0
vn -0.870086991 0.492898192 0
vn -0.893224301 0.44961133 0
vn -0.893224301 0.44961133 0
vn -0.914209756 0.405241314 0
vn -0.914209756 0.405241314 0
vn -0.932992799 0.359895037 0
vn -0.932992799 0.359895037 0
vn -0.949528181 0.31368174 0
vn -0.949528181 0.31368174 0
vn -0.963776066 0.266712757 0
vn -0.963776066 0.266712757 0
vn -0.97570213 0.21910124 0
vn -0.97570213 0.21910124 0
vn -0.985277642 0.170961889 0
vn -0.985277642 0.170961889 0
vn -0.992479535 0.122410675 0
vn -0.992479535 0.122410675 0
vn -0.997290457 0.0735645636 0
vn -0.997290457 0.0735645636 0
vn -0.999698819 0.0245412285 0
vn -0.999698819 0.0245412285 0
f 1//1 2//1 4//1
f 1//2 4//2 3//2
f 3//3 4//3 6//3
f 3//4 6//4 5//4
f 5//5 6//5 8//5
f 5//6 8//6 7//6
f 7//7 8//7 10//7
f 7//8 10//8 9//8
f 9//9 10//9 12//9
f 9//10 12//10 11//10
f 11//11 12//11 14//11
f 11//12 14//12 13//12
f 13//13 14//13 16//13
f 13//14 16//14 15//14
f 15//15 16//15 18//15
f 15//16 18//16 17//16
f 17//17 18//17 20//17
f 17//18 20//18 19//18
f 19//19 20//19 22//19
f 19//20 22//20 21//20
f 21//21 22//21 24//21
f 21//22 24//22 23//22
f 23//23 24//23 26//23
f 23//24 26//24 25//24
f 25//25 26//25 28//25
f 25//26 28//26 27//26
f 27//27 28//27 30//27
f 27//28 30//28 29//28
f 29//29 30//29 32//29
f 29//30 32//30 31//30
f 31//31 32//31 34//31
f 31//32 34//32 33//32
f 33//33 34//33 36//33
f 33//34 36//34 35//34
f 35//35 36//35 38//35
f 35//36 38//36 37//36
f 37//37 38//37 40//37
f 37//38 40//38 39//38
f 39//39 40//39 42//39
f 39//40 42//40 41//40
f 41//41 42//41 44//41
f 41//42 44//42 43//42
f 43//43 44//43 46//43
f 43//44 46//44 45//44
f 45//45 46//45 48//45
f 45//46 48//46 47//46
f 47//47 48//47 50//47
f 47//48 50//48 49//48
f 49//49 50//49 52//49
f 49//50 52//50 51//50
f 51//51 52//51 54//51
f 51//52 54//52 53//52
f 53//53 54//53 56//53
f 53//54 56//54 55//54
f 55//55 56//55 58//55
f 55//56 58//56 57//56
f 57//57 58//57 60//57
f 57//58 60//58 59//58
f 59//59 60//59 62//59
f 59//60 62//60 61//60
f 61//61 62//61 64//61
f 61//62 64//62 63//62
f 63//63 64//63 66//63
f 63//64 66//64 65//64
f 65//65 66//65 68//65
f 65//66 68//66 67//66
