# generated park visual mesh (metric UVs)
v -4.0000 3.0000 27.0000
v 4.0000 3.0000 27.0000
v 4.0000 3.0000 22.0000
v -4.0000 3.0000 27.0000
v 4.0000 3.0000 22.0000
v -4.0000 3.0000 22.0000
v -4.0000 3.0000 22.0000
v 4.0000 3.0000 22.0000
v 4.0000 2.9975 21.8992
v -4.0000 3.0000 22.0000
v 4.0000 2.9975 21.8992
v -4.0000 2.9975 21.8992
v -4.0000 2.9975 21.8992
v 4.0000 2.9975 21.8992
v 4.0000 2.9898 21.7987
v -4.0000 2.9975 21.8992
v 4.0000 2.9898 21.7987
v -4.0000 2.9898 21.7987
v -4.0000 2.9898 21.7987
v 4.0000 2.9898 21.7987
v 4.0000 2.9772 21.6986
v -4.0000 2.9898 21.7987
v 4.0000 2.9772 21.6986
v -4.0000 2.9772 21.6986
v -4.0000 2.9772 21.6986
v 4.0000 2.9772 21.6986
v 4.0000 2.9595 21.5994
v -4.0000 2.9772 21.6986
v 4.0000 2.9595 21.5994
v -4.0000 2.9595 21.5994
v -4.0000 2.9595 21.5994
v 4.0000 2.9595 21.5994
v 4.0000 2.9368 21.5011
v -4.0000 2.9595 21.5994
v 4.0000 2.9368 21.5011
v -4.0000 2.9368 21.5011
v -4.0000 2.9368 21.5011
v 4.0000 2.9368 21.5011
v 4.0000 2.9092 21.4041
v -4.0000 2.9368 21.5011
v 4.0000 2.9092 21.4041
v -4.0000 2.9092 21.4041
v -4.0000 2.9092 21.4041
v 4.0000 2.9092 21.4041
v 4.0000 2.8767 21.3087
v -4.0000 2.9092 21.4041
v 4.0000 2.8767 21.3087
v -4.0000 2.8767 21.3087
v -4.0000 2.8767 21.3087
v 4.0000 2.8767 21.3087
v 4.0000 2.8395 21.2150
v -4.0000 2.8767 21.3087
v 4.0000 2.8395 21.2150
v -4.0000 2.8395 21.2150
v -4.0000 2.8395 21.2150
v 4.0000 2.8395 21.2150
v 4.0000 2.7976 21.1233
v -4.0000 2.8395 21.2150
v 4.0000 2.7976 21.1233
v -4.0000 2.7976 21.1233
v -4.0000 2.7976 21.1233
v 4.0000 2.7976 21.1233
v 4.0000 0.4554 16.3211
v -4.0000 2.7976 21.1233
v 4.0000 0.4554 16.3211
v -4.0000 0.4554 16.3211
v -4.0000 0.4554 16.3211
v 4.0000 0.4554 16.3211
v 4.0000 0.4070 16.2185
v -4.0000 0.4554 16.3211
v 4.0000 0.4070 16.2185
v -4.0000 0.4070 16.2185
v -4.0000 0.4070 16.2185
v 4.0000 0.4070 16.2185
v 4.0000 0.3611 16.1148
v -4.0000 0.4070 16.2185
v 4.0000 0.3611 16.1148
v -4.0000 0.3611 16.1148
v -4.0000 0.3611 16.1148
v 4.0000 0.3611 16.1148
v 4.0000 0.3179 16.0099
v -4.0000 0.3611 16.1148
v 4.0000 0.3179 16.0099
v -4.0000 0.3179 16.0099
v -4.0000 0.3179 16.0099
v 4.0000 0.3179 16.0099
v 4.0000 0.2774 15.9039
v -4.0000 0.3179 16.0099
v 4.0000 0.2774 15.9039
v -4.0000 0.2774 15.9039
v -4.0000 0.2774 15.9039
v 4.0000 0.2774 15.9039
v 4.0000 0.2395 15.7970
v -4.0000 0.2774 15.9039
v 4.0000 0.2395 15.7970
v -4.0000 0.2395 15.7970
v -4.0000 0.2395 15.7970
v 4.0000 0.2395 15.7970
v 4.0000 0.2044 15.6891
v -4.0000 0.2395 15.7970
v 4.0000 0.2044 15.6891
v -4.0000 0.2044 15.6891
v -4.0000 0.2044 15.6891
v 4.0000 0.2044 15.6891
v 4.0000 0.1719 15.5804
v -4.0000 0.2044 15.6891
v 4.0000 0.1719 15.5804
v -4.0000 0.1719 15.5804
v -4.0000 0.1719 15.5804
v 4.0000 0.1719 15.5804
v 4.0000 0.1422 15.4709
v -4.0000 0.1719 15.5804
v 4.0000 0.1422 15.4709
v -4.0000 0.1422 15.4709
v -4.0000 0.1422 15.4709
v 4.0000 0.1422 15.4709
v 4.0000 0.1153 15.3607
v -4.0000 0.1422 15.4709
v 4.0000 0.1153 15.3607
v -4.0000 0.1153 15.3607
v -4.0000 0.1153 15.3607
v 4.0000 0.1153 15.3607
v 4.0000 0.0912 15.2499
v -4.0000 0.1153 15.3607
v 4.0000 0.0912 15.2499
v -4.0000 0.0912 15.2499
v -4.0000 0.0912 15.2499
v 4.0000 0.0912 15.2499
v 4.0000 0.0699 15.1385
v -4.0000 0.0912 15.2499
v 4.0000 0.0699 15.1385
v -4.0000 0.0699 15.1385
v -4.0000 0.0699 15.1385
v 4.0000 0.0699 15.1385
v 4.0000 0.0514 15.0265
v -4.0000 0.0699 15.1385
v 4.0000 0.0514 15.0265
v -4.0000 0.0514 15.0265
v -4.0000 0.0514 15.0265
v 4.0000 0.0514 15.0265
v 4.0000 0.0357 14.9142
v -4.0000 0.0514 15.0265
v 4.0000 0.0357 14.9142
v -4.0000 0.0357 14.9142
v -4.0000 0.0357 14.9142
v 4.0000 0.0357 14.9142
v 4.0000 0.0229 14.8015
v -4.0000 0.0357 14.9142
v 4.0000 0.0229 14.8015
v -4.0000 0.0229 14.8015
v -4.0000 0.0229 14.8015
v 4.0000 0.0229 14.8015
v 4.0000 0.0129 14.6885
v -4.0000 0.0229 14.8015
v 4.0000 0.0129 14.6885
v -4.0000 0.0129 14.6885
v -4.0000 0.0129 14.6885
v 4.0000 0.0129 14.6885
v 4.0000 0.0057 14.5752
v -4.0000 0.0129 14.6885
v 4.0000 0.0057 14.5752
v -4.0000 0.0057 14.5752
v -4.0000 0.0057 14.5752
v 4.0000 0.0057 14.5752
v 4.0000 0.0014 14.4619
v -4.0000 0.0057 14.5752
v 4.0000 0.0014 14.4619
v -4.0000 0.0014 14.4619
v -4.0000 0.0014 14.4619
v 4.0000 0.0014 14.4619
v 4.0000 0.0000 14.3484
v -4.0000 0.0014 14.4619
v 4.0000 0.0000 14.3484
v -4.0000 0.0000 14.3484
v -4.0000 0.0000 14.3484
v 4.0000 0.0000 14.3484
v 4.0000 0.0000 12.8484
v -4.0000 0.0000 14.3484
v 4.0000 0.0000 12.8484
v -4.0000 0.0000 12.8484
v -4.0000 3.0000 27.0000
v -4.0000 3.0000 22.0000
v -4.0000 0.0000 27.0000
v -4.0000 0.0000 27.0000
v -4.0000 3.0000 22.0000
v -4.0000 0.0000 22.0000
v -4.0000 3.0000 22.0000
v -4.0000 2.9975 21.8992
v -4.0000 0.0000 22.0000
v -4.0000 0.0000 22.0000
v -4.0000 2.9975 21.8992
v -4.0000 0.0000 21.8992
v -4.0000 2.9975 21.8992
v -4.0000 2.9898 21.7987
v -4.0000 0.0000 21.8992
v -4.0000 0.0000 21.8992
v -4.0000 2.9898 21.7987
v -4.0000 0.0000 21.7987
v -4.0000 2.9898 21.7987
v -4.0000 2.9772 21.6986
v -4.0000 0.0000 21.7987
v -4.0000 0.0000 21.7987
v -4.0000 2.9772 21.6986
v -4.0000 0.0000 21.6986
v -4.0000 2.9772 21.6986
v -4.0000 2.9595 21.5994
v -4.0000 0.0000 21.6986
v -4.0000 0.0000 21.6986
v -4.0000 2.9595 21.5994
v -4.0000 0.0000 21.5994
v -4.0000 2.9595 21.5994
v -4.0000 2.9368 21.5011
v -4.0000 0.0000 21.5994
v -4.0000 0.0000 21.5994
v -4.0000 2.9368 21.5011
v -4.0000 0.0000 21.5011
v -4.0000 2.9368 21.5011
v -4.0000 2.9092 21.4041
v -4.0000 0.0000 21.5011
v -4.0000 0.0000 21.5011
v -4.0000 2.9092 21.4041
v -4.0000 0.0000 21.4041
v -4.0000 2.9092 21.4041
v -4.0000 2.8767 21.3087
v -4.0000 0.0000 21.4041
v -4.0000 0.0000 21.4041
v -4.0000 2.8767 21.3087
v -4.0000 0.0000 21.3087
v -4.0000 2.8767 21.3087
v -4.0000 2.8395 21.2150
v -4.0000 0.0000 21.3087
v -4.0000 0.0000 21.3087
v -4.0000 2.8395 21.2150
v -4.0000 0.0000 21.2150
v -4.0000 2.8395 21.2150
v -4.0000 2.7976 21.1233
v -4.0000 0.0000 21.2150
v -4.0000 0.0000 21.2150
v -4.0000 2.7976 21.1233
v -4.0000 0.0000 21.1233
v -4.0000 2.7976 21.1233
v -4.0000 0.4554 16.3211
v -4.0000 0.0000 21.1233
v -4.0000 0.0000 21.1233
v -4.0000 0.4554 16.3211
v -4.0000 0.0000 16.3211
v -4.0000 0.4554 16.3211
v -4.0000 0.4070 16.2185
v -4.0000 0.0000 16.3211
v -4.0000 0.0000 16.3211
v -4.0000 0.4070 16.2185
v -4.0000 0.0000 16.2185
v -4.0000 0.4070 16.2185
v -4.0000 0.3611 16.1148
v -4.0000 0.0000 16.2185
v -4.0000 0.0000 16.2185
v -4.0000 0.3611 16.1148
v -4.0000 0.0000 16.1148
v -4.0000 0.3611 16.1148
v -4.0000 0.3179 16.0099
v -4.0000 0.0000 16.1148
v -4.0000 0.0000 16.1148
v -4.0000 0.3179 16.0099
v -4.0000 0.0000 16.0099
v -4.0000 0.3179 16.0099
v -4.0000 0.2774 15.9039
v -4.0000 0.0000 16.0099
v -4.0000 0.0000 16.0099
v -4.0000 0.2774 15.9039
v -4.0000 0.0000 15.9039
v -4.0000 0.2774 15.9039
v -4.0000 0.2395 15.7970
v -4.0000 0.0000 15.9039
v -4.0000 0.0000 15.9039
v -4.0000 0.2395 15.7970
v -4.0000 0.0000 15.7970
v -4.0000 0.2395 15.7970
v -4.0000 0.2044 15.6891
v -4.0000 0.0000 15.7970
v -4.0000 0.0000 15.7970
v -4.0000 0.2044 15.6891
v -4.0000 0.0000 15.6891
v -4.0000 0.2044 15.6891
v -4.0000 0.1719 15.5804
v -4.0000 0.0000 15.6891
v -4.0000 0.0000 15.6891
v -4.0000 0.1719 15.5804
v -4.0000 0.0000 15.5804
v -4.0000 0.1719 15.5804
v -4.0000 0.1422 15.4709
v -4.0000 0.0000 15.5804
v -4.0000 0.0000 15.5804
v -4.0000 0.1422 15.4709
v -4.0000 0.0000 15.4709
v -4.0000 0.1422 15.4709
v -4.0000 0.1153 15.3607
v -4.0000 0.0000 15.4709
v -4.0000 0.0000 15.4709
v -4.0000 0.1153 15.3607
v -4.0000 0.0000 15.3607
v -4.0000 0.1153 15.3607
v -4.0000 0.0912 15.2499
v -4.0000 0.0000 15.3607
v -4.0000 0.0000 15.3607
v -4.0000 0.0912 15.2499
v -4.0000 0.0000 15.2499
v -4.0000 0.0912 15.2499
v -4.0000 0.0699 15.1385
v -4.0000 0.0000 15.2499
v -4.0000 0.0000 15.2499
v -4.0000 0.0699 15.1385
v -4.0000 0.0000 15.1385
v -4.0000 0.0699 15.1385
v -4.0000 0.0514 15.0265
v -4.0000 0.0000 15.1385
v -4.0000 0.0000 15.1385
v -4.0000 0.0514 15.0265
v -4.0000 0.0000 15.0265
v -4.0000 0.0514 15.0265
v -4.0000 0.0357 14.9142
v -4.0000 0.0000 15.0265
v -4.0000 0.0000 15.0265
v -4.0000 0.0357 14.9142
v -4.0000 0.0000 14.9142
v -4.0000 0.0357 14.9142
v -4.0000 0.0229 14.8015
v -4.0000 0.0000 14.9142
v -4.0000 0.0000 14.9142
v -4.0000 0.0229 14.8015
v -4.0000 0.0000 14.8015
v -4.0000 0.0229 14.8015
v -4.0000 0.0129 14.6885
v -4.0000 0.0000 14.8015
v -4.0000 0.0000 14.8015
v -4.0000 0.0129 14.6885
v -4.0000 0.0000 14.6885
v -4.0000 0.0129 14.6885
v -4.0000 0.0057 14.5752
v -4.0000 0.0000 14.6885
v 4.0000 3.0000 27.0000
v 4.0000 0.0000 27.0000
v 4.0000 3.0000 22.0000
v 4.0000 0.0000 27.0000
v 4.0000 0.0000 22.0000
v 4.0000 3.0000 22.0000
v 4.0000 3.0000 22.0000
v 4.0000 0.0000 22.0000
v 4.0000 2.9975 21.8992
v 4.0000 0.0000 22.0000
v 4.0000 0.0000 21.8992
v 4.0000 2.9975 21.8992
v 4.0000 2.9975 21.8992
v 4.0000 0.0000 21.8992
v 4.0000 2.9898 21.7987
v 4.0000 0.0000 21.8992
v 4.0000 0.0000 21.7987
v 4.0000 2.9898 21.7987
v 4.0000 2.9898 21.7987
v 4.0000 0.0000 21.7987
v 4.0000 2.9772 21.6986
v 4.0000 0.0000 21.7987
v 4.0000 0.0000 21.6986
v 4.0000 2.9772 21.6986
v 4.0000 2.9772 21.6986
v 4.0000 0.0000 21.6986
v 4.0000 2.9595 21.5994
v 4.0000 0.0000 21.6986
v 4.0000 0.0000 21.5994
v 4.0000 2.9595 21.5994
v 4.0000 2.9595 21.5994
v 4.0000 0.0000 21.5994
v 4.0000 2.9368 21.5011
v 4.0000 0.0000 21.5994
v 4.0000 0.0000 21.5011
v 4.0000 2.9368 21.5011
v 4.0000 2.9368 21.5011
v 4.0000 0.0000 21.5011
v 4.0000 2.9092 21.4041
v 4.0000 0.0000 21.5011
v 4.0000 0.0000 21.4041
v 4.0000 2.9092 21.4041
v 4.0000 2.9092 21.4041
v 4.0000 0.0000 21.4041
v 4.0000 2.8767 21.3087
v 4.0000 0.0000 21.4041
v 4.0000 0.0000 21.3087
v 4.0000 2.8767 21.3087
v 4.0000 2.8767 21.3087
v 4.0000 0.0000 21.3087
v 4.0000 2.8395 21.2150
v 4.0000 0.0000 21.3087
v 4.0000 0.0000 21.2150
v 4.0000 2.8395 21.2150
v 4.0000 2.8395 21.2150
v 4.0000 0.0000 21.2150
v 4.0000 2.7976 21.1233
v 4.0000 0.0000 21.2150
v 4.0000 0.0000 21.1233
v 4.0000 2.7976 21.1233
v 4.0000 2.7976 21.1233
v 4.0000 0.0000 21.1233
v 4.0000 0.4554 16.3211
v 4.0000 0.0000 21.1233
v 4.0000 0.0000 16.3211
v 4.0000 0.4554 16.3211
v 4.0000 0.4554 16.3211
v 4.0000 0.0000 16.3211
v 4.0000 0.4070 16.2185
v 4.0000 0.0000 16.3211
v 4.0000 0.0000 16.2185
v 4.0000 0.4070 16.2185
v 4.0000 0.4070 16.2185
v 4.0000 0.0000 16.2185
v 4.0000 0.3611 16.1148
v 4.0000 0.0000 16.2185
v 4.0000 0.0000 16.1148
v 4.0000 0.3611 16.1148
v 4.0000 0.3611 16.1148
v 4.0000 0.0000 16.1148
v 4.0000 0.3179 16.0099
v 4.0000 0.0000 16.1148
v 4.0000 0.0000 16.0099
v 4.0000 0.3179 16.0099
v 4.0000 0.3179 16.0099
v 4.0000 0.0000 16.0099
v 4.0000 0.2774 15.9039
v 4.0000 0.0000 16.0099
v 4.0000 0.0000 15.9039
v 4.0000 0.2774 15.9039
v 4.0000 0.2774 15.9039
v 4.0000 0.0000 15.9039
v 4.0000 0.2395 15.7970
v 4.0000 0.0000 15.9039
v 4.0000 0.0000 15.7970
v 4.0000 0.2395 15.7970
v 4.0000 0.2395 15.7970
v 4.0000 0.0000 15.7970
v 4.0000 0.2044 15.6891
v 4.0000 0.0000 15.7970
v 4.0000 0.0000 15.6891
v 4.0000 0.2044 15.6891
v 4.0000 0.2044 15.6891
v 4.0000 0.0000 15.6891
v 4.0000 0.1719 15.5804
v 4.0000 0.0000 15.6891
v 4.0000 0.0000 15.5804
v 4.0000 0.1719 15.5804
v 4.0000 0.1719 15.5804
v 4.0000 0.0000 15.5804
v 4.0000 0.1422 15.4709
v 4.0000 0.0000 15.5804
v 4.0000 0.0000 15.4709
v 4.0000 0.1422 15.4709
v 4.0000 0.1422 15.4709
v 4.0000 0.0000 15.4709
v 4.0000 0.1153 15.3607
v 4.0000 0.0000 15.4709
v 4.0000 0.0000 15.3607
v 4.0000 0.1153 15.3607
v 4.0000 0.1153 15.3607
v 4.0000 0.0000 15.3607
v 4.0000 0.0912 15.2499
v 4.0000 0.0000 15.3607
v 4.0000 0.0000 15.2499
v 4.0000 0.0912 15.2499
v 4.0000 0.0912 15.2499
v 4.0000 0.0000 15.2499
v 4.0000 0.0699 15.1385
v 4.0000 0.0000 15.2499
v 4.0000 0.0000 15.1385
v 4.0000 0.0699 15.1385
v 4.0000 0.0699 15.1385
v 4.0000 0.0000 15.1385
v 4.0000 0.0514 15.0265
v 4.0000 0.0000 15.1385
v 4.0000 0.0000 15.0265
v 4.0000 0.0514 15.0265
v 4.0000 0.0514 15.0265
v 4.0000 0.0000 15.0265
v 4.0000 0.0357 14.9142
v 4.0000 0.0000 15.0265
v 4.0000 0.0000 14.9142
v 4.0000 0.0357 14.9142
v 4.0000 0.0357 14.9142
v 4.0000 0.0000 14.9142
v 4.0000 0.0229 14.8015
v 4.0000 0.0000 14.9142
v 4.0000 0.0000 14.8015
v 4.0000 0.0229 14.8015
v 4.0000 0.0229 14.8015
v 4.0000 0.0000 14.8015
v 4.0000 0.0129 14.6885
v 4.0000 0.0000 14.8015
v 4.0000 0.0000 14.6885
v 4.0000 0.0129 14.6885
v 4.0000 0.0129 14.6885
v 4.0000 0.0000 14.6885
v 4.0000 0.0057 14.5752
v -8.0000 0.0000 8.0000
v -8.0000 0.0000 -1.0000
v -8.0000 1.2000 -1.0000
v -8.0000 1.2000 8.0000
v -18.0000 0.0000 -1.0000
v -18.0000 0.0000 8.0000
v -18.0000 1.2000 8.0000
v -18.0000 1.2000 -1.0000
v -18.0000 1.2000 8.0000
v -8.0000 1.2000 8.0000
v -8.0000 1.2000 -1.0000
v -18.0000 1.2000 -1.0000
v -18.0000 0.0000 -1.0000
v -8.0000 0.0000 -1.0000
v -8.0000 0.0000 8.0000
v -18.0000 0.0000 8.0000
v -18.0000 0.0000 8.0000
v -8.0000 0.0000 8.0000
v -8.0000 1.2000 8.0000
v -18.0000 1.2000 8.0000
v -8.0000 0.0000 -1.0000
v -18.0000 0.0000 -1.0000
v -18.0000 1.2000 -1.0000
v -8.0000 1.2000 -1.0000
v -16.0000 0.0000 12.7390
v -10.0000 0.0000 12.7390
v -10.0000 0.0023 12.6227
v -16.0000 0.0000 12.7390
v -10.0000 0.0023 12.6227
v -16.0000 0.0023 12.6227
v -16.0000 0.0023 12.6227
v -10.0000 0.0023 12.6227
v -10.0000 0.0090 12.5065
v -16.0000 0.0023 12.6227
v -10.0000 0.0090 12.5065
v -16.0000 0.0090 12.5065
v -16.0000 0.0090 12.5065
v -10.0000 0.0090 12.5065
v -10.0000 0.0203 12.3907
v -16.0000 0.0090 12.5065
v -10.0000 0.0203 12.3907
v -16.0000 0.0203 12.3907
v -16.0000 0.0203 12.3907
v -10.0000 0.0203 12.3907
v -10.0000 0.0360 12.2754
v -16.0000 0.0203 12.3907
v -10.0000 0.0360 12.2754
v -16.0000 0.0360 12.2754
v -16.0000 0.0360 12.2754
v -10.0000 0.0360 12.2754
v -10.0000 0.0562 12.1608
v -16.0000 0.0360 12.2754
v -10.0000 0.0562 12.1608
v -16.0000 0.0562 12.1608
v -16.0000 0.0562 12.1608
v -10.0000 0.0562 12.1608
v -10.0000 0.0809 12.0471
v -16.0000 0.0562 12.1608
v -10.0000 0.0809 12.0471
v -16.0000 0.0809 12.0471
v -16.0000 0.0809 12.0471
v -10.0000 0.0809 12.0471
v -10.0000 0.1099 11.9345
v -16.0000 0.0809 12.0471
v -10.0000 0.1099 11.9345
v -16.0000 0.1099 11.9345
v -16.0000 0.1099 11.9345
v -10.0000 0.1099 11.9345
v -10.0000 0.1433 11.8230
v -16.0000 0.1099 11.9345
v -10.0000 0.1433 11.8230
v -16.0000 0.1433 11.8230
v -16.0000 0.1433 11.8230
v -10.0000 0.1433 11.8230
v -10.0000 0.1809 11.7129
v -16.0000 0.1433 11.8230
v -10.0000 0.1809 11.7129
v -16.0000 0.1809 11.7129
v -16.0000 0.1809 11.7129
v -10.0000 0.1809 11.7129
v -10.0000 1.2000 8.9130
v -16.0000 0.1809 11.7129
v -10.0000 1.2000 8.9130
v -16.0000 1.2000 8.9130
v -16.0000 1.2000 8.9130
v -10.0000 1.2000 8.9130
v -10.0000 1.2274 8.8302
v -16.0000 1.2000 8.9130
v -10.0000 1.2274 8.8302
v -16.0000 1.2274 8.8302
v -16.0000 1.2274 8.8302
v -10.0000 1.2274 8.8302
v -10.0000 1.2500 8.7459
v -16.0000 1.2274 8.8302
v -10.0000 1.2500 8.7459
v -16.0000 1.2500 8.7459
v -16.0000 1.2500 8.7459
v -10.0000 1.2500 8.7459
v -10.0000 1.2677 8.6605
v -16.0000 1.2500 8.7459
v -10.0000 1.2677 8.6605
v -16.0000 1.2677 8.6605
v -16.0000 1.2677 8.6605
v -10.0000 1.2677 8.6605
v -10.0000 1.2803 8.5741
v -16.0000 1.2677 8.6605
v -10.0000 1.2803 8.5741
v -16.0000 1.2803 8.5741
v -16.0000 1.2803 8.5741
v -10.0000 1.2803 8.5741
v -10.0000 1.2879 8.4872
v -16.0000 1.2803 8.5741
v -10.0000 1.2879 8.4872
v -16.0000 1.2879 8.4872
v -16.0000 1.2879 8.4872
v -10.0000 1.2879 8.4872
v -10.0000 1.2905 8.4000
v -16.0000 1.2879 8.4872
v -10.0000 1.2905 8.4000
v -16.0000 1.2905 8.4000
v -16.0000 1.2905 8.4000
v -10.0000 1.2905 8.4000
v -10.0000 1.2905 8.0000
v -16.0000 1.2905 8.4000
v -10.0000 1.2905 8.0000
v -16.0000 1.2905 8.0000
v -16.0000 0.0090 12.5065
v -16.0000 0.0203 12.3907
v -16.0000 0.0000 12.3907
v -16.0000 0.0203 12.3907
v -16.0000 0.0360 12.2754
v -16.0000 0.0000 12.3907
v -16.0000 0.0000 12.3907
v -16.0000 0.0360 12.2754
v -16.0000 0.0000 12.2754
v -16.0000 0.0360 12.2754
v -16.0000 0.0562 12.1608
v -16.0000 0.0000 12.2754
v -16.0000 0.0000 12.2754
v -16.0000 0.0562 12.1608
v -16.0000 0.0000 12.1608
v -16.0000 0.0562 12.1608
v -16.0000 0.0809 12.0471
v -16.0000 0.0000 12.1608
v -16.0000 0.0000 12.1608
v -16.0000 0.0809 12.0471
v -16.0000 0.0000 12.0471
v -16.0000 0.0809 12.0471
v -16.0000 0.1099 11.9345
v -16.0000 0.0000 12.0471
v -16.0000 0.0000 12.0471
v -16.0000 0.1099 11.9345
v -16.0000 0.0000 11.9345
v -16.0000 0.1099 11.9345
v -16.0000 0.1433 11.8230
v -16.0000 0.0000 11.9345
v -16.0000 0.0000 11.9345
v -16.0000 0.1433 11.8230
v -16.0000 0.0000 11.8230
v -16.0000 0.1433 11.8230
v -16.0000 0.1809 11.7129
v -16.0000 0.0000 11.8230
v -16.0000 0.0000 11.8230
v -16.0000 0.1809 11.7129
v -16.0000 0.0000 11.7129
v -16.0000 0.1809 11.7129
v -16.0000 1.2000 8.9130
v -16.0000 0.0000 11.7129
v -16.0000 0.0000 11.7129
v -16.0000 1.2000 8.9130
v -16.0000 0.0000 8.9130
v -16.0000 1.2000 8.9130
v -16.0000 1.2274 8.8302
v -16.0000 0.0000 8.9130
v -16.0000 0.0000 8.9130
v -16.0000 1.2274 8.8302
v -16.0000 0.0000 8.8302
v -16.0000 1.2274 8.8302
v -16.0000 1.2500 8.7459
v -16.0000 0.0000 8.8302
v -16.0000 0.0000 8.8302
v -16.0000 1.2500 8.7459
v -16.0000 0.0000 8.7459
v -16.0000 1.2500 8.7459
v -16.0000 1.2677 8.6605
v -16.0000 0.0000 8.7459
v -16.0000 0.0000 8.7459
v -16.0000 1.2677 8.6605
v -16.0000 0.0000 8.6605
v -16.0000 1.2677 8.6605
v -16.0000 1.2803 8.5741
v -16.0000 0.0000 8.6605
v -16.0000 0.0000 8.6605
v -16.0000 1.2803 8.5741
v -16.0000 0.0000 8.5741
v -16.0000 1.2803 8.5741
v -16.0000 1.2879 8.4872
v -16.0000 0.0000 8.5741
v -16.0000 0.0000 8.5741
v -16.0000 1.2879 8.4872
v -16.0000 0.0000 8.4872
v -16.0000 1.2879 8.4872
v -16.0000 1.2905 8.4000
v -16.0000 0.0000 8.4872
v -16.0000 0.0000 8.4872
v -16.0000 1.2905 8.4000
v -16.0000 0.0000 8.4000
v -16.0000 1.2905 8.4000
v -16.0000 1.2905 8.0000
v -16.0000 0.0000 8.4000
v -16.0000 0.0000 8.4000
v -16.0000 1.2905 8.0000
v -16.0000 0.0000 8.0000
v -10.0000 0.0090 12.5065
v -10.0000 0.0000 12.3907
v -10.0000 0.0203 12.3907
v -10.0000 0.0203 12.3907
v -10.0000 0.0000 12.3907
v -10.0000 0.0360 12.2754
v -10.0000 0.0000 12.3907
v -10.0000 0.0000 12.2754
v -10.0000 0.0360 12.2754
v -10.0000 0.0360 12.2754
v -10.0000 0.0000 12.2754
v -10.0000 0.0562 12.1608
v -10.0000 0.0000 12.2754
v -10.0000 0.0000 12.1608
v -10.0000 0.0562 12.1608
v -10.0000 0.0562 12.1608
v -10.0000 0.0000 12.1608
v -10.0000 0.0809 12.0471
v -10.0000 0.0000 12.1608
v -10.0000 0.0000 12.0471
v -10.0000 0.0809 12.0471
v -10.0000 0.0809 12.0471
v -10.0000 0.0000 12.0471
v -10.0000 0.1099 11.9345
v -10.0000 0.0000 12.0471
v -10.0000 0.0000 11.9345
v -10.0000 0.1099 11.9345
v -10.0000 0.1099 11.9345
v -10.0000 0.0000 11.9345
v -10.0000 0.1433 11.8230
v -10.0000 0.0000 11.9345
v -10.0000 0.0000 11.8230
v -10.0000 0.1433 11.8230
v -10.0000 0.1433 11.8230
v -10.0000 0.0000 11.8230
v -10.0000 0.1809 11.7129
v -10.0000 0.0000 11.8230
v -10.0000 0.0000 11.7129
v -10.0000 0.1809 11.7129
v -10.0000 0.1809 11.7129
v -10.0000 0.0000 11.7129
v -10.0000 1.2000 8.9130
v -10.0000 0.0000 11.7129
v -10.0000 0.0000 8.9130
v -10.0000 1.2000 8.9130
v -10.0000 1.2000 8.9130
v -10.0000 0.0000 8.9130
v -10.0000 1.2274 8.8302
v -10.0000 0.0000 8.9130
v -10.0000 0.0000 8.8302
v -10.0000 1.2274 8.8302
v -10.0000 1.2274 8.8302
v -10.0000 0.0000 8.8302
v -10.0000 1.2500 8.7459
v -10.0000 0.0000 8.8302
v -10.0000 0.0000 8.7459
v -10.0000 1.2500 8.7459
v -10.0000 1.2500 8.7459
v -10.0000 0.0000 8.7459
v -10.0000 1.2677 8.6605
v -10.0000 0.0000 8.7459
v -10.0000 0.0000 8.6605
v -10.0000 1.2677 8.6605
v -10.0000 1.2677 8.6605
v -10.0000 0.0000 8.6605
v -10.0000 1.2803 8.5741
v -10.0000 0.0000 8.6605
v -10.0000 0.0000 8.5741
v -10.0000 1.2803 8.5741
v -10.0000 1.2803 8.5741
v -10.0000 0.0000 8.5741
v -10.0000 1.2879 8.4872
v -10.0000 0.0000 8.5741
v -10.0000 0.0000 8.4872
v -10.0000 1.2879 8.4872
v -10.0000 1.2879 8.4872
v -10.0000 0.0000 8.4872
v -10.0000 1.2905 8.4000
v -10.0000 0.0000 8.4872
v -10.0000 0.0000 8.4000
v -10.0000 1.2905 8.4000
v -10.0000 1.2905 8.4000
v -10.0000 0.0000 8.4000
v -10.0000 1.2905 8.0000
v -10.0000 0.0000 8.4000
v -10.0000 0.0000 8.0000
v -10.0000 1.2905 8.0000
v -10.0000 0.0000 -1.0000
v -10.0000 0.0000 -1.4200
v -10.0000 0.9600 -1.4200
v -10.0000 0.9600 -1.0000
v -16.0000 0.0000 -1.4200
v -16.0000 0.0000 -1.0000
v -16.0000 0.9600 -1.0000
v -16.0000 0.9600 -1.4200
v -16.0000 0.9600 -1.0000
v -10.0000 0.9600 -1.0000
v -10.0000 0.9600 -1.4200
v -16.0000 0.9600 -1.4200
v -16.0000 0.0000 -1.4200
v -10.0000 0.0000 -1.4200
v -10.0000 0.0000 -1.0000
v -16.0000 0.0000 -1.0000
v -16.0000 0.0000 -1.0000
v -10.0000 0.0000 -1.0000
v -10.0000 0.9600 -1.0000
v -16.0000 0.9600 -1.0000
v -10.0000 0.0000 -1.4200
v -16.0000 0.0000 -1.4200
v -16.0000 0.9600 -1.4200
v -10.0000 0.9600 -1.4200
v -10.0000 0.0000 -1.4200
v -10.0000 0.0000 -1.8400
v -10.0000 0.7200 -1.8400
v -10.0000 0.7200 -1.4200
v -16.0000 0.0000 -1.8400
v -16.0000 0.0000 -1.4200
v -16.0000 0.7200 -1.4200
v -16.0000 0.7200 -1.8400
v -16.0000 0.7200 -1.4200
v -10.0000 0.7200 -1.4200
v -10.0000 0.7200 -1.8400
v -16.0000 0.7200 -1.8400
v -16.0000 0.0000 -1.8400
v -10.0000 0.0000 -1.8400
v -10.0000 0.0000 -1.4200
v -16.0000 0.0000 -1.4200
v -16.0000 0.0000 -1.4200
v -10.0000 0.0000 -1.4200
v -10.0000 0.7200 -1.4200
v -16.0000 0.7200 -1.4200
v -10.0000 0.0000 -1.8400
v -16.0000 0.0000 -1.8400
v -16.0000 0.7200 -1.8400
v -10.0000 0.7200 -1.8400
v -10.0000 0.0000 -1.8400
v -10.0000 0.0000 -2.2600
v -10.0000 0.4800 -2.2600
v -10.0000 0.4800 -1.8400
v -16.0000 0.0000 -2.2600
v -16.0000 0.0000 -1.8400
v -16.0000 0.4800 -1.8400
v -16.0000 0.4800 -2.2600
v -16.0000 0.4800 -1.8400
v -10.0000 0.4800 -1.8400
v -10.0000 0.4800 -2.2600
v -16.0000 0.4800 -2.2600
v -16.0000 0.0000 -2.2600
v -10.0000 0.0000 -2.2600
v -10.0000 0.0000 -1.8400
v -16.0000 0.0000 -1.8400
v -16.0000 0.0000 -1.8400
v -10.0000 0.0000 -1.8400
v -10.0000 0.4800 -1.8400
v -16.0000 0.4800 -1.8400
v -10.0000 0.0000 -2.2600
v -16.0000 0.0000 -2.2600
v -16.0000 0.4800 -2.2600
v -10.0000 0.4800 -2.2600
v -10.0000 0.0000 -2.2600
v -10.0000 0.0000 -2.6800
v -10.0000 0.2400 -2.6800
v -10.0000 0.2400 -2.2600
v -16.0000 0.0000 -2.6800
v -16.0000 0.0000 -2.2600
v -16.0000 0.2400 -2.2600
v -16.0000 0.2400 -2.6800
v -16.0000 0.2400 -2.2600
v -10.0000 0.2400 -2.2600
v -10.0000 0.2400 -2.6800
v -16.0000 0.2400 -2.6800
v -16.0000 0.0000 -2.6800
v -10.0000 0.0000 -2.6800
v -10.0000 0.0000 -2.2600
v -16.0000 0.0000 -2.2600
v -16.0000 0.0000 -2.2600
v -10.0000 0.0000 -2.2600
v -10.0000 0.2400 -2.2600
v -16.0000 0.2400 -2.2600
v -10.0000 0.0000 -2.6800
v -16.0000 0.0000 -2.6800
v -16.0000 0.2400 -2.6800
v -10.0000 0.2400 -2.6800
v -10.0000 0.0000 -2.6800
v -10.0000 0.0000 -3.1000
v -10.0000 0.0200 -3.1000
v -10.0000 0.0200 -2.6800
v -16.0000 0.0000 -3.1000
v -16.0000 0.0000 -2.6800
v -16.0000 0.0200 -2.6800
v -16.0000 0.0200 -3.1000
v -16.0000 0.0200 -2.6800
v -10.0000 0.0200 -2.6800
v -10.0000 0.0200 -3.1000
v -16.0000 0.0200 -3.1000
v -16.0000 0.0000 -3.1000
v -10.0000 0.0000 -3.1000
v -10.0000 0.0000 -2.6800
v -16.0000 0.0000 -2.6800
v -16.0000 0.0000 -2.6800
v -10.0000 0.0000 -2.6800
v -10.0000 0.0200 -2.6800
v -16.0000 0.0200 -2.6800
v -10.0000 0.0000 -3.1000
v -16.0000 0.0000 -3.1000
v -16.0000 0.0200 -3.1000
v -10.0000 0.0200 -3.1000
v -16.9500 1.2000 7.0000
v -16.9500 1.2000 0.0000
v -16.9500 1.7000 0.0000
v -16.9500 1.7000 7.0000
v -17.6500 1.2000 0.0000
v -17.6500 1.2000 7.0000
v -17.6500 1.7000 7.0000
v -17.6500 1.7000 0.0000
v -17.6500 1.7000 7.0000
v -16.9500 1.7000 7.0000
v -16.9500 1.7000 0.0000
v -17.6500 1.7000 0.0000
v -17.6500 1.2000 0.0000
v -16.9500 1.2000 0.0000
v -16.9500 1.2000 7.0000
v -17.6500 1.2000 7.0000
v -17.6500 1.2000 7.0000
v -16.9500 1.2000 7.0000
v -16.9500 1.7000 7.0000
v -17.6500 1.7000 7.0000
v -16.9500 1.2000 0.0000
v -17.6500 1.2000 0.0000
v -17.6500 1.7000 0.0000
v -16.9500 1.7000 0.0000
v 6.4500 0.0000 -11.5000
v 6.4500 0.0000 -19.5000
v 6.4500 0.5000 -19.5000
v 6.4500 0.5000 -11.5000
v 5.5500 0.0000 -19.5000
v 5.5500 0.0000 -11.5000
v 5.5500 0.5000 -11.5000
v 5.5500 0.5000 -19.5000
v 5.5500 0.5000 -11.5000
v 6.4500 0.5000 -11.5000
v 6.4500 0.5000 -19.5000
v 5.5500 0.5000 -19.5000
v 5.5500 0.0000 -19.5000
v 6.4500 0.0000 -19.5000
v 6.4500 0.0000 -11.5000
v 5.5500 0.0000 -11.5000
v 5.5500 0.0000 -11.5000
v 6.4500 0.0000 -11.5000
v 6.4500 0.5000 -11.5000
v 5.5500 0.5000 -11.5000
v 6.4500 0.0000 -19.5000
v 5.5500 0.0000 -19.5000
v 5.5500 0.5000 -19.5000
v 6.4500 0.5000 -19.5000
v 26.0000 0.0000 -23.0000
v 26.0000 0.0000 -5.0000
v 26.0931 0.0022 -5.0000
v 26.0000 0.0000 -23.0000
v 26.0931 0.0022 -5.0000
v 26.0931 0.0022 -23.0000
v 26.0931 0.0022 -23.0000
v 26.0931 0.0022 -5.0000
v 26.1859 0.0087 -5.0000
v 26.0931 0.0022 -23.0000
v 26.1859 0.0087 -5.0000
v 26.1859 0.0087 -23.0000
v 26.1859 0.0087 -23.0000
v 26.1859 0.0087 -5.0000
v 26.2783 0.0195 -5.0000
v 26.1859 0.0087 -23.0000
v 26.2783 0.0195 -5.0000
v 26.2783 0.0195 -23.0000
v 26.2783 0.0195 -23.0000
v 26.2783 0.0195 -5.0000
v 26.3702 0.0346 -5.0000
v 26.2783 0.0195 -23.0000
v 26.3702 0.0346 -5.0000
v 26.3702 0.0346 -23.0000
v 26.3702 0.0346 -23.0000
v 26.3702 0.0346 -5.0000
v 26.4612 0.0539 -5.0000
v 26.3702 0.0346 -23.0000
v 26.4612 0.0539 -5.0000
v 26.4612 0.0539 -23.0000
v 26.4612 0.0539 -23.0000
v 26.4612 0.0539 -5.0000
v 26.5513 0.0775 -5.0000
v 26.4612 0.0539 -23.0000
v 26.5513 0.0775 -5.0000
v 26.5513 0.0775 -23.0000
v 26.5513 0.0775 -23.0000
v 26.5513 0.0775 -5.0000
v 26.6401 0.1052 -5.0000
v 26.5513 0.0775 -23.0000
v 26.6401 0.1052 -5.0000
v 26.6401 0.1052 -23.0000
v 26.6401 0.1052 -23.0000
v 26.6401 0.1052 -5.0000
v 26.7276 0.1370 -5.0000
v 26.6401 0.1052 -23.0000
v 26.7276 0.1370 -5.0000
v 26.7276 0.1370 -23.0000
v 26.7276 0.1370 -23.0000
v 26.7276 0.1370 -5.0000
v 26.8135 0.1729 -5.0000
v 26.7276 0.1370 -23.0000
v 26.8135 0.1729 -5.0000
v 26.8135 0.1729 -23.0000
v 26.8135 0.1729 -23.0000
v 26.8135 0.1729 -5.0000
v 26.8976 0.2127 -5.0000
v 26.8135 0.1729 -23.0000
v 26.8976 0.2127 -5.0000
v 26.8976 0.2127 -23.0000
v 26.8976 0.2127 -23.0000
v 26.8976 0.2127 -5.0000
v 26.9798 0.2564 -5.0000
v 26.8976 0.2127 -23.0000
v 26.9798 0.2564 -5.0000
v 26.9798 0.2564 -23.0000
v 26.9798 0.2564 -23.0000
v 26.9798 0.2564 -5.0000
v 27.0598 0.3039 -5.0000
v 26.9798 0.2564 -23.0000
v 27.0598 0.3039 -5.0000
v 27.0598 0.3039 -23.0000
v 27.0598 0.3039 -23.0000
v 27.0598 0.3039 -5.0000
v 27.1376 0.3550 -5.0000
v 27.0598 0.3039 -23.0000
v 27.1376 0.3550 -5.0000
v 27.1376 0.3550 -23.0000
v 27.1376 0.3550 -23.0000
v 27.1376 0.3550 -5.0000
v 27.2129 0.4098 -5.0000
v 27.1376 0.3550 -23.0000
v 27.2129 0.4098 -5.0000
v 27.2129 0.4098 -23.0000
v 27.2129 0.4098 -23.0000
v 27.2129 0.4098 -5.0000
v 27.2856 0.4679 -5.0000
v 27.2129 0.4098 -23.0000
v 27.2856 0.4679 -5.0000
v 27.2856 0.4679 -23.0000
v 27.2856 0.4679 -23.0000
v 27.2856 0.4679 -5.0000
v 29.3498 2.2000 -5.0000
v 27.2856 0.4679 -23.0000
v 29.3498 2.2000 -5.0000
v 29.3498 2.2000 -23.0000
v 29.3498 2.2000 -23.0000
v 29.3498 2.2000 -5.0000
v 29.3988 2.2380 -5.0000
v 29.3498 2.2000 -23.0000
v 29.3988 2.2380 -5.0000
v 29.3988 2.2380 -23.0000
v 29.3988 2.2380 -23.0000
v 29.3988 2.2380 -5.0000
v 29.4507 2.2721 -5.0000
v 29.3988 2.2380 -23.0000
v 29.4507 2.2721 -5.0000
v 29.4507 2.2721 -23.0000
v 29.4507 2.2721 -23.0000
v 29.4507 2.2721 -5.0000
v 29.5050 2.3021 -5.0000
v 29.4507 2.2721 -23.0000
v 29.5050 2.3021 -5.0000
v 29.5050 2.3021 -23.0000
v 29.5050 2.3021 -23.0000
v 29.5050 2.3021 -5.0000
v 29.5615 2.3277 -5.0000
v 29.5050 2.3021 -23.0000
v 29.5615 2.3277 -5.0000
v 29.5615 2.3277 -23.0000
v 29.5615 2.3277 -23.0000
v 29.5615 2.3277 -5.0000
v 29.6198 2.3490 -5.0000
v 29.5615 2.3277 -23.0000
v 29.6198 2.3490 -5.0000
v 29.6198 2.3490 -23.0000
v 29.6198 2.3490 -23.0000
v 29.6198 2.3490 -5.0000
v 29.6795 2.3656 -5.0000
v 29.6198 2.3490 -23.0000
v 29.6795 2.3656 -5.0000
v 29.6795 2.3656 -23.0000
v 29.6795 2.3656 -23.0000
v 29.6795 2.3656 -5.0000
v 29.7404 2.3776 -5.0000
v 29.6795 2.3656 -23.0000
v 29.7404 2.3776 -5.0000
v 29.7404 2.3776 -23.0000
v 29.7404 2.3776 -23.0000
v 29.7404 2.3776 -5.0000
v 29.8020 2.3848 -5.0000
v 29.7404 2.3776 -23.0000
v 29.8020 2.3848 -5.0000
v 29.8020 2.3848 -23.0000
v 29.8020 2.3848 -23.0000
v 29.8020 2.3848 -5.0000
v 29.8640 2.3872 -5.0000
v 29.8020 2.3848 -23.0000
v 29.8640 2.3872 -5.0000
v 29.8640 2.3872 -23.0000
v 29.8640 2.3872 -23.0000
v 29.8640 2.3872 -5.0000
v 30.8640 2.3872 -5.0000
v 29.8640 2.3872 -23.0000
v 30.8640 2.3872 -5.0000
v 30.8640 2.3872 -23.0000
v 26.1859 0.0087 -23.0000
v 26.2783 0.0195 -23.0000
v 26.2783 0.0000 -23.0000
v 26.2783 0.0195 -23.0000
v 26.3702 0.0346 -23.0000
v 26.2783 0.0000 -23.0000
v 26.2783 0.0000 -23.0000
v 26.3702 0.0346 -23.0000
v 26.3702 0.0000 -23.0000
v 26.3702 0.0346 -23.0000
v 26.4612 0.0539 -23.0000
v 26.3702 0.0000 -23.0000
v 26.3702 0.0000 -23.0000
v 26.4612 0.0539 -23.0000
v 26.4612 0.0000 -23.0000
v 26.4612 0.0539 -23.0000
v 26.5513 0.0775 -23.0000
v 26.4612 0.0000 -23.0000
v 26.4612 0.0000 -23.0000
v 26.5513 0.0775 -23.0000
v 26.5513 0.0000 -23.0000
v 26.5513 0.0775 -23.0000
v 26.6401 0.1052 -23.0000
v 26.5513 0.0000 -23.0000
v 26.5513 0.0000 -23.0000
v 26.6401 0.1052 -23.0000
v 26.6401 0.0000 -23.0000
v 26.6401 0.1052 -23.0000
v 26.7276 0.1370 -23.0000
v 26.6401 0.0000 -23.0000
v 26.6401 0.0000 -23.0000
v 26.7276 0.1370 -23.0000
v 26.7276 0.0000 -23.0000
v 26.7276 0.1370 -23.0000
v 26.8135 0.1729 -23.0000
v 26.7276 0.0000 -23.0000
v 26.7276 0.0000 -23.0000
v 26.8135 0.1729 -23.0000
v 26.8135 0.0000 -23.0000
v 26.8135 0.1729 -23.0000
v 26.8976 0.2127 -23.0000
v 26.8135 0.0000 -23.0000
v 26.8135 0.0000 -23.0000
v 26.8976 0.2127 -23.0000
v 26.8976 0.0000 -23.0000
v 26.8976 0.2127 -23.0000
v 26.9798 0.2564 -23.0000
v 26.8976 0.0000 -23.0000
v 26.8976 0.0000 -23.0000
v 26.9798 0.2564 -23.0000
v 26.9798 0.0000 -23.0000
v 26.9798 0.2564 -23.0000
v 27.0598 0.3039 -23.0000
v 26.9798 0.0000 -23.0000
v 26.9798 0.0000 -23.0000
v 27.0598 0.3039 -23.0000
v 27.0598 0.0000 -23.0000
v 27.0598 0.3039 -23.0000
v 27.1376 0.3550 -23.0000
v 27.0598 0.0000 -23.0000
v 27.0598 0.0000 -23.0000
v 27.1376 0.3550 -23.0000
v 27.1376 0.0000 -23.0000
v 27.1376 0.3550 -23.0000
v 27.2129 0.4098 -23.0000
v 27.1376 0.0000 -23.0000
v 27.1376 0.0000 -23.0000
v 27.2129 0.4098 -23.0000
v 27.2129 0.0000 -23.0000
v 27.2129 0.4098 -23.0000
v 27.2856 0.4679 -23.0000
v 27.2129 0.0000 -23.0000
v 27.2129 0.0000 -23.0000
v 27.2856 0.4679 -23.0000
v 27.2856 0.0000 -23.0000
v 27.2856 0.4679 -23.0000
v 29.3498 2.2000 -23.0000
v 27.2856 0.0000 -23.0000
v 27.2856 0.0000 -23.0000
v 29.3498 2.2000 -23.0000
v 29.3498 0.0000 -23.0000
v 29.3498 2.2000 -23.0000
v 29.3988 2.2380 -23.0000
v 29.3498 0.0000 -23.0000
v 29.3498 0.0000 -23.0000
v 29.3988 2.2380 -23.0000
v 29.3988 0.0000 -23.0000
v 29.3988 2.2380 -23.0000
v 29.4507 2.2721 -23.0000
v 29.3988 0.0000 -23.0000
v 29.3988 0.0000 -23.0000
v 29.4507 2.2721 -23.0000
v 29.4507 0.0000 -23.0000
v 29.4507 2.2721 -23.0000
v 29.5050 2.3021 -23.0000
v 29.4507 0.0000 -23.0000
v 29.4507 0.0000 -23.0000
v 29.5050 2.3021 -23.0000
v 29.5050 0.0000 -23.0000
v 29.5050 2.3021 -23.0000
v 29.5615 2.3277 -23.0000
v 29.5050 0.0000 -23.0000
v 29.5050 0.0000 -23.0000
v 29.5615 2.3277 -23.0000
v 29.5615 0.0000 -23.0000
v 29.5615 2.3277 -23.0000
v 29.6198 2.3490 -23.0000
v 29.5615 0.0000 -23.0000
v 29.5615 0.0000 -23.0000
v 29.6198 2.3490 -23.0000
v 29.6198 0.0000 -23.0000
v 29.6198 2.3490 -23.0000
v 29.6795 2.3656 -23.0000
v 29.6198 0.0000 -23.0000
v 29.6198 0.0000 -23.0000
v 29.6795 2.3656 -23.0000
v 29.6795 0.0000 -23.0000
v 29.6795 2.3656 -23.0000
v 29.7404 2.3776 -23.0000
v 29.6795 0.0000 -23.0000
v 29.6795 0.0000 -23.0000
v 29.7404 2.3776 -23.0000
v 29.7404 0.0000 -23.0000
v 29.7404 2.3776 -23.0000
v 29.8020 2.3848 -23.0000
v 29.7404 0.0000 -23.0000
v 29.7404 0.0000 -23.0000
v 29.8020 2.3848 -23.0000
v 29.8020 0.0000 -23.0000
v 29.8020 2.3848 -23.0000
v 29.8640 2.3872 -23.0000
v 29.8020 0.0000 -23.0000
v 29.8020 0.0000 -23.0000
v 29.8640 2.3872 -23.0000
v 29.8640 0.0000 -23.0000
v 29.8640 2.3872 -23.0000
v 30.8640 2.3872 -23.0000
v 29.8640 0.0000 -23.0000
v 29.8640 0.0000 -23.0000
v 30.8640 2.3872 -23.0000
v 30.8640 0.0000 -23.0000
v 26.1859 0.0087 -5.0000
v 26.2783 0.0000 -5.0000
v 26.2783 0.0195 -5.0000
v 26.2783 0.0195 -5.0000
v 26.2783 0.0000 -5.0000
v 26.3702 0.0346 -5.0000
v 26.2783 0.0000 -5.0000
v 26.3702 0.0000 -5.0000
v 26.3702 0.0346 -5.0000
v 26.3702 0.0346 -5.0000
v 26.3702 0.0000 -5.0000
v 26.4612 0.0539 -5.0000
v 26.3702 0.0000 -5.0000
v 26.4612 0.0000 -5.0000
v 26.4612 0.0539 -5.0000
v 26.4612 0.0539 -5.0000
v 26.4612 0.0000 -5.0000
v 26.5513 0.0775 -5.0000
v 26.4612 0.0000 -5.0000
v 26.5513 0.0000 -5.0000
v 26.5513 0.0775 -5.0000
v 26.5513 0.0775 -5.0000
v 26.5513 0.0000 -5.0000
v 26.6401 0.1052 -5.0000
v 26.5513 0.0000 -5.0000
v 26.6401 0.0000 -5.0000
v 26.6401 0.1052 -5.0000
v 26.6401 0.1052 -5.0000
v 26.6401 0.0000 -5.0000
v 26.7276 0.1370 -5.0000
v 26.6401 0.0000 -5.0000
v 26.7276 0.0000 -5.0000
v 26.7276 0.1370 -5.0000
v 26.7276 0.1370 -5.0000
v 26.7276 0.0000 -5.0000
v 26.8135 0.1729 -5.0000
v 26.7276 0.0000 -5.0000
v 26.8135 0.0000 -5.0000
v 26.8135 0.1729 -5.0000
v 26.8135 0.1729 -5.0000
v 26.8135 0.0000 -5.0000
v 26.8976 0.2127 -5.0000
v 26.8135 0.0000 -5.0000
v 26.8976 0.0000 -5.0000
v 26.8976 0.2127 -5.0000
v 26.8976 0.2127 -5.0000
v 26.8976 0.0000 -5.0000
v 26.9798 0.2564 -5.0000
v 26.8976 0.0000 -5.0000
v 26.9798 0.0000 -5.0000
v 26.9798 0.2564 -5.0000
v 26.9798 0.2564 -5.0000
v 26.9798 0.0000 -5.0000
v 27.0598 0.3039 -5.0000
v 26.9798 0.0000 -5.0000
v 27.0598 0.0000 -5.0000
v 27.0598 0.3039 -5.0000
v 27.0598 0.3039 -5.0000
v 27.0598 0.0000 -5.0000
v 27.1376 0.3550 -5.0000
v 27.0598 0.0000 -5.0000
v 27.1376 0.0000 -5.0000
v 27.1376 0.3550 -5.0000
v 27.1376 0.3550 -5.0000
v 27.1376 0.0000 -5.0000
v 27.2129 0.4098 -5.0000
v 27.1376 0.0000 -5.0000
v 27.2129 0.0000 -5.0000
v 27.2129 0.4098 -5.0000
v 27.2129 0.4098 -5.0000
v 27.2129 0.0000 -5.0000
v 27.2856 0.4679 -5.0000
v 27.2129 0.0000 -5.0000
v 27.2856 0.0000 -5.0000
v 27.2856 0.4679 -5.0000
v 27.2856 0.4679 -5.0000
v 27.2856 0.0000 -5.0000
v 29.3498 2.2000 -5.0000
v 27.2856 0.0000 -5.0000
v 29.3498 0.0000 -5.0000
v 29.3498 2.2000 -5.0000
v 29.3498 2.2000 -5.0000
v 29.3498 0.0000 -5.0000
v 29.3988 2.2380 -5.0000
v 29.3498 0.0000 -5.0000
v 29.3988 0.0000 -5.0000
v 29.3988 2.2380 -5.0000
v 29.3988 2.2380 -5.0000
v 29.3988 0.0000 -5.0000
v 29.4507 2.2721 -5.0000
v 29.3988 0.0000 -5.0000
v 29.4507 0.0000 -5.0000
v 29.4507 2.2721 -5.0000
v 29.4507 2.2721 -5.0000
v 29.4507 0.0000 -5.0000
v 29.5050 2.3021 -5.0000
v 29.4507 0.0000 -5.0000
v 29.5050 0.0000 -5.0000
v 29.5050 2.3021 -5.0000
v 29.5050 2.3021 -5.0000
v 29.5050 0.0000 -5.0000
v 29.5615 2.3277 -5.0000
v 29.5050 0.0000 -5.0000
v 29.5615 0.0000 -5.0000
v 29.5615 2.3277 -5.0000
v 29.5615 2.3277 -5.0000
v 29.5615 0.0000 -5.0000
v 29.6198 2.3490 -5.0000
v 29.5615 0.0000 -5.0000
v 29.6198 0.0000 -5.0000
v 29.6198 2.3490 -5.0000
v 29.6198 2.3490 -5.0000
v 29.6198 0.0000 -5.0000
v 29.6795 2.3656 -5.0000
v 29.6198 0.0000 -5.0000
v 29.6795 0.0000 -5.0000
v 29.6795 2.3656 -5.0000
v 29.6795 2.3656 -5.0000
v 29.6795 0.0000 -5.0000
v 29.7404 2.3776 -5.0000
v 29.6795 0.0000 -5.0000
v 29.7404 0.0000 -5.0000
v 29.7404 2.3776 -5.0000
v 29.7404 2.3776 -5.0000
v 29.7404 0.0000 -5.0000
v 29.8020 2.3848 -5.0000
v 29.7404 0.0000 -5.0000
v 29.8020 0.0000 -5.0000
v 29.8020 2.3848 -5.0000
v 29.8020 2.3848 -5.0000
v 29.8020 0.0000 -5.0000
v 29.8640 2.3872 -5.0000
v 29.8020 0.0000 -5.0000
v 29.8640 0.0000 -5.0000
v 29.8640 2.3872 -5.0000
v 29.8640 2.3872 -5.0000
v 29.8640 0.0000 -5.0000
v 30.8640 2.3872 -5.0000
v 29.8640 0.0000 -5.0000
v 30.8640 0.0000 -5.0000
v 30.8640 2.3872 -5.0000
vt -1.3333 9.0000
vt 1.3333 9.0000
vt 1.3333 7.3333
vt -1.3333 9.0000
vt 1.3333 7.3333
vt -1.3333 7.3333
vt -1.3333 7.3333
vt 1.3333 7.3333
vt 1.3333 7.2997
vt -1.3333 7.3333
vt 1.3333 7.2997
vt -1.3333 7.2997
vt -1.3333 7.2997
vt 1.3333 7.2997
vt 1.3333 7.2662
vt -1.3333 7.2997
vt 1.3333 7.2662
vt -1.3333 7.2662
vt -1.3333 7.2662
vt 1.3333 7.2662
vt 1.3333 7.2329
vt -1.3333 7.2662
vt 1.3333 7.2329
vt -1.3333 7.2329
vt -1.3333 7.2329
vt 1.3333 7.2329
vt 1.3333 7.1998
vt -1.3333 7.2329
vt 1.3333 7.1998
vt -1.3333 7.1998
vt -1.3333 7.1998
vt 1.3333 7.1998
vt 1.3333 7.1670
vt -1.3333 7.1998
vt 1.3333 7.1670
vt -1.3333 7.1670
vt -1.3333 7.1670
vt 1.3333 7.1670
vt 1.3333 7.1347
vt -1.3333 7.1670
vt 1.3333 7.1347
vt -1.3333 7.1347
vt -1.3333 7.1347
vt 1.3333 7.1347
vt 1.3333 7.1029
vt -1.3333 7.1347
vt 1.3333 7.1029
vt -1.3333 7.1029
vt -1.3333 7.1029
vt 1.3333 7.1029
vt 1.3333 7.0717
vt -1.3333 7.1029
vt 1.3333 7.0717
vt -1.3333 7.0717
vt -1.3333 7.0717
vt 1.3333 7.0717
vt 1.3333 7.0411
vt -1.3333 7.0717
vt 1.3333 7.0411
vt -1.3333 7.0411
vt -1.3333 7.0411
vt 1.3333 7.0411
vt 1.3333 5.4404
vt -1.3333 7.0411
vt 1.3333 5.4404
vt -1.3333 5.4404
vt -1.3333 5.4404
vt 1.3333 5.4404
vt 1.3333 5.4062
vt -1.3333 5.4404
vt 1.3333 5.4062
vt -1.3333 5.4062
vt -1.3333 5.4062
vt 1.3333 5.4062
vt 1.3333 5.3716
vt -1.3333 5.4062
vt 1.3333 5.3716
vt -1.3333 5.3716
vt -1.3333 5.3716
vt 1.3333 5.3716
vt 1.3333 5.3366
vt -1.3333 5.3716
vt 1.3333 5.3366
vt -1.3333 5.3366
vt -1.3333 5.3366
vt 1.3333 5.3366
vt 1.3333 5.3013
vt -1.3333 5.3366
vt 1.3333 5.3013
vt -1.3333 5.3013
vt -1.3333 5.3013
vt 1.3333 5.3013
vt 1.3333 5.2657
vt -1.3333 5.3013
vt 1.3333 5.2657
vt -1.3333 5.2657
vt -1.3333 5.2657
vt 1.3333 5.2657
vt 1.3333 5.2297
vt -1.3333 5.2657
vt 1.3333 5.2297
vt -1.3333 5.2297
vt -1.3333 5.2297
vt 1.3333 5.2297
vt 1.3333 5.1935
vt -1.3333 5.2297
vt 1.3333 5.1935
vt -1.3333 5.1935
vt -1.3333 5.1935
vt 1.3333 5.1935
vt 1.3333 5.1570
vt -1.3333 5.1935
vt 1.3333 5.1570
vt -1.3333 5.1570
vt -1.3333 5.1570
vt 1.3333 5.1570
vt 1.3333 5.1202
vt -1.3333 5.1570
vt 1.3333 5.1202
vt -1.3333 5.1202
vt -1.3333 5.1202
vt 1.3333 5.1202
vt 1.3333 5.0833
vt -1.3333 5.1202
vt 1.3333 5.0833
vt -1.3333 5.0833
vt -1.3333 5.0833
vt 1.3333 5.0833
vt 1.3333 5.0462
vt -1.3333 5.0833
vt 1.3333 5.0462
vt -1.3333 5.0462
vt -1.3333 5.0462
vt 1.3333 5.0462
vt 1.3333 5.0088
vt -1.3333 5.0462
vt 1.3333 5.0088
vt -1.3333 5.0088
vt -1.3333 5.0088
vt 1.3333 5.0088
vt 1.3333 4.9714
vt -1.3333 5.0088
vt 1.3333 4.9714
vt -1.3333 4.9714
vt -1.3333 4.9714
vt 1.3333 4.9714
vt 1.3333 4.9338
vt -1.3333 4.9714
vt 1.3333 4.9338
vt -1.3333 4.9338
vt -1.3333 4.9338
vt 1.3333 4.9338
vt 1.3333 4.8962
vt -1.3333 4.9338
vt 1.3333 4.8962
vt -1.3333 4.8962
vt -1.3333 4.8962
vt 1.3333 4.8962
vt 1.3333 4.8584
vt -1.3333 4.8962
vt 1.3333 4.8584
vt -1.3333 4.8584
vt -1.3333 4.8584
vt 1.3333 4.8584
vt 1.3333 4.8206
vt -1.3333 4.8584
vt 1.3333 4.8206
vt -1.3333 4.8206
vt -1.3333 4.8206
vt 1.3333 4.8206
vt 1.3333 4.7828
vt -1.3333 4.8206
vt 1.3333 4.7828
vt -1.3333 4.7828
vt -1.3333 4.7828
vt 1.3333 4.7828
vt 1.3333 4.2828
vt -1.3333 4.7828
vt 1.3333 4.2828
vt -1.3333 4.2828
vt 1.0000 9.0000
vt 1.0000 7.3333
vt 0.0000 9.0000
vt 0.0000 9.0000
vt 1.0000 7.3333
vt 0.0000 7.3333
vt 1.0000 7.3333
vt 0.9992 7.2997
vt 0.0000 7.3333
vt 0.0000 7.3333
vt 0.9992 7.2997
vt 0.0000 7.2997
vt 0.9992 7.2997
vt 0.9966 7.2662
vt 0.0000 7.2997
vt 0.0000 7.2997
vt 0.9966 7.2662
vt 0.0000 7.2662
vt 0.9966 7.2662
vt 0.9924 7.2329
vt 0.0000 7.2662
vt 0.0000 7.2662
vt 0.9924 7.2329
vt 0.0000 7.2329
vt 0.9924 7.2329
vt 0.9865 7.1998
vt 0.0000 7.2329
vt 0.0000 7.2329
vt 0.9865 7.1998
vt 0.0000 7.1998
vt 0.9865 7.1998
vt 0.9789 7.1670
vt 0.0000 7.1998
vt 0.0000 7.1998
vt 0.9789 7.1670
vt 0.0000 7.1670
vt 0.9789 7.1670
vt 0.9697 7.1347
vt 0.0000 7.1670
vt 0.0000 7.1670
vt 0.9697 7.1347
vt 0.0000 7.1347
vt 0.9697 7.1347
vt 0.9589 7.1029
vt 0.0000 7.1347
vt 0.0000 7.1347
vt 0.9589 7.1029
vt 0.0000 7.1029
vt 0.9589 7.1029
vt 0.9465 7.0717
vt 0.0000 7.1029
vt 0.0000 7.1029
vt 0.9465 7.0717
vt 0.0000 7.0717
vt 0.9465 7.0717
vt 0.9325 7.0411
vt 0.0000 7.0717
vt 0.0000 7.0717
vt 0.9325 7.0411
vt 0.0000 7.0411
vt 0.9325 7.0411
vt 0.1518 5.4404
vt 0.0000 7.0411
vt 0.0000 7.0411
vt 0.1518 5.4404
vt 0.0000 5.4404
vt 0.1518 5.4404
vt 0.1357 5.4062
vt 0.0000 5.4404
vt 0.0000 5.4404
vt 0.1357 5.4062
vt 0.0000 5.4062
vt 0.1357 5.4062
vt 0.1204 5.3716
vt 0.0000 5.4062
vt 0.0000 5.4062
vt 0.1204 5.3716
vt 0.0000 5.3716
vt 0.1204 5.3716
vt 0.1060 5.3366
vt 0.0000 5.3716
vt 0.0000 5.3716
vt 0.1060 5.3366
vt 0.0000 5.3366
vt 0.1060 5.3366
vt 0.0925 5.3013
vt 0.0000 5.3366
vt 0.0000 5.3366
vt 0.0925 5.3013
vt 0.0000 5.3013
vt 0.0925 5.3013
vt 0.0798 5.2657
vt 0.0000 5.3013
vt 0.0000 5.3013
vt 0.0798 5.2657
vt 0.0000 5.2657
vt 0.0798 5.2657
vt 0.0681 5.2297
vt 0.0000 5.2657
vt 0.0000 5.2657
vt 0.0681 5.2297
vt 0.0000 5.2297
vt 0.0681 5.2297
vt 0.0573 5.1935
vt 0.0000 5.2297
vt 0.0000 5.2297
vt 0.0573 5.1935
vt 0.0000 5.1935
vt 0.0573 5.1935
vt 0.0474 5.1570
vt 0.0000 5.1935
vt 0.0000 5.1935
vt 0.0474 5.1570
vt 0.0000 5.1570
vt 0.0474 5.1570
vt 0.0384 5.1202
vt 0.0000 5.1570
vt 0.0000 5.1570
vt 0.0384 5.1202
vt 0.0000 5.1202
vt 0.0384 5.1202
vt 0.0304 5.0833
vt 0.0000 5.1202
vt 0.0000 5.1202
vt 0.0304 5.0833
vt 0.0000 5.0833
vt 0.0304 5.0833
vt 0.0233 5.0462
vt 0.0000 5.0833
vt 0.0000 5.0833
vt 0.0233 5.0462
vt 0.0000 5.0462
vt 0.0233 5.0462
vt 0.0171 5.0088
vt 0.0000 5.0462
vt 0.0000 5.0462
vt 0.0171 5.0088
vt 0.0000 5.0088
vt 0.0171 5.0088
vt 0.0119 4.9714
vt 0.0000 5.0088
vt 0.0000 5.0088
vt 0.0119 4.9714
vt 0.0000 4.9714
vt 0.0119 4.9714
vt 0.0076 4.9338
vt 0.0000 4.9714
vt 0.0000 4.9714
vt 0.0076 4.9338
vt 0.0000 4.9338
vt 0.0076 4.9338
vt 0.0043 4.8962
vt 0.0000 4.9338
vt 0.0000 4.9338
vt 0.0043 4.8962
vt 0.0000 4.8962
vt 0.0043 4.8962
vt 0.0019 4.8584
vt 0.0000 4.8962
vt 1.0000 9.0000
vt 0.0000 9.0000
vt 1.0000 7.3333
vt 0.0000 9.0000
vt 0.0000 7.3333
vt 1.0000 7.3333
vt 1.0000 7.3333
vt 0.0000 7.3333
vt 0.9992 7.2997
vt 0.0000 7.3333
vt 0.0000 7.2997
vt 0.9992 7.2997
vt 0.9992 7.2997
vt 0.0000 7.2997
vt 0.9966 7.2662
vt 0.0000 7.2997
vt 0.0000 7.2662
vt 0.9966 7.2662
vt 0.9966 7.2662
vt 0.0000 7.2662
vt 0.9924 7.2329
vt 0.0000 7.2662
vt 0.0000 7.2329
vt 0.9924 7.2329
vt 0.9924 7.2329
vt 0.0000 7.2329
vt 0.9865 7.1998
vt 0.0000 7.2329
vt 0.0000 7.1998
vt 0.9865 7.1998
vt 0.9865 7.1998
vt 0.0000 7.1998
vt 0.9789 7.1670
vt 0.0000 7.1998
vt 0.0000 7.1670
vt 0.9789 7.1670
vt 0.9789 7.1670
vt 0.0000 7.1670
vt 0.9697 7.1347
vt 0.0000 7.1670
vt 0.0000 7.1347
vt 0.9697 7.1347
vt 0.9697 7.1347
vt 0.0000 7.1347
vt 0.9589 7.1029
vt 0.0000 7.1347
vt 0.0000 7.1029
vt 0.9589 7.1029
vt 0.9589 7.1029
vt 0.0000 7.1029
vt 0.9465 7.0717
vt 0.0000 7.1029
vt 0.0000 7.0717
vt 0.9465 7.0717
vt 0.9465 7.0717
vt 0.0000 7.0717
vt 0.9325 7.0411
vt 0.0000 7.0717
vt 0.0000 7.0411
vt 0.9325 7.0411
vt 0.9325 7.0411
vt 0.0000 7.0411
vt 0.1518 5.4404
vt 0.0000 7.0411
vt 0.0000 5.4404
vt 0.1518 5.4404
vt 0.1518 5.4404
vt 0.0000 5.4404
vt 0.1357 5.4062
vt 0.0000 5.4404
vt 0.0000 5.4062
vt 0.1357 5.4062
vt 0.1357 5.4062
vt 0.0000 5.4062
vt 0.1204 5.3716
vt 0.0000 5.4062
vt 0.0000 5.3716
vt 0.1204 5.3716
vt 0.1204 5.3716
vt 0.0000 5.3716
vt 0.1060 5.3366
vt 0.0000 5.3716
vt 0.0000 5.3366
vt 0.1060 5.3366
vt 0.1060 5.3366
vt 0.0000 5.3366
vt 0.0925 5.3013
vt 0.0000 5.3366
vt 0.0000 5.3013
vt 0.0925 5.3013
vt 0.0925 5.3013
vt 0.0000 5.3013
vt 0.0798 5.2657
vt 0.0000 5.3013
vt 0.0000 5.2657
vt 0.0798 5.2657
vt 0.0798 5.2657
vt 0.0000 5.2657
vt 0.0681 5.2297
vt 0.0000 5.2657
vt 0.0000 5.2297
vt 0.0681 5.2297
vt 0.0681 5.2297
vt 0.0000 5.2297
vt 0.0573 5.1935
vt 0.0000 5.2297
vt 0.0000 5.1935
vt 0.0573 5.1935
vt 0.0573 5.1935
vt 0.0000 5.1935
vt 0.0474 5.1570
vt 0.0000 5.1935
vt 0.0000 5.1570
vt 0.0474 5.1570
vt 0.0474 5.1570
vt 0.0000 5.1570
vt 0.0384 5.1202
vt 0.0000 5.1570
vt 0.0000 5.1202
vt 0.0384 5.1202
vt 0.0384 5.1202
vt 0.0000 5.1202
vt 0.0304 5.0833
vt 0.0000 5.1202
vt 0.0000 5.0833
vt 0.0304 5.0833
vt 0.0304 5.0833
vt 0.0000 5.0833
vt 0.0233 5.0462
vt 0.0000 5.0833
vt 0.0000 5.0462
vt 0.0233 5.0462
vt 0.0233 5.0462
vt 0.0000 5.0462
vt 0.0171 5.0088
vt 0.0000 5.0462
vt 0.0000 5.0088
vt 0.0171 5.0088
vt 0.0171 5.0088
vt 0.0000 5.0088
vt 0.0119 4.9714
vt 0.0000 5.0088
vt 0.0000 4.9714
vt 0.0119 4.9714
vt 0.0119 4.9714
vt 0.0000 4.9714
vt 0.0076 4.9338
vt 0.0000 4.9714
vt 0.0000 4.9338
vt 0.0076 4.9338
vt 0.0076 4.9338
vt 0.0000 4.9338
vt 0.0043 4.8962
vt 0.0000 4.9338
vt 0.0000 4.8962
vt 0.0043 4.8962
vt 0.0043 4.8962
vt 0.0000 4.8962
vt 0.0019 4.8584
vt -1.5000 -0.2000
vt 1.5000 -0.2000
vt 1.5000 0.2000
vt -1.5000 0.2000
vt -1.5000 -0.2000
vt 1.5000 -0.2000
vt 1.5000 0.2000
vt -1.5000 0.2000
vt -1.6667 -1.5000
vt 1.6667 -1.5000
vt 1.6667 1.5000
vt -1.6667 1.5000
vt -1.6667 -1.5000
vt 1.6667 -1.5000
vt 1.6667 1.5000
vt -1.6667 1.5000
vt -1.6667 -0.2000
vt 1.6667 -0.2000
vt 1.6667 0.2000
vt -1.6667 0.2000
vt -1.6667 -0.2000
vt 1.6667 -0.2000
vt 1.6667 0.2000
vt -1.6667 0.2000
vt -5.3333 4.2463
vt -3.3333 4.2463
vt -3.3333 4.2076
vt -5.3333 4.2463
vt -3.3333 4.2076
vt -5.3333 4.2076
vt -5.3333 4.2076
vt -3.3333 4.2076
vt -3.3333 4.1688
vt -5.3333 4.2076
vt -3.3333 4.1688
vt -5.3333 4.1688
vt -5.3333 4.1688
vt -3.3333 4.1688
vt -3.3333 4.1302
vt -5.3333 4.1688
vt -3.3333 4.1302
vt -5.3333 4.1302
vt -5.3333 4.1302
vt -3.3333 4.1302
vt -3.3333 4.0918
vt -5.3333 4.1302
vt -3.3333 4.0918
vt -5.3333 4.0918
vt -5.3333 4.0918
vt -3.3333 4.0918
vt -3.3333 4.0536
vt -5.3333 4.0918
vt -3.3333 4.0536
vt -5.3333 4.0536
vt -5.3333 4.0536
vt -3.3333 4.0536
vt -3.3333 4.0157
vt -5.3333 4.0536
vt -3.3333 4.0157
vt -5.3333 4.0157
vt -5.3333 4.0157
vt -3.3333 4.0157
vt -3.3333 3.9782
vt -5.3333 4.0157
vt -3.3333 3.9782
vt -5.3333 3.9782
vt -5.3333 3.9782
vt -3.3333 3.9782
vt -3.3333 3.9410
vt -5.3333 3.9782
vt -3.3333 3.9410
vt -5.3333 3.9410
vt -5.3333 3.9410
vt -3.3333 3.9410
vt -3.3333 3.9043
vt -5.3333 3.9410
vt -3.3333 3.9043
vt -5.3333 3.9043
vt -5.3333 3.9043
vt -3.3333 3.9043
vt -3.3333 2.9710
vt -5.3333 3.9043
vt -3.3333 2.9710
vt -5.3333 2.9710
vt -5.3333 2.9710
vt -3.3333 2.9710
vt -3.3333 2.9434
vt -5.3333 2.9710
vt -3.3333 2.9434
vt -5.3333 2.9434
vt -5.3333 2.9434
vt -3.3333 2.9434
vt -3.3333 2.9153
vt -5.3333 2.9434
vt -3.3333 2.9153
vt -5.3333 2.9153
vt -5.3333 2.9153
vt -3.3333 2.9153
vt -3.3333 2.8868
vt -5.3333 2.9153
vt -3.3333 2.8868
vt -5.3333 2.8868
vt -5.3333 2.8868
vt -3.3333 2.8868
vt -3.3333 2.8580
vt -5.3333 2.8868
vt -3.3333 2.8580
vt -5.3333 2.8580
vt -5.3333 2.8580
vt -3.3333 2.8580
vt -3.3333 2.8291
vt -5.3333 2.8580
vt -3.3333 2.8291
vt -5.3333 2.8291
vt -5.3333 2.8291
vt -3.3333 2.8291
vt -3.3333 2.8000
vt -5.3333 2.8291
vt -3.3333 2.8000
vt -5.3333 2.8000
vt -5.3333 2.8000
vt -3.3333 2.8000
vt -3.3333 2.6667
vt -5.3333 2.8000
vt -3.3333 2.6667
vt -5.3333 2.6667
vt 0.0030 4.1688
vt 0.0068 4.1302
vt 0.0000 4.1302
vt 0.0068 4.1302
vt 0.0120 4.0918
vt 0.0000 4.1302
vt 0.0000 4.1302
vt 0.0120 4.0918
vt 0.0000 4.0918
vt 0.0120 4.0918
vt 0.0187 4.0536
vt 0.0000 4.0918
vt 0.0000 4.0918
vt 0.0187 4.0536
vt 0.0000 4.0536
vt 0.0187 4.0536
vt 0.0270 4.0157
vt 0.0000 4.0536
vt 0.0000 4.0536
vt 0.0270 4.0157
vt 0.0000 4.0157
vt 0.0270 4.0157
vt 0.0366 3.9782
vt 0.0000 4.0157
vt 0.0000 4.0157
vt 0.0366 3.9782
vt 0.0000 3.9782
vt 0.0366 3.9782
vt 0.0478 3.9410
vt 0.0000 3.9782
vt 0.0000 3.9782
vt 0.0478 3.9410
vt 0.0000 3.9410
vt 0.0478 3.9410
vt 0.0603 3.9043
vt 0.0000 3.9410
vt 0.0000 3.9410
vt 0.0603 3.9043
vt 0.0000 3.9043
vt 0.0603 3.9043
vt 0.4000 2.9710
vt 0.0000 3.9043
vt 0.0000 3.9043
vt 0.4000 2.9710
vt 0.0000 2.9710
vt 0.4000 2.9710
vt 0.4091 2.9434
vt 0.0000 2.9710
vt 0.0000 2.9710
vt 0.4091 2.9434
vt 0.0000 2.9434
vt 0.4091 2.9434
vt 0.4167 2.9153
vt 0.0000 2.9434
vt 0.0000 2.9434
vt 0.4167 2.9153
vt 0.0000 2.9153
vt 0.4167 2.9153
vt 0.4226 2.8868
vt 0.0000 2.9153
vt 0.0000 2.9153
vt 0.4226 2.8868
vt 0.0000 2.8868
vt 0.4226 2.8868
vt 0.4268 2.8580
vt 0.0000 2.8868
vt 0.0000 2.8868
vt 0.4268 2.8580
vt 0.0000 2.8580
vt 0.4268 2.8580
vt 0.4293 2.8291
vt 0.0000 2.8580
vt 0.0000 2.8580
vt 0.4293 2.8291
vt 0.0000 2.8291
vt 0.4293 2.8291
vt 0.4302 2.8000
vt 0.0000 2.8291
vt 0.0000 2.8291
vt 0.4302 2.8000
vt 0.0000 2.8000
vt 0.4302 2.8000
vt 0.4302 2.6667
vt 0.0000 2.8000
vt 0.0000 2.8000
vt 0.4302 2.6667
vt 0.0000 2.6667
vt 0.0030 4.1688
vt 0.0000 4.1302
vt 0.0068 4.1302
vt 0.0068 4.1302
vt 0.0000 4.1302
vt 0.0120 4.0918
vt 0.0000 4.1302
vt 0.0000 4.0918
vt 0.0120 4.0918
vt 0.0120 4.0918
vt 0.0000 4.0918
vt 0.0187 4.0536
vt 0.0000 4.0918
vt 0.0000 4.0536
vt 0.0187 4.0536
vt 0.0187 4.0536
vt 0.0000 4.0536
vt 0.0270 4.0157
vt 0.0000 4.0536
vt 0.0000 4.0157
vt 0.0270 4.0157
vt 0.0270 4.0157
vt 0.0000 4.0157
vt 0.0366 3.9782
vt 0.0000 4.0157
vt 0.0000 3.9782
vt 0.0366 3.9782
vt 0.0366 3.9782
vt 0.0000 3.9782
vt 0.0478 3.9410
vt 0.0000 3.9782
vt 0.0000 3.9410
vt 0.0478 3.9410
vt 0.0478 3.9410
vt 0.0000 3.9410
vt 0.0603 3.9043
vt 0.0000 3.9410
vt 0.0000 3.9043
vt 0.0603 3.9043
vt 0.0603 3.9043
vt 0.0000 3.9043
vt 0.4000 2.9710
vt 0.0000 3.9043
vt 0.0000 2.9710
vt 0.4000 2.9710
vt 0.4000 2.9710
vt 0.0000 2.9710
vt 0.4091 2.9434
vt 0.0000 2.9710
vt 0.0000 2.9434
vt 0.4091 2.9434
vt 0.4091 2.9434
vt 0.0000 2.9434
vt 0.4167 2.9153
vt 0.0000 2.9434
vt 0.0000 2.9153
vt 0.4167 2.9153
vt 0.4167 2.9153
vt 0.0000 2.9153
vt 0.4226 2.8868
vt 0.0000 2.9153
vt 0.0000 2.8868
vt 0.4226 2.8868
vt 0.4226 2.8868
vt 0.0000 2.8868
vt 0.4268 2.8580
vt 0.0000 2.8868
vt 0.0000 2.8580
vt 0.4268 2.8580
vt 0.4268 2.8580
vt 0.0000 2.8580
vt 0.4293 2.8291
vt 0.0000 2.8580
vt 0.0000 2.8291
vt 0.4293 2.8291
vt 0.4293 2.8291
vt 0.0000 2.8291
vt 0.4302 2.8000
vt 0.0000 2.8291
vt 0.0000 2.8000
vt 0.4302 2.8000
vt 0.4302 2.8000
vt 0.0000 2.8000
vt 0.4302 2.6667
vt 0.0000 2.8000
vt 0.0000 2.6667
vt 0.4302 2.6667
vt -0.0700 -0.1600
vt 0.0700 -0.1600
vt 0.0700 0.1600
vt -0.0700 0.1600
vt -0.0700 -0.1600
vt 0.0700 -0.1600
vt 0.0700 0.1600
vt -0.0700 0.1600
vt -1.0000 -0.0700
vt 1.0000 -0.0700
vt 1.0000 0.0700
vt -1.0000 0.0700
vt -1.0000 -0.0700
vt 1.0000 -0.0700
vt 1.0000 0.0700
vt -1.0000 0.0700
vt -1.0000 -0.1600
vt 1.0000 -0.1600
vt 1.0000 0.1600
vt -1.0000 0.1600
vt -1.0000 -0.1600
vt 1.0000 -0.1600
vt 1.0000 0.1600
vt -1.0000 0.1600
vt -0.0700 -0.1200
vt 0.0700 -0.1200
vt 0.0700 0.1200
vt -0.0700 0.1200
vt -0.0700 -0.1200
vt 0.0700 -0.1200
vt 0.0700 0.1200
vt -0.0700 0.1200
vt -1.0000 -0.0700
vt 1.0000 -0.0700
vt 1.0000 0.0700
vt -1.0000 0.0700
vt -1.0000 -0.0700
vt 1.0000 -0.0700
vt 1.0000 0.0700
vt -1.0000 0.0700
vt -1.0000 -0.1200
vt 1.0000 -0.1200
vt 1.0000 0.1200
vt -1.0000 0.1200
vt -1.0000 -0.1200
vt 1.0000 -0.1200
vt 1.0000 0.1200
vt -1.0000 0.1200
vt -0.0700 -0.0800
vt 0.0700 -0.0800
vt 0.0700 0.0800
vt -0.0700 0.0800
vt -0.0700 -0.0800
vt 0.0700 -0.0800
vt 0.0700 0.0800
vt -0.0700 0.0800
vt -1.0000 -0.0700
vt 1.0000 -0.0700
vt 1.0000 0.0700
vt -1.0000 0.0700
vt -1.0000 -0.0700
vt 1.0000 -0.0700
vt 1.0000 0.0700
vt -1.0000 0.0700
vt -1.0000 -0.0800
vt 1.0000 -0.0800
vt 1.0000 0.0800
vt -1.0000 0.0800
vt -1.0000 -0.0800
vt 1.0000 -0.0800
vt 1.0000 0.0800
vt -1.0000 0.0800
vt -0.0700 -0.0400
vt 0.0700 -0.0400
vt 0.0700 0.0400
vt -0.0700 0.0400
vt -0.0700 -0.0400
vt 0.0700 -0.0400
vt 0.0700 0.0400
vt -0.0700 0.0400
vt -1.0000 -0.0700
vt 1.0000 -0.0700
vt 1.0000 0.0700
vt -1.0000 0.0700
vt -1.0000 -0.0700
vt 1.0000 -0.0700
vt 1.0000 0.0700
vt -1.0000 0.0700
vt -1.0000 -0.0400
vt 1.0000 -0.0400
vt 1.0000 0.0400
vt -1.0000 0.0400
vt -1.0000 -0.0400
vt 1.0000 -0.0400
vt 1.0000 0.0400
vt -1.0000 0.0400
vt -0.0700 -0.0033
vt 0.0700 -0.0033
vt 0.0700 0.0033
vt -0.0700 0.0033
vt -0.0700 -0.0033
vt 0.0700 -0.0033
vt 0.0700 0.0033
vt -0.0700 0.0033
vt -1.0000 -0.0700
vt 1.0000 -0.0700
vt 1.0000 0.0700
vt -1.0000 0.0700
vt -1.0000 -0.0700
vt 1.0000 -0.0700
vt 1.0000 0.0700
vt -1.0000 0.0700
vt -1.0000 -0.0033
vt 1.0000 -0.0033
vt 1.0000 0.0033
vt -1.0000 0.0033
vt -1.0000 -0.0033
vt 1.0000 -0.0033
vt 1.0000 0.0033
vt -1.0000 0.0033
vt -1.1667 -0.0833
vt 1.1667 -0.0833
vt 1.1667 0.0833
vt -1.1667 0.0833
vt -1.1667 -0.0833
vt 1.1667 -0.0833
vt 1.1667 0.0833
vt -1.1667 0.0833
vt -0.1167 -1.1667
vt 0.1167 -1.1667
vt 0.1167 1.1667
vt -0.1167 1.1667
vt -0.1167 -1.1667
vt 0.1167 -1.1667
vt 0.1167 1.1667
vt -0.1167 1.1667
vt -0.1167 -0.0833
vt 0.1167 -0.0833
vt 0.1167 0.0833
vt -0.1167 0.0833
vt -0.1167 -0.0833
vt 0.1167 -0.0833
vt 0.1167 0.0833
vt -0.1167 0.0833
vt -1.3333 -0.0833
vt 1.3333 -0.0833
vt 1.3333 0.0833
vt -1.3333 0.0833
vt -1.3333 -0.0833
vt 1.3333 -0.0833
vt 1.3333 0.0833
vt -1.3333 0.0833
vt -0.1500 -1.3333
vt 0.1500 -1.3333
vt 0.1500 1.3333
vt -0.1500 1.3333
vt -0.1500 -1.3333
vt 0.1500 -1.3333
vt 0.1500 1.3333
vt -0.1500 1.3333
vt -0.1500 -0.0833
vt 0.1500 -0.0833
vt 0.1500 0.0833
vt -0.1500 0.0833
vt -0.1500 -0.0833
vt 0.1500 -0.0833
vt 0.1500 0.0833
vt -0.1500 0.0833
vt 8.6667 -7.6667
vt 8.6667 -1.6667
vt 8.6977 -1.6667
vt 8.6667 -7.6667
vt 8.6977 -1.6667
vt 8.6977 -7.6667
vt 8.6977 -7.6667
vt 8.6977 -1.6667
vt 8.7286 -1.6667
vt 8.6977 -7.6667
vt 8.7286 -1.6667
vt 8.7286 -7.6667
vt 8.7286 -7.6667
vt 8.7286 -1.6667
vt 8.7594 -1.6667
vt 8.7286 -7.6667
vt 8.7594 -1.6667
vt 8.7594 -7.6667
vt 8.7594 -7.6667
vt 8.7594 -1.6667
vt 8.7901 -1.6667
vt 8.7594 -7.6667
vt 8.7901 -1.6667
vt 8.7901 -7.6667
vt 8.7901 -7.6667
vt 8.7901 -1.6667
vt 8.8204 -1.6667
vt 8.7901 -7.6667
vt 8.8204 -1.6667
vt 8.8204 -7.6667
vt 8.8204 -7.6667
vt 8.8204 -1.6667
vt 8.8504 -1.6667
vt 8.8204 -7.6667
vt 8.8504 -1.6667
vt 8.8504 -7.6667
vt 8.8504 -7.6667
vt 8.8504 -1.6667
vt 8.8800 -1.6667
vt 8.8504 -7.6667
vt 8.8800 -1.6667
vt 8.8800 -7.6667
vt 8.8800 -7.6667
vt 8.8800 -1.6667
vt 8.9092 -1.6667
vt 8.8800 -7.6667
vt 8.9092 -1.6667
vt 8.9092 -7.6667
vt 8.9092 -7.6667
vt 8.9092 -1.6667
vt 8.9378 -1.6667
vt 8.9092 -7.6667
vt 8.9378 -1.6667
vt 8.9378 -7.6667
vt 8.9378 -7.6667
vt 8.9378 -1.6667
vt 8.9659 -1.6667
vt 8.9378 -7.6667
vt 8.9659 -1.6667
vt 8.9659 -7.6667
vt 8.9659 -7.6667
vt 8.9659 -1.6667
vt 8.9933 -1.6667
vt 8.9659 -7.6667
vt 8.9933 -1.6667
vt 8.9933 -7.6667
vt 8.9933 -7.6667
vt 8.9933 -1.6667
vt 9.0199 -1.6667
vt 8.9933 -7.6667
vt 9.0199 -1.6667
vt 9.0199 -7.6667
vt 9.0199 -7.6667
vt 9.0199 -1.6667
vt 9.0459 -1.6667
vt 9.0199 -7.6667
vt 9.0459 -1.6667
vt 9.0459 -7.6667
vt 9.0459 -7.6667
vt 9.0459 -1.6667
vt 9.0710 -1.6667
vt 9.0459 -7.6667
vt 9.0710 -1.6667
vt 9.0710 -7.6667
vt 9.0710 -7.6667
vt 9.0710 -1.6667
vt 9.0952 -1.6667
vt 9.0710 -7.6667
vt 9.0952 -1.6667
vt 9.0952 -7.6667
vt 9.0952 -7.6667
vt 9.0952 -1.6667
vt 9.7833 -1.6667
vt 9.0952 -7.6667
vt 9.7833 -1.6667
vt 9.7833 -7.6667
vt 9.7833 -7.6667
vt 9.7833 -1.6667
vt 9.7996 -1.6667
vt 9.7833 -7.6667
vt 9.7996 -1.6667
vt 9.7996 -7.6667
vt 9.7996 -7.6667
vt 9.7996 -1.6667
vt 9.8169 -1.6667
vt 9.7996 -7.6667
vt 9.8169 -1.6667
vt 9.8169 -7.6667
vt 9.8169 -7.6667
vt 9.8169 -1.6667
vt 9.8350 -1.6667
vt 9.8169 -7.6667
vt 9.8350 -1.6667
vt 9.8350 -7.6667
vt 9.8350 -7.6667
vt 9.8350 -1.6667
vt 9.8538 -1.6667
vt 9.8350 -7.6667
vt 9.8538 -1.6667
vt 9.8538 -7.6667
vt 9.8538 -7.6667
vt 9.8538 -1.6667
vt 9.8733 -1.6667
vt 9.8538 -7.6667
vt 9.8733 -1.6667
vt 9.8733 -7.6667
vt 9.8733 -7.6667
vt 9.8733 -1.6667
vt 9.8932 -1.6667
vt 9.8733 -7.6667
vt 9.8932 -1.6667
vt 9.8932 -7.6667
vt 9.8932 -7.6667
vt 9.8932 -1.6667
vt 9.9135 -1.6667
vt 9.8932 -7.6667
vt 9.9135 -1.6667
vt 9.9135 -7.6667
vt 9.9135 -7.6667
vt 9.9135 -1.6667
vt 9.9340 -1.6667
vt 9.9135 -7.6667
vt 9.9340 -1.6667
vt 9.9340 -7.6667
vt 9.9340 -7.6667
vt 9.9340 -1.6667
vt 9.9547 -1.6667
vt 9.9340 -7.6667
vt 9.9547 -1.6667
vt 9.9547 -7.6667
vt 9.9547 -7.6667
vt 9.9547 -1.6667
vt 10.2880 -1.6667
vt 9.9547 -7.6667
vt 10.2880 -1.6667
vt 10.2880 -7.6667
vt 8.7286 0.0029
vt 8.7594 0.0065
vt 8.7594 0.0000
vt 8.7594 0.0065
vt 8.7901 0.0115
vt 8.7594 0.0000
vt 8.7594 0.0000
vt 8.7901 0.0115
vt 8.7901 0.0000
vt 8.7901 0.0115
vt 8.8204 0.0180
vt 8.7901 0.0000
vt 8.7901 0.0000
vt 8.8204 0.0180
vt 8.8204 0.0000
vt 8.8204 0.0180
vt 8.8504 0.0258
vt 8.8204 0.0000
vt 8.8204 0.0000
vt 8.8504 0.0258
vt 8.8504 0.0000
vt 8.8504 0.0258
vt 8.8800 0.0351
vt 8.8504 0.0000
vt 8.8504 0.0000
vt 8.8800 0.0351
vt 8.8800 0.0000
vt 8.8800 0.0351
vt 8.9092 0.0457
vt 8.8800 0.0000
vt 8.8800 0.0000
vt 8.9092 0.0457
vt 8.9092 0.0000
vt 8.9092 0.0457
vt 8.9378 0.0576
vt 8.9092 0.0000
vt 8.9092 0.0000
vt 8.9378 0.0576
vt 8.9378 0.0000
vt 8.9378 0.0576
vt 8.9659 0.0709
vt 8.9378 0.0000
vt 8.9378 0.0000
vt 8.9659 0.0709
vt 8.9659 0.0000
vt 8.9659 0.0709
vt 8.9933 0.0855
vt 8.9659 0.0000
vt 8.9659 0.0000
vt 8.9933 0.0855
vt 8.9933 0.0000
vt 8.9933 0.0855
vt 9.0199 0.1013
vt 8.9933 0.0000
vt 8.9933 0.0000
vt 9.0199 0.1013
vt 9.0199 0.0000
vt 9.0199 0.1013
vt 9.0459 0.1183
vt 9.0199 0.0000
vt 9.0199 0.0000
vt 9.0459 0.1183
vt 9.0459 0.0000
vt 9.0459 0.1183
vt 9.0710 0.1366
vt 9.0459 0.0000
vt 9.0459 0.0000
vt 9.0710 0.1366
vt 9.0710 0.0000
vt 9.0710 0.1366
vt 9.0952 0.1560
vt 9.0710 0.0000
vt 9.0710 0.0000
vt 9.0952 0.1560
vt 9.0952 0.0000
vt 9.0952 0.1560
vt 9.7833 0.7333
vt 9.0952 0.0000
vt 9.0952 0.0000
vt 9.7833 0.7333
vt 9.7833 0.0000
vt 9.7833 0.7333
vt 9.7996 0.7460
vt 9.7833 0.0000
vt 9.7833 0.0000
vt 9.7996 0.7460
vt 9.7996 0.0000
vt 9.7996 0.7460
vt 9.8169 0.7574
vt 9.7996 0.0000
vt 9.7996 0.0000
vt 9.8169 0.7574
vt 9.8169 0.0000
vt 9.8169 0.7574
vt 9.8350 0.7674
vt 9.8169 0.0000
vt 9.8169 0.0000
vt 9.8350 0.7674
vt 9.8350 0.0000
vt 9.8350 0.7674
vt 9.8538 0.7759
vt 9.8350 0.0000
vt 9.8350 0.0000
vt 9.8538 0.7759
vt 9.8538 0.0000
vt 9.8538 0.7759
vt 9.8733 0.7830
vt 9.8538 0.0000
vt 9.8538 0.0000
vt 9.8733 0.7830
vt 9.8733 0.0000
vt 9.8733 0.7830
vt 9.8932 0.7885
vt 9.8733 0.0000
vt 9.8733 0.0000
vt 9.8932 0.7885
vt 9.8932 0.0000
vt 9.8932 0.7885
vt 9.9135 0.7925
vt 9.8932 0.0000
vt 9.8932 0.0000
vt 9.9135 0.7925
vt 9.9135 0.0000
vt 9.9135 0.7925
vt 9.9340 0.7949
vt 9.9135 0.0000
vt 9.9135 0.0000
vt 9.9340 0.7949
vt 9.9340 0.0000
vt 9.9340 0.7949
vt 9.9547 0.7957
vt 9.9340 0.0000
vt 9.9340 0.0000
vt 9.9547 0.7957
vt 9.9547 0.0000
vt 9.9547 0.7957
vt 10.2880 0.7957
vt 9.9547 0.0000
vt 9.9547 0.0000
vt 10.2880 0.7957
vt 10.2880 0.0000
vt 8.7286 0.0029
vt 8.7594 0.0000
vt 8.7594 0.0065
vt 8.7594 0.0065
vt 8.7594 0.0000
vt 8.7901 0.0115
vt 8.7594 0.0000
vt 8.7901 0.0000
vt 8.7901 0.0115
vt 8.7901 0.0115
vt 8.7901 0.0000
vt 8.8204 0.0180
vt 8.7901 0.0000
vt 8.8204 0.0000
vt 8.8204 0.0180
vt 8.8204 0.0180
vt 8.8204 0.0000
vt 8.8504 0.0258
vt 8.8204 0.0000
vt 8.8504 0.0000
vt 8.8504 0.0258
vt 8.8504 0.0258
vt 8.8504 0.0000
vt 8.8800 0.0351
vt 8.8504 0.0000
vt 8.8800 0.0000
vt 8.8800 0.0351
vt 8.8800 0.0351
vt 8.8800 0.0000
vt 8.9092 0.0457
vt 8.8800 0.0000
vt 8.9092 0.0000
vt 8.9092 0.0457
vt 8.9092 0.0457
vt 8.9092 0.0000
vt 8.9378 0.0576
vt 8.9092 0.0000
vt 8.9378 0.0000
vt 8.9378 0.0576
vt 8.9378 0.0576
vt 8.9378 0.0000
vt 8.9659 0.0709
vt 8.9378 0.0000
vt 8.9659 0.0000
vt 8.9659 0.0709
vt 8.9659 0.0709
vt 8.9659 0.0000
vt 8.9933 0.0855
vt 8.9659 0.0000
vt 8.9933 0.0000
vt 8.9933 0.0855
vt 8.9933 0.0855
vt 8.9933 0.0000
vt 9.0199 0.1013
vt 8.9933 0.0000
vt 9.0199 0.0000
vt 9.0199 0.1013
vt 9.0199 0.1013
vt 9.0199 0.0000
vt 9.0459 0.1183
vt 9.0199 0.0000
vt 9.0459 0.0000
vt 9.0459 0.1183
vt 9.0459 0.1183
vt 9.0459 0.0000
vt 9.0710 0.1366
vt 9.0459 0.0000
vt 9.0710 0.0000
vt 9.0710 0.1366
vt 9.0710 0.1366
vt 9.0710 0.0000
vt 9.0952 0.1560
vt 9.0710 0.0000
vt 9.0952 0.0000
vt 9.0952 0.1560
vt 9.0952 0.1560
vt 9.0952 0.0000
vt 9.7833 0.7333
vt 9.0952 0.0000
vt 9.7833 0.0000
vt 9.7833 0.7333
vt 9.7833 0.7333
vt 9.7833 0.0000
vt 9.7996 0.7460
vt 9.7833 0.0000
vt 9.7996 0.0000
vt 9.7996 0.7460
vt 9.7996 0.7460
vt 9.7996 0.0000
vt 9.8169 0.7574
vt 9.7996 0.0000
vt 9.8169 0.0000
vt 9.8169 0.7574
vt 9.8169 0.7574
vt 9.8169 0.0000
vt 9.8350 0.7674
vt 9.8169 0.0000
vt 9.8350 0.0000
vt 9.8350 0.7674
vt 9.8350 0.7674
vt 9.8350 0.0000
vt 9.8538 0.7759
vt 9.8350 0.0000
vt 9.8538 0.0000
vt 9.8538 0.7759
vt 9.8538 0.7759
vt 9.8538 0.0000
vt 9.8733 0.7830
vt 9.8538 0.0000
vt 9.8733 0.0000
vt 9.8733 0.7830
vt 9.8733 0.7830
vt 9.8733 0.0000
vt 9.8932 0.7885
vt 9.8733 0.0000
vt 9.8932 0.0000
vt 9.8932 0.7885
vt 9.8932 0.7885
vt 9.8932 0.0000
vt 9.9135 0.7925
vt 9.8932 0.0000
vt 9.9135 0.0000
vt 9.9135 0.7925
vt 9.9135 0.7925
vt 9.9135 0.0000
vt 9.9340 0.7949
vt 9.9135 0.0000
vt 9.9340 0.0000
vt 9.9340 0.7949
vt 9.9340 0.7949
vt 9.9340 0.0000
vt 9.9547 0.7957
vt 9.9340 0.0000
vt 9.9547 0.0000
vt 9.9547 0.7957
vt 9.9547 0.7957
vt 9.9547 0.0000
vt 10.2880 0.7957
vt 9.9547 0.0000
vt 10.2880 0.0000
vt 10.2880 0.7957
vn -0.0000 1.0000 0.0000
vn 0.0000 1.0000 0.0000
vn 0.0000 0.9997 -0.0252
vn 0.0000 0.9997 -0.0252
vn 0.0000 0.9971 -0.0756
vn 0.0000 0.9971 -0.0756
vn 0.0000 0.9921 -0.1257
vn 0.0000 0.9921 -0.1257
vn 0.0000 0.9845 -0.1756
vn 0.0000 0.9845 -0.1756
vn 0.0000 0.9744 -0.2250
vn 0.0000 0.9744 -0.2250
vn 0.0000 0.9618 -0.2738
vn 0.0000 0.9618 -0.2738
vn 0.0000 0.9468 -0.3219
vn 0.0000 0.9468 -0.3219
vn 0.0000 0.9293 -0.3692
vn 0.0000 0.9293 -0.3692
vn 0.0000 0.9096 -0.4156
vn 0.0000 0.9096 -0.4156
vn 0.0000 0.8988 -0.4384
vn 0.0000 0.8988 -0.4384
vn 0.0000 0.9042 -0.4270
vn 0.0000 0.9042 -0.4270
vn 0.0000 0.9147 -0.4041
vn 0.0000 0.9147 -0.4041
vn 0.0000 0.9246 -0.3809
vn 0.0000 0.9246 -0.3809
vn 0.0000 0.9339 -0.3575
vn 0.0000 0.9339 -0.3575
vn 0.0000 0.9426 -0.3338
vn 0.0000 0.9426 -0.3338
vn 0.0000 0.9508 -0.3099
vn 0.0000 0.9508 -0.3099
vn 0.0000 0.9583 -0.2859
vn 0.0000 0.9583 -0.2859
vn 0.0000 0.9652 -0.2616
vn 0.0000 0.9652 -0.2616
vn 0.0000 0.9715 -0.2372
vn 0.0000 0.9715 -0.2372
vn 0.0000 0.9771 -0.2127
vn 0.0000 0.9771 -0.2127
vn 0.0000 0.9822 -0.1880
vn 0.0000 0.9822 -0.1880
vn 0.0000 0.9866 -0.1631
vn 0.0000 0.9866 -0.1631
vn 0.0000 0.9904 -0.1382
vn 0.0000 0.9904 -0.1382
vn 0.0000 0.9936 -0.1132
vn 0.0000 0.9936 -0.1132
vn 0.0000 0.9961 -0.0881
vn 0.0000 0.9961 -0.0881
vn 0.0000 0.9980 -0.0630
vn 0.0000 0.9980 -0.0630
vn 0.0000 0.9993 -0.0378
vn 0.0000 0.9993 -0.0378
vn 0.0000 0.9999 -0.0126
vn 0.0000 0.9999 -0.0126
vn 0.0000 1.0000 -0.0000
vn 0.0000 1.0000 -0.0000
vn -1.0000 -0.0000 -0.0000
vn -1.0000 0.0000 0.0000
vn -1.0000 -0.0000 0.0000
vn -1.0000 0.0000 0.0000
vn -1.0000 -0.0000 0.0000
vn -1.0000 0.0000 0.0000
vn -1.0000 -0.0000 0.0000
vn -1.0000 0.0000 0.0000
vn -1.0000 -0.0000 0.0000
vn -1.0000 0.0000 0.0000
vn -1.0000 -0.0000 0.0000
vn -1.0000 0.0000 0.0000
vn -1.0000 -0.0000 0.0000
vn -1.0000 0.0000 0.0000
vn -1.0000 -0.0000 0.0000
vn -1.0000 0.0000 0.0000
vn -1.0000 -0.0000 0.0000
vn -1.0000 0.0000 0.0000
vn -1.0000 -0.0000 0.0000
vn -1.0000 0.0000 0.0000
vn -1.0000 -0.0000 0.0000
vn -1.0000 0.0000 0.0000
vn -1.0000 -0.0000 0.0000
vn -1.0000 0.0000 0.0000
vn -1.0000 -0.0000 0.0000
vn -1.0000 0.0000 0.0000
vn -1.0000 -0.0000 0.0000
vn -1.0000 0.0000 0.0000
vn -1.0000 -0.0000 0.0000
vn -1.0000 0.0000 0.0000
vn -1.0000 -0.0000 0.0000
vn -1.0000 0.0000 0.0000
vn -1.0000 -0.0000 0.0000
vn -1.0000 0.0000 0.0000
vn -1.0000 -0.0000 0.0000
vn -1.0000 0.0000 0.0000
vn -1.0000 -0.0000 0.0000
vn -1.0000 0.0000 0.0000
vn -1.0000 -0.0000 0.0000
vn -1.0000 0.0000 0.0000
vn -1.0000 -0.0000 0.0000
vn -1.0000 0.0000 0.0000
vn -1.0000 -0.0000 0.0000
vn -1.0000 0.0000 0.0000
vn -1.0000 -0.0000 0.0000
vn -1.0000 0.0000 0.0000
vn -1.0000 -0.0000 0.0000
vn -1.0000 0.0000 0.0000
vn -1.0000 -0.0000 0.0000
vn -1.0000 0.0000 0.0000
vn -1.0000 -0.0000 0.0000
vn -1.0000 0.0000 0.0000
vn -1.0000 -0.0000 0.0000
vn 1.0000 0.0000 0.0000
vn 1.0000 0.0000 0.0000
vn 1.0000 0.0000 0.0000
vn 1.0000 0.0000 0.0000
vn 1.0000 0.0000 0.0000
vn 1.0000 0.0000 0.0000
vn 1.0000 0.0000 0.0000
vn 1.0000 0.0000 0.0000
vn 1.0000 0.0000 0.0000
vn 1.0000 0.0000 0.0000
vn 1.0000 0.0000 0.0000
vn 1.0000 0.0000 0.0000
vn 1.0000 0.0000 0.0000
vn 1.0000 0.0000 0.0000
vn 1.0000 0.0000 0.0000
vn 1.0000 0.0000 0.0000
vn 1.0000 0.0000 0.0000
vn 1.0000 0.0000 0.0000
vn 1.0000 0.0000 0.0000
vn 1.0000 0.0000 0.0000
vn 1.0000 0.0000 0.0000
vn 1.0000 0.0000 0.0000
vn 1.0000 0.0000 0.0000
vn 1.0000 0.0000 0.0000
vn 1.0000 0.0000 0.0000
vn 1.0000 0.0000 0.0000
vn 1.0000 0.0000 0.0000
vn 1.0000 0.0000 0.0000
vn 1.0000 0.0000 0.0000
vn 1.0000 0.0000 0.0000
vn 1.0000 0.0000 0.0000
vn 1.0000 0.0000 0.0000
vn 1.0000 0.0000 0.0000
vn 1.0000 0.0000 0.0000
vn 1.0000 0.0000 0.0000
vn 1.0000 0.0000 0.0000
vn 1.0000 0.0000 0.0000
vn 1.0000 0.0000 0.0000
vn 1.0000 0.0000 0.0000
vn 1.0000 0.0000 0.0000
vn 1.0000 0.0000 0.0000
vn 1.0000 0.0000 0.0000
vn 1.0000 0.0000 0.0000
vn 1.0000 0.0000 0.0000
vn 1.0000 0.0000 0.0000
vn 1.0000 0.0000 0.0000
vn 1.0000 0.0000 0.0000
vn 1.0000 0.0000 0.0000
vn 1.0000 0.0000 0.0000
vn 1.0000 0.0000 0.0000
vn 1.0000 0.0000 0.0000
vn 1.0000 0.0000 0.0000
vn 1.0000 0.0000 0.0000
vn 1.0000 0.0000 0.0000
vn -1.0000 0.0000 0.0000
vn 0.0000 1.0000 0.0000
vn 0.0000 -1.0000 0.0000
vn 0.0000 0.0000 1.0000
vn 0.0000 0.0000 -1.0000
vn -0.0000 0.9998 0.0194
vn 0.0000 0.9998 0.0194
vn -0.0000 0.9983 0.0581
vn 0.0000 0.9983 0.0581
vn -0.0000 0.9953 0.0968
vn 0.0000 0.9953 0.0968
vn -0.0000 0.9908 0.1353
vn 0.0000 0.9908 0.1353
vn -0.0000 0.9848 0.1736
vn 0.0000 0.9848 0.1736
vn -0.0000 0.9773 0.2117
vn 0.0000 0.9773 0.2117
vn -0.0000 0.9684 0.2494
vn 0.0000 0.9684 0.2494
vn -0.0000 0.9580 0.2868
vn 0.0000 0.9580 0.2868
vn -0.0000 0.9461 0.3237
vn 0.0000 0.9461 0.3237
vn -0.0000 0.9397 0.3420
vn 0.0000 0.9397 0.3420
vn -0.0000 0.9492 0.3145
vn 0.0000 0.9492 0.3145
vn -0.0000 0.9659 0.2588
vn 0.0000 0.9659 0.2588
vn -0.0000 0.9793 0.2022
vn 0.0000 0.9793 0.2022
vn -0.0000 0.9894 0.1449
vn 0.0000 0.9894 0.1449
vn -0.0000 0.9962 0.0872
vn 0.0000 0.9962 0.0872
vn -0.0000 0.9996 0.0291
vn 0.0000 0.9996 0.0291
vn -0.0000 1.0000 0.0000
vn 0.0000 1.0000 0.0000
vn -1.0000 0.0000 -0.0000
vn -1.0000 -0.0000 -0.0000
vn -1.0000 0.0000 0.0000
vn -1.0000 -0.0000 -0.0000
vn -1.0000 0.0000 0.0000
vn -1.0000 -0.0000 -0.0000
vn -1.0000 0.0000 0.0000
vn -1.0000 -0.0000 -0.0000
vn -1.0000 0.0000 0.0000
vn -1.0000 -0.0000 -0.0000
vn -1.0000 0.0000 0.0000
vn -1.0000 -0.0000 -0.0000
vn -1.0000 0.0000 0.0000
vn -1.0000 -0.0000 -0.0000
vn -1.0000 0.0000 0.0000
vn -1.0000 -0.0000 -0.0000
vn -1.0000 0.0000 0.0000
vn -1.0000 -0.0000 -0.0000
vn -1.0000 0.0000 0.0000
vn -1.0000 -0.0000 -0.0000
vn -1.0000 0.0000 0.0000
vn -1.0000 -0.0000 -0.0000
vn -1.0000 0.0000 0.0000
vn -1.0000 -0.0000 -0.0000
vn -1.0000 0.0000 0.0000
vn -1.0000 -0.0000 -0.0000
vn -1.0000 0.0000 0.0000
vn -1.0000 -0.0000 -0.0000
vn -1.0000 0.0000 0.0000
vn 1.0000 0.0000 0.0000
vn 1.0000 0.0000 0.0000
vn 1.0000 0.0000 0.0000
vn 1.0000 0.0000 0.0000
vn 1.0000 0.0000 0.0000
vn 1.0000 0.0000 0.0000
vn 1.0000 0.0000 0.0000
vn 1.0000 0.0000 0.0000
vn 1.0000 0.0000 0.0000
vn 1.0000 0.0000 0.0000
vn 1.0000 0.0000 0.0000
vn 1.0000 0.0000 0.0000
vn 1.0000 0.0000 0.0000
vn 1.0000 0.0000 0.0000
vn 1.0000 0.0000 0.0000
vn 1.0000 0.0000 0.0000
vn 1.0000 0.0000 0.0000
vn 1.0000 0.0000 0.0000
vn 1.0000 0.0000 0.0000
vn 1.0000 0.0000 0.0000
vn 1.0000 0.0000 0.0000
vn 1.0000 0.0000 0.0000
vn 1.0000 0.0000 0.0000
vn 1.0000 0.0000 0.0000
vn 1.0000 0.0000 0.0000
vn 1.0000 0.0000 0.0000
vn 1.0000 0.0000 0.0000
vn 1.0000 0.0000 0.0000
vn 1.0000 0.0000 0.0000
vn 1.0000 0.0000 0.0000
vn -1.0000 0.0000 0.0000
vn 0.0000 1.0000 0.0000
vn 0.0000 -1.0000 0.0000
vn 0.0000 0.0000 1.0000
vn 0.0000 0.0000 -1.0000
vn 1.0000 0.0000 0.0000
vn -1.0000 0.0000 0.0000
vn 0.0000 1.0000 0.0000
vn 0.0000 -1.0000 0.0000
vn 0.0000 0.0000 1.0000
vn 0.0000 0.0000 -1.0000
vn 1.0000 0.0000 0.0000
vn -1.0000 0.0000 0.0000
vn 0.0000 1.0000 0.0000
vn 0.0000 -1.0000 0.0000
vn 0.0000 0.0000 1.0000
vn 0.0000 0.0000 -1.0000
vn 1.0000 0.0000 0.0000
vn -1.0000 0.0000 0.0000
vn 0.0000 1.0000 0.0000
vn 0.0000 -1.0000 0.0000
vn 0.0000 0.0000 1.0000
vn 0.0000 0.0000 -1.0000
vn 1.0000 0.0000 0.0000
vn -1.0000 0.0000 0.0000
vn 0.0000 1.0000 0.0000
vn 0.0000 -1.0000 0.0000
vn 0.0000 0.0000 1.0000
vn 0.0000 0.0000 -1.0000
vn 1.0000 0.0000 0.0000
vn -1.0000 0.0000 0.0000
vn 0.0000 1.0000 0.0000
vn 0.0000 -1.0000 0.0000
vn 0.0000 0.0000 1.0000
vn 0.0000 0.0000 -1.0000
vn 1.0000 0.0000 0.0000
vn -1.0000 0.0000 0.0000
vn 0.0000 1.0000 0.0000
vn 0.0000 -1.0000 0.0000
vn 0.0000 0.0000 1.0000
vn 0.0000 0.0000 -1.0000
vn -0.0233 0.9997 0.0000
vn -0.0233 0.9997 0.0000
vn -0.0698 0.9976 0.0000
vn -0.0698 0.9976 0.0000
vn -0.1161 0.9932 0.0000
vn -0.1161 0.9932 0.0000
vn -0.1622 0.9868 0.0000
vn -0.1622 0.9868 0.0000
vn -0.2079 0.9781 0.0000
vn -0.2079 0.9781 0.0000
vn -0.2532 0.9674 0.0000
vn -0.2532 0.9674 0.0000
vn -0.2979 0.9546 0.0000
vn -0.2979 0.9546 0.0000
vn -0.3420 0.9397 0.0000
vn -0.3420 0.9397 0.0000
vn -0.3854 0.9228 0.0000
vn -0.3854 0.9228 0.0000
vn -0.4279 0.9038 0.0000
vn -0.4279 0.9038 0.0000
vn -0.4695 0.8829 0.0000
vn -0.4695 0.8829 0.0000
vn -0.5100 0.8601 0.0000
vn -0.5100 0.8601 0.0000
vn -0.5495 0.8355 0.0000
vn -0.5495 0.8355 0.0000
vn -0.5878 0.8090 0.0000
vn -0.5878 0.8090 0.0000
vn -0.6248 0.7808 0.0000
vn -0.6248 0.7808 0.0000
vn -0.6428 0.7660 0.0000
vn -0.6428 0.7660 0.0000
vn -0.6126 0.7904 0.0000
vn -0.6126 0.7904 0.0000
vn -0.5495 0.8355 0.0000
vn -0.5495 0.8355 0.0000
vn -0.4831 0.8756 0.0000
vn -0.4831 0.8756 0.0000
vn -0.4138 0.9104 0.0000
vn -0.4138 0.9104 0.0000
vn -0.3420 0.9397 0.0000
vn -0.3420 0.9397 0.0000
vn -0.2682 0.9634 0.0000
vn -0.2682 0.9634 0.0000
vn -0.1927 0.9813 0.0000
vn -0.1927 0.9813 0.0000
vn -0.1161 0.9932 0.0000
vn -0.1161 0.9932 0.0000
vn -0.0388 0.9992 0.0000
vn -0.0388 0.9992 0.0000
vn 0.0000 1.0000 0.0000
vn 0.0000 1.0000 0.0000
vn 0.0000 0.0000 -1.0000
vn 0.0000 0.0000 -1.0000
vn 0.0000 0.0000 -1.0000
vn 0.0000 0.0000 -1.0000
vn 0.0000 0.0000 -1.0000
vn 0.0000 0.0000 -1.0000
vn 0.0000 0.0000 -1.0000
vn 0.0000 0.0000 -1.0000
vn 0.0000 0.0000 -1.0000
vn 0.0000 0.0000 -1.0000
vn 0.0000 0.0000 -1.0000
vn 0.0000 0.0000 -1.0000
vn 0.0000 0.0000 -1.0000
vn 0.0000 0.0000 -1.0000
vn 0.0000 0.0000 -1.0000
vn 0.0000 0.0000 -1.0000
vn 0.0000 0.0000 -1.0000
vn 0.0000 0.0000 -1.0000
vn 0.0000 0.0000 -1.0000
vn 0.0000 0.0000 -1.0000
vn 0.0000 0.0000 -1.0000
vn 0.0000 0.0000 -1.0000
vn 0.0000 0.0000 -1.0000
vn 0.0000 0.0000 -1.0000
vn 0.0000 0.0000 -1.0000
vn 0.0000 0.0000 -1.0000
vn 0.0000 0.0000 -1.0000
vn 0.0000 0.0000 -1.0000
vn 0.0000 0.0000 -1.0000
vn 0.0000 0.0000 -1.0000
vn 0.0000 0.0000 -1.0000
vn 0.0000 0.0000 -1.0000
vn 0.0000 0.0000 -1.0000
vn 0.0000 0.0000 -1.0000
vn 0.0000 0.0000 -1.0000
vn 0.0000 0.0000 -1.0000
vn 0.0000 0.0000 -1.0000
vn 0.0000 0.0000 -1.0000
vn 0.0000 0.0000 -1.0000
vn 0.0000 0.0000 -1.0000
vn 0.0000 0.0000 -1.0000
vn 0.0000 0.0000 -1.0000
vn 0.0000 0.0000 -1.0000
vn 0.0000 0.0000 -1.0000
vn 0.0000 0.0000 -1.0000
vn 0.0000 0.0000 -1.0000
vn 0.0000 0.0000 -1.0000
vn -0.0000 0.0000 1.0000
vn -0.0000 0.0000 1.0000
vn 0.0000 0.0000 1.0000
vn -0.0000 0.0000 1.0000
vn 0.0000 0.0000 1.0000
vn -0.0000 0.0000 1.0000
vn 0.0000 0.0000 1.0000
vn -0.0000 0.0000 1.0000
vn 0.0000 0.0000 1.0000
vn -0.0000 0.0000 1.0000
vn 0.0000 0.0000 1.0000
vn -0.0000 0.0000 1.0000
vn 0.0000 0.0000 1.0000
vn -0.0000 0.0000 1.0000
vn 0.0000 0.0000 1.0000
vn -0.0000 0.0000 1.0000
vn 0.0000 0.0000 1.0000
vn -0.0000 0.0000 1.0000
vn 0.0000 0.0000 1.0000
vn -0.0000 0.0000 1.0000
vn 0.0000 0.0000 1.0000
vn -0.0000 0.0000 1.0000
vn 0.0000 0.0000 1.0000
vn -0.0000 0.0000 1.0000
vn 0.0000 0.0000 1.0000
vn -0.0000 0.0000 1.0000
vn 0.0000 0.0000 1.0000
vn -0.0000 0.0000 1.0000
vn 0.0000 0.0000 1.0000
vn -0.0000 0.0000 1.0000
vn 0.0000 0.0000 1.0000
vn -0.0000 0.0000 1.0000
vn 0.0000 0.0000 1.0000
vn -0.0000 0.0000 1.0000
vn 0.0000 0.0000 1.0000
vn -0.0000 0.0000 1.0000
vn 0.0000 0.0000 1.0000
vn -0.0000 0.0000 1.0000
vn 0.0000 0.0000 1.0000
vn -0.0000 0.0000 1.0000
vn 0.0000 0.0000 1.0000
vn -0.0000 0.0000 1.0000
vn 0.0000 0.0000 1.0000
vn -0.0000 0.0000 1.0000
vn 0.0000 0.0000 1.0000
vn -0.0000 0.0000 1.0000
vn 0.0000 0.0000 1.0000
f 1/1/1 2/2/1 3/3/1
f 4/4/2 5/5/2 6/6/2
f 7/7/3 8/8/3 9/9/3
f 10/10/4 11/11/4 12/12/4
f 13/13/5 14/14/5 15/15/5
f 16/16/6 17/17/6 18/18/6
f 19/19/7 20/20/7 21/21/7
f 22/22/8 23/23/8 24/24/8
f 25/25/9 26/26/9 27/27/9
f 28/28/10 29/29/10 30/30/10
f 31/31/11 32/32/11 33/33/11
f 34/34/12 35/35/12 36/36/12
f 37/37/13 38/38/13 39/39/13
f 40/40/14 41/41/14 42/42/14
f 43/43/15 44/44/15 45/45/15
f 46/46/16 47/47/16 48/48/16
f 49/49/17 50/50/17 51/51/17
f 52/52/18 53/53/18 54/54/18
f 55/55/19 56/56/19 57/57/19
f 58/58/20 59/59/20 60/60/20
f 61/61/21 62/62/21 63/63/21
f 64/64/22 65/65/22 66/66/22
f 67/67/23 68/68/23 69/69/23
f 70/70/24 71/71/24 72/72/24
f 73/73/25 74/74/25 75/75/25
f 76/76/26 77/77/26 78/78/26
f 79/79/27 80/80/27 81/81/27
f 82/82/28 83/83/28 84/84/28
f 85/85/29 86/86/29 87/87/29
f 88/88/30 89/89/30 90/90/30
f 91/91/31 92/92/31 93/93/31
f 94/94/32 95/95/32 96/96/32
f 97/97/33 98/98/33 99/99/33
f 100/100/34 101/101/34 102/102/34
f 103/103/35 104/104/35 105/105/35
f 106/106/36 107/107/36 108/108/36
f 109/109/37 110/110/37 111/111/37
f 112/112/38 113/113/38 114/114/38
f 115/115/39 116/116/39 117/117/39
f 118/118/40 119/119/40 120/120/40
f 121/121/41 122/122/41 123/123/41
f 124/124/42 125/125/42 126/126/42
f 127/127/43 128/128/43 129/129/43
f 130/130/44 131/131/44 132/132/44
f 133/133/45 134/134/45 135/135/45
f 136/136/46 137/137/46 138/138/46
f 139/139/47 140/140/47 141/141/47
f 142/142/48 143/143/48 144/144/48
f 145/145/49 146/146/49 147/147/49
f 148/148/50 149/149/50 150/150/50
f 151/151/51 152/152/51 153/153/51
f 154/154/52 155/155/52 156/156/52
f 157/157/53 158/158/53 159/159/53
f 160/160/54 161/161/54 162/162/54
f 163/163/55 164/164/55 165/165/55
f 166/166/56 167/167/56 168/168/56
f 169/169/57 170/170/57 171/171/57
f 172/172/58 173/173/58 174/174/58
f 175/175/59 176/176/59 177/177/59
f 178/178/60 179/179/60 180/180/60
f 181/181/61 182/182/61 183/183/61
f 184/184/62 185/185/62 186/186/62
f 187/187/63 188/188/63 189/189/63
f 190/190/64 191/191/64 192/192/64
f 193/193/65 194/194/65 195/195/65
f 196/196/66 197/197/66 198/198/66
f 199/199/67 200/200/67 201/201/67
f 202/202/68 203/203/68 204/204/68
f 205/205/69 206/206/69 207/207/69
f 208/208/70 209/209/70 210/210/70
f 211/211/71 212/212/71 213/213/71
f 214/214/72 215/215/72 216/216/72
f 217/217/73 218/218/73 219/219/73
f 220/220/74 221/221/74 222/222/74
f 223/223/75 224/224/75 225/225/75
f 226/226/76 227/227/76 228/228/76
f 229/229/77 230/230/77 231/231/77
f 232/232/78 233/233/78 234/234/78
f 235/235/79 236/236/79 237/237/79
f 238/238/80 239/239/80 240/240/80
f 241/241/81 242/242/81 243/243/81
f 244/244/82 245/245/82 246/246/82
f 247/247/83 248/248/83 249/249/83
f 250/250/84 251/251/84 252/252/84
f 253/253/85 254/254/85 255/255/85
f 256/256/86 257/257/86 258/258/86
f 259/259/87 260/260/87 261/261/87
f 262/262/88 263/263/88 264/264/88
f 265/265/89 266/266/89 267/267/89
f 268/268/90 269/269/90 270/270/90
f 271/271/91 272/272/91 273/273/91
f 274/274/92 275/275/92 276/276/92
f 277/277/93 278/278/93 279/279/93
f 280/280/94 281/281/94 282/282/94
f 283/283/95 284/284/95 285/285/95
f 286/286/96 287/287/96 288/288/96
f 289/289/97 290/290/97 291/291/97
f 292/292/98 293/293/98 294/294/98
f 295/295/99 296/296/99 297/297/99
f 298/298/100 299/299/100 300/300/100
f 301/301/101 302/302/101 303/303/101
f 304/304/102 305/305/102 306/306/102
f 307/307/103 308/308/103 309/309/103
f 310/310/104 311/311/104 312/312/104
f 313/313/105 314/314/105 315/315/105
f 316/316/106 317/317/106 318/318/106
f 319/319/107 320/320/107 321/321/107
f 322/322/108 323/323/108 324/324/108
f 325/325/109 326/326/109 327/327/109
f 328/328/110 329/329/110 330/330/110
f 331/331/111 332/332/111 333/333/111
f 334/334/112 335/335/112 336/336/112
f 337/337/113 338/338/113 339/339/113
f 340/340/114 341/341/114 342/342/114
f 343/343/115 344/344/115 345/345/115
f 346/346/116 347/347/116 348/348/116
f 349/349/117 350/350/117 351/351/117
f 352/352/118 353/353/118 354/354/118
f 355/355/119 356/356/119 357/357/119
f 358/358/120 359/359/120 360/360/120
f 361/361/121 362/362/121 363/363/121
f 364/364/122 365/365/122 366/366/122
f 367/367/123 368/368/123 369/369/123
f 370/370/124 371/371/124 372/372/124
f 373/373/125 374/374/125 375/375/125
f 376/376/126 377/377/126 378/378/126
f 379/379/127 380/380/127 381/381/127
f 382/382/128 383/383/128 384/384/128
f 385/385/129 386/386/129 387/387/129
f 388/388/130 389/389/130 390/390/130
f 391/391/131 392/392/131 393/393/131
f 394/394/132 395/395/132 396/396/132
f 397/397/133 398/398/133 399/399/133
f 400/400/134 401/401/134 402/402/134
f 403/403/135 404/404/135 405/405/135
f 406/406/136 407/407/136 408/408/136
f 409/409/137 410/410/137 411/411/137
f 412/412/138 413/413/138 414/414/138
f 415/415/139 416/416/139 417/417/139
f 418/418/140 419/419/140 420/420/140
f 421/421/141 422/422/141 423/423/141
f 424/424/142 425/425/142 426/426/142
f 427/427/143 428/428/143 429/429/143
f 430/430/144 431/431/144 432/432/144
f 433/433/145 434/434/145 435/435/145
f 436/436/146 437/437/146 438/438/146
f 439/439/147 440/440/147 441/441/147
f 442/442/148 443/443/148 444/444/148
f 445/445/149 446/446/149 447/447/149
f 448/448/150 449/449/150 450/450/150
f 451/451/151 452/452/151 453/453/151
f 454/454/152 455/455/152 456/456/152
f 457/457/153 458/458/153 459/459/153
f 460/460/154 461/461/154 462/462/154
f 463/463/155 464/464/155 465/465/155
f 466/466/156 467/467/156 468/468/156
f 469/469/157 470/470/157 471/471/157
f 472/472/158 473/473/158 474/474/158
f 475/475/159 476/476/159 477/477/159
f 478/478/160 479/479/160 480/480/160
f 481/481/161 482/482/161 483/483/161
f 484/484/162 485/485/162 486/486/162
f 487/487/163 488/488/163 489/489/163
f 490/490/164 491/491/164 492/492/164
f 493/493/165 494/494/165 495/495/165
f 496/496/166 497/497/166 498/498/166
f 499/499/167 500/500/167 501/501/167
f 499/499/167 501/501/167 502/502/167
f 503/503/168 504/504/168 505/505/168
f 503/503/168 505/505/168 506/506/168
f 507/507/169 508/508/169 509/509/169
f 507/507/169 509/509/169 510/510/169
f 511/511/170 512/512/170 513/513/170
f 511/511/170 513/513/170 514/514/170
f 515/515/171 516/516/171 517/517/171
f 515/515/171 517/517/171 518/518/171
f 519/519/172 520/520/172 521/521/172
f 519/519/172 521/521/172 522/522/172
f 523/523/173 524/524/173 525/525/173
f 526/526/174 527/527/174 528/528/174
f 529/529/175 530/530/175 531/531/175
f 532/532/176 533/533/176 534/534/176
f 535/535/177 536/536/177 537/537/177
f 538/538/178 539/539/178 540/540/178
f 541/541/179 542/542/179 543/543/179
f 544/544/180 545/545/180 546/546/180
f 547/547/181 548/548/181 549/549/181
f 550/550/182 551/551/182 552/552/182
f 553/553/183 554/554/183 555/555/183
f 556/556/184 557/557/184 558/558/184
f 559/559/185 560/560/185 561/561/185
f 562/562/186 563/563/186 564/564/186
f 565/565/187 566/566/187 567/567/187
f 568/568/188 569/569/188 570/570/188
f 571/571/189 572/572/189 573/573/189
f 574/574/190 575/575/190 576/576/190
f 577/577/191 578/578/191 579/579/191
f 580/580/192 581/581/192 582/582/192
f 583/583/193 584/584/193 585/585/193
f 586/586/194 587/587/194 588/588/194
f 589/589/195 590/590/195 591/591/195
f 592/592/196 593/593/196 594/594/196
f 595/595/197 596/596/197 597/597/197
f 598/598/198 599/599/198 600/600/198
f 601/601/199 602/602/199 603/603/199
f 604/604/200 605/605/200 606/606/200
f 607/607/201 608/608/201 609/609/201
f 610/610/202 611/611/202 612/612/202
f 613/613/203 614/614/203 615/615/203
f 616/616/204 617/617/204 618/618/204
f 619/619/205 620/620/205 621/621/205
f 622/622/206 623/623/206 624/624/206
f 625/625/207 626/626/207 627/627/207
f 628/628/208 629/629/208 630/630/208
f 631/631/209 632/632/209 633/633/209
f 634/634/210 635/635/210 636/636/210
f 637/637/211 638/638/211 639/639/211
f 640/640/212 641/641/212 642/642/212
f 643/643/213 644/644/213 645/645/213
f 646/646/214 647/647/214 648/648/214
f 649/649/215 650/650/215 651/651/215
f 652/652/216 653/653/216 654/654/216
f 655/655/217 656/656/217 657/657/217
f 658/658/218 659/659/218 660/660/218
f 661/661/219 662/662/219 663/663/219
f 664/664/220 665/665/220 666/666/220
f 667/667/221 668/668/221 669/669/221
f 670/670/222 671/671/222 672/672/222
f 673/673/223 674/674/223 675/675/223
f 676/676/224 677/677/224 678/678/224
f 679/679/225 680/680/225 681/681/225
f 682/682/226 683/683/226 684/684/226
f 685/685/227 686/686/227 687/687/227
f 688/688/228 689/689/228 690/690/228
f 691/691/229 692/692/229 693/693/229
f 694/694/230 695/695/230 696/696/230
f 697/697/231 698/698/231 699/699/231
f 700/700/232 701/701/232 702/702/232
f 703/703/233 704/704/233 705/705/233
f 706/706/234 707/707/234 708/708/234
f 709/709/235 710/710/235 711/711/235
f 712/712/236 713/713/236 714/714/236
f 715/715/237 716/716/237 717/717/237
f 718/718/238 719/719/238 720/720/238
f 721/721/239 722/722/239 723/723/239
f 724/724/240 725/725/240 726/726/240
f 727/727/241 728/728/241 729/729/241
f 730/730/242 731/731/242 732/732/242
f 733/733/243 734/734/243 735/735/243
f 736/736/244 737/737/244 738/738/244
f 739/739/245 740/740/245 741/741/245
f 742/742/246 743/743/246 744/744/246
f 745/745/247 746/746/247 747/747/247
f 748/748/248 749/749/248 750/750/248
f 751/751/249 752/752/249 753/753/249
f 754/754/250 755/755/250 756/756/250
f 757/757/251 758/758/251 759/759/251
f 760/760/252 761/761/252 762/762/252
f 763/763/253 764/764/253 765/765/253
f 766/766/254 767/767/254 768/768/254
f 769/769/255 770/770/255 771/771/255
f 772/772/256 773/773/256 774/774/256
f 775/775/257 776/776/257 777/777/257
f 778/778/258 779/779/258 780/780/258
f 781/781/259 782/782/259 783/783/259
f 784/784/260 785/785/260 786/786/260
f 787/787/261 788/788/261 789/789/261
f 790/790/262 791/791/262 792/792/262
f 793/793/263 794/794/263 795/795/263
f 796/796/264 797/797/264 798/798/264
f 799/799/265 800/800/265 801/801/265
f 799/799/265 801/801/265 802/802/265
f 803/803/266 804/804/266 805/805/266
f 803/803/266 805/805/266 806/806/266
f 807/807/267 808/808/267 809/809/267
f 807/807/267 809/809/267 810/810/267
f 811/811/268 812/812/268 813/813/268
f 811/811/268 813/813/268 814/814/268
f 815/815/269 816/816/269 817/817/269
f 815/815/269 817/817/269 818/818/269
f 819/819/270 820/820/270 821/821/270
f 819/819/270 821/821/270 822/822/270
f 823/823/271 824/824/271 825/825/271
f 823/823/271 825/825/271 826/826/271
f 827/827/272 828/828/272 829/829/272
f 827/827/272 829/829/272 830/830/272
f 831/831/273 832/832/273 833/833/273
f 831/831/273 833/833/273 834/834/273
f 835/835/274 836/836/274 837/837/274
f 835/835/274 837/837/274 838/838/274
f 839/839/275 840/840/275 841/841/275
f 839/839/275 841/841/275 842/842/275
f 843/843/276 844/844/276 845/845/276
f 843/843/276 845/845/276 846/846/276
f 847/847/277 848/848/277 849/849/277
f 847/847/277 849/849/277 850/850/277
f 851/851/278 852/852/278 853/853/278
f 851/851/278 853/853/278 854/854/278
f 855/855/279 856/856/279 857/857/279
f 855/855/279 857/857/279 858/858/279
f 859/859/280 860/860/280 861/861/280
f 859/859/280 861/861/280 862/862/280
f 863/863/281 864/864/281 865/865/281
f 863/863/281 865/865/281 866/866/281
f 867/867/282 868/868/282 869/869/282
f 867/867/282 869/869/282 870/870/282
f 871/871/283 872/872/283 873/873/283
f 871/871/283 873/873/283 874/874/283
f 875/875/284 876/876/284 877/877/284
f 875/875/284 877/877/284 878/878/284
f 879/879/285 880/880/285 881/881/285
f 879/879/285 881/881/285 882/882/285
f 883/883/286 884/884/286 885/885/286
f 883/883/286 885/885/286 886/886/286
f 887/887/287 888/888/287 889/889/287
f 887/887/287 889/889/287 890/890/287
f 891/891/288 892/892/288 893/893/288
f 891/891/288 893/893/288 894/894/288
f 895/895/289 896/896/289 897/897/289
f 895/895/289 897/897/289 898/898/289
f 899/899/290 900/900/290 901/901/290
f 899/899/290 901/901/290 902/902/290
f 903/903/291 904/904/291 905/905/291
f 903/903/291 905/905/291 906/906/291
f 907/907/292 908/908/292 909/909/292
f 907/907/292 909/909/292 910/910/292
f 911/911/293 912/912/293 913/913/293
f 911/911/293 913/913/293 914/914/293
f 915/915/294 916/916/294 917/917/294
f 915/915/294 917/917/294 918/918/294
f 919/919/295 920/920/295 921/921/295
f 919/919/295 921/921/295 922/922/295
f 923/923/296 924/924/296 925/925/296
f 923/923/296 925/925/296 926/926/296
f 927/927/297 928/928/297 929/929/297
f 927/927/297 929/929/297 930/930/297
f 931/931/298 932/932/298 933/933/298
f 931/931/298 933/933/298 934/934/298
f 935/935/299 936/936/299 937/937/299
f 935/935/299 937/937/299 938/938/299
f 939/939/300 940/940/300 941/941/300
f 939/939/300 941/941/300 942/942/300
f 943/943/301 944/944/301 945/945/301
f 943/943/301 945/945/301 946/946/301
f 947/947/302 948/948/302 949/949/302
f 947/947/302 949/949/302 950/950/302
f 951/951/303 952/952/303 953/953/303
f 951/951/303 953/953/303 954/954/303
f 955/955/304 956/956/304 957/957/304
f 955/955/304 957/957/304 958/958/304
f 959/959/305 960/960/305 961/961/305
f 959/959/305 961/961/305 962/962/305
f 963/963/306 964/964/306 965/965/306
f 963/963/306 965/965/306 966/966/306
f 967/967/307 968/968/307 969/969/307
f 970/970/308 971/971/308 972/972/308
f 973/973/309 974/974/309 975/975/309
f 976/976/310 977/977/310 978/978/310
f 979/979/311 980/980/311 981/981/311
f 982/982/312 983/983/312 984/984/312
f 985/985/313 986/986/313 987/987/313
f 988/988/314 989/989/314 990/990/314
f 991/991/315 992/992/315 993/993/315
f 994/994/316 995/995/316 996/996/316
f 997/997/317 998/998/317 999/999/317
f 1000/1000/318 1001/1001/318 1002/1002/318
f 1003/1003/319 1004/1004/319 1005/1005/319
f 1006/1006/320 1007/1007/320 1008/1008/320
f 1009/1009/321 1010/1010/321 1011/1011/321
f 1012/1012/322 1013/1013/322 1014/1014/322
f 1015/1015/323 1016/1016/323 1017/1017/323
f 1018/1018/324 1019/1019/324 1020/1020/324
f 1021/1021/325 1022/1022/325 1023/1023/325
f 1024/1024/326 1025/1025/326 1026/1026/326
f 1027/1027/327 1028/1028/327 1029/1029/327
f 1030/1030/328 1031/1031/328 1032/1032/328
f 1033/1033/329 1034/1034/329 1035/1035/329
f 1036/1036/330 1037/1037/330 1038/1038/330
f 1039/1039/331 1040/1040/331 1041/1041/331
f 1042/1042/332 1043/1043/332 1044/1044/332
f 1045/1045/333 1046/1046/333 1047/1047/333
f 1048/1048/334 1049/1049/334 1050/1050/334
f 1051/1051/335 1052/1052/335 1053/1053/335
f 1054/1054/336 1055/1055/336 1056/1056/336
f 1057/1057/337 1058/1058/337 1059/1059/337
f 1060/1060/338 1061/1061/338 1062/1062/338
f 1063/1063/339 1064/1064/339 1065/1065/339
f 1066/1066/340 1067/1067/340 1068/1068/340
f 1069/1069/341 1070/1070/341 1071/1071/341
f 1072/1072/342 1073/1073/342 1074/1074/342
f 1075/1075/343 1076/1076/343 1077/1077/343
f 1078/1078/344 1079/1079/344 1080/1080/344
f 1081/1081/345 1082/1082/345 1083/1083/345
f 1084/1084/346 1085/1085/346 1086/1086/346
f 1087/1087/347 1088/1088/347 1089/1089/347
f 1090/1090/348 1091/1091/348 1092/1092/348
f 1093/1093/349 1094/1094/349 1095/1095/349
f 1096/1096/350 1097/1097/350 1098/1098/350
f 1099/1099/351 1100/1100/351 1101/1101/351
f 1102/1102/352 1103/1103/352 1104/1104/352
f 1105/1105/353 1106/1106/353 1107/1107/353
f 1108/1108/354 1109/1109/354 1110/1110/354
f 1111/1111/355 1112/1112/355 1113/1113/355
f 1114/1114/356 1115/1115/356 1116/1116/356
f 1117/1117/357 1118/1118/357 1119/1119/357
f 1120/1120/358 1121/1121/358 1122/1122/358
f 1123/1123/359 1124/1124/359 1125/1125/359
f 1126/1126/360 1127/1127/360 1128/1128/360
f 1129/1129/361 1130/1130/361 1131/1131/361
f 1132/1132/362 1133/1133/362 1134/1134/362
f 1135/1135/363 1136/1136/363 1137/1137/363
f 1138/1138/364 1139/1139/364 1140/1140/364
f 1141/1141/365 1142/1142/365 1143/1143/365
f 1144/1144/366 1145/1145/366 1146/1146/366
f 1147/1147/367 1148/1148/367 1149/1149/367
f 1150/1150/368 1151/1151/368 1152/1152/368
f 1153/1153/369 1154/1154/369 1155/1155/369
f 1156/1156/370 1157/1157/370 1158/1158/370
f 1159/1159/371 1160/1160/371 1161/1161/371
f 1162/1162/372 1163/1163/372 1164/1164/372
f 1165/1165/373 1166/1166/373 1167/1167/373
f 1168/1168/374 1169/1169/374 1170/1170/374
f 1171/1171/375 1172/1172/375 1173/1173/375
f 1174/1174/376 1175/1175/376 1176/1176/376
f 1177/1177/377 1178/1178/377 1179/1179/377
f 1180/1180/378 1181/1181/378 1182/1182/378
f 1183/1183/379 1184/1184/379 1185/1185/379
f 1186/1186/380 1187/1187/380 1188/1188/380
f 1189/1189/381 1190/1190/381 1191/1191/381
f 1192/1192/382 1193/1193/382 1194/1194/382
f 1195/1195/383 1196/1196/383 1197/1197/383
f 1198/1198/384 1199/1199/384 1200/1200/384
f 1201/1201/385 1202/1202/385 1203/1203/385
f 1204/1204/386 1205/1205/386 1206/1206/386
f 1207/1207/387 1208/1208/387 1209/1209/387
f 1210/1210/388 1211/1211/388 1212/1212/388
f 1213/1213/389 1214/1214/389 1215/1215/389
f 1216/1216/390 1217/1217/390 1218/1218/390
f 1219/1219/391 1220/1220/391 1221/1221/391
f 1222/1222/392 1223/1223/392 1224/1224/392
f 1225/1225/393 1226/1226/393 1227/1227/393
f 1228/1228/394 1229/1229/394 1230/1230/394
f 1231/1231/395 1232/1232/395 1233/1233/395
f 1234/1234/396 1235/1235/396 1236/1236/396
f 1237/1237/397 1238/1238/397 1239/1239/397
f 1240/1240/398 1241/1241/398 1242/1242/398
f 1243/1243/399 1244/1244/399 1245/1245/399
f 1246/1246/400 1247/1247/400 1248/1248/400
f 1249/1249/401 1250/1250/401 1251/1251/401
f 1252/1252/402 1253/1253/402 1254/1254/402
f 1255/1255/403 1256/1256/403 1257/1257/403
f 1258/1258/404 1259/1259/404 1260/1260/404
f 1261/1261/405 1262/1262/405 1263/1263/405
f 1264/1264/406 1265/1265/406 1266/1266/406
f 1267/1267/407 1268/1268/407 1269/1269/407
f 1270/1270/408 1271/1271/408 1272/1272/408
f 1273/1273/409 1274/1274/409 1275/1275/409
f 1276/1276/410 1277/1277/410 1278/1278/410
f 1279/1279/411 1280/1280/411 1281/1281/411
f 1282/1282/412 1283/1283/412 1284/1284/412
f 1285/1285/413 1286/1286/413 1287/1287/413
f 1288/1288/414 1289/1289/414 1290/1290/414
f 1291/1291/415 1292/1292/415 1293/1293/415
f 1294/1294/416 1295/1295/416 1296/1296/416
f 1297/1297/417 1298/1298/417 1299/1299/417
f 1300/1300/418 1301/1301/418 1302/1302/418
f 1303/1303/419 1304/1304/419 1305/1305/419
f 1306/1306/420 1307/1307/420 1308/1308/420
f 1309/1309/421 1310/1310/421 1311/1311/421
f 1312/1312/422 1313/1313/422 1314/1314/422
f 1315/1315/423 1316/1316/423 1317/1317/423
f 1318/1318/424 1319/1319/424 1320/1320/424
f 1321/1321/425 1322/1322/425 1323/1323/425
f 1324/1324/426 1325/1325/426 1326/1326/426
f 1327/1327/427 1328/1328/427 1329/1329/427
f 1330/1330/428 1331/1331/428 1332/1332/428
f 1333/1333/429 1334/1334/429 1335/1335/429
f 1336/1336/430 1337/1337/430 1338/1338/430
f 1339/1339/431 1340/1340/431 1341/1341/431
f 1342/1342/432 1343/1343/432 1344/1344/432
f 1345/1345/433 1346/1346/433 1347/1347/433
f 1348/1348/434 1349/1349/434 1350/1350/434
f 1351/1351/435 1352/1352/435 1353/1353/435
f 1354/1354/436 1355/1355/436 1356/1356/436
f 1357/1357/437 1358/1358/437 1359/1359/437
f 1360/1360/438 1361/1361/438 1362/1362/438
f 1363/1363/439 1364/1364/439 1365/1365/439
f 1366/1366/440 1367/1367/440 1368/1368/440
f 1369/1369/441 1370/1370/441 1371/1371/441
f 1372/1372/442 1373/1373/442 1374/1374/442
f 1375/1375/443 1376/1376/443 1377/1377/443
f 1378/1378/444 1379/1379/444 1380/1380/444
f 1381/1381/445 1382/1382/445 1383/1383/445
f 1384/1384/446 1385/1385/446 1386/1386/446
f 1387/1387/447 1388/1388/447 1389/1389/447
f 1390/1390/448 1391/1391/448 1392/1392/448
f 1393/1393/449 1394/1394/449 1395/1395/449
f 1396/1396/450 1397/1397/450 1398/1398/450
f 1399/1399/451 1400/1400/451 1401/1401/451
f 1402/1402/452 1403/1403/452 1404/1404/452
