# generated park visual mesh (metric UVs)
v 2.6600 0.8800 -8.0101
v 2.5800 0.8800 -8.0101
v 2.5800 0.9600 -8.0101
v 2.6600 0.9600 -8.0101
v 2.5800 0.8800 -4.8101
v 2.6600 0.8800 -4.8101
v 2.6600 0.9600 -4.8101
v 2.5800 0.9600 -4.8101
v 2.6600 0.9600 -4.8101
v 2.6600 0.9600 -8.0101
v 2.5800 0.9600 -8.0101
v 2.5800 0.9600 -4.8101
v 2.5800 0.8800 -4.8101
v 2.5800 0.8800 -8.0101
v 2.6600 0.8800 -8.0101
v 2.6600 0.8800 -4.8101
v 2.6600 0.8800 -4.8101
v 2.6600 0.8800 -8.0101
v 2.6600 0.9600 -8.0101
v 2.6600 0.9600 -4.8101
v 2.5800 0.8800 -8.0101
v 2.5800 0.8800 -4.8101
v 2.5800 0.9600 -4.8101
v 2.5800 0.9600 -8.0101
v -12.9700 0.6919 -3.2895
v -13.0300 0.6919 -3.2895
v -13.0300 0.7481 -3.3105
v -12.9700 0.7481 -3.3105
v -13.0300 1.8919 -0.0895
v -12.9700 1.8919 -0.0895
v -12.9700 1.9481 -0.1105
v -13.0300 1.9481 -0.1105
v -12.9700 1.9481 -0.1105
v -12.9700 0.7481 -3.3105
v -13.0300 0.7481 -3.3105
v -13.0300 1.9481 -0.1105
v -13.0300 1.8919 -0.0895
v -13.0300 0.6919 -3.2895
v -12.9700 0.6919 -3.2895
v -12.9700 1.8919 -0.0895
v -12.9700 1.8919 -0.0895
v -12.9700 0.6919 -3.2895
v -12.9700 0.7481 -3.3105
v -12.9700 1.9481 -0.1105
v -13.0300 0.6919 -3.2895
v -13.0300 1.8919 -0.0895
v -13.0300 1.9481 -0.1105
v -13.0300 0.7481 -3.3105
v -12.9700 1.2000 -0.8700
v -12.9700 1.2000 -0.9300
v -12.9700 1.9200 -0.9300
v -12.9700 1.9200 -0.8700
v -13.0300 1.2000 -0.9300
v -13.0300 1.2000 -0.8700
v -13.0300 1.9200 -0.8700
v -13.0300 1.9200 -0.9300
v -13.0300 1.9200 -0.8700
v -12.9700 1.9200 -0.8700
v -12.9700 1.9200 -0.9300
v -13.0300 1.9200 -0.9300
v -13.0300 1.2000 -0.9300
v -12.9700 1.2000 -0.9300
v -12.9700 1.2000 -0.8700
v -13.0300 1.2000 -0.8700
v -13.0300 1.2000 -0.8700
v -12.9700 1.2000 -0.8700
v -12.9700 1.9200 -0.8700
v -13.0300 1.9200 -0.8700
v -12.9700 1.2000 -0.9300
v -13.0300 1.2000 -0.9300
v -13.0300 1.9200 -0.9300
v -12.9700 1.9200 -0.9300
v -12.9700 0.0000 -3.0700
v -12.9700 0.0000 -3.1300
v -12.9700 0.7200 -3.1300
v -12.9700 0.7200 -3.0700
v -13.0300 0.0000 -3.1300
v -13.0300 0.0000 -3.0700
v -13.0300 0.7200 -3.0700
v -13.0300 0.7200 -3.1300
v -13.0300 0.7200 -3.0700
v -12.9700 0.7200 -3.0700
v -12.9700 0.7200 -3.1300
v -13.0300 0.7200 -3.1300
v -13.0300 0.0000 -3.1300
v -12.9700 0.0000 -3.1300
v -12.9700 0.0000 -3.0700
v -13.0300 0.0000 -3.0700
v -13.0300 0.0000 -3.0700
v -12.9700 0.0000 -3.0700
v -12.9700 0.7200 -3.0700
v -13.0300 0.7200 -3.0700
v -12.9700 0.0000 -3.1300
v -13.0300 0.0000 -3.1300
v -13.0300 0.7200 -3.1300
v -12.9700 0.7200 -3.1300
v -16.9300 1.6800 0.0000
v -16.9700 1.6800 0.0000
v -16.9700 1.7200 0.0000
v -16.9300 1.7200 0.0000
v -16.9700 1.6800 7.0000
v -16.9300 1.6800 7.0000
v -16.9300 1.7200 7.0000
v -16.9700 1.7200 7.0000
v -16.9300 1.7200 7.0000
v -16.9300 1.7200 0.0000
v -16.9700 1.7200 0.0000
v -16.9700 1.7200 7.0000
v -16.9700 1.6800 7.0000
v -16.9700 1.6800 0.0000
v -16.9300 1.6800 0.0000
v -16.9300 1.6800 7.0000
v -16.9300 1.6800 7.0000
v -16.9300 1.6800 0.0000
v -16.9300 1.7200 0.0000
v -16.9300 1.7200 7.0000
v -16.9700 1.6800 0.0000
v -16.9700 1.6800 7.0000
v -16.9700 1.7200 7.0000
v -16.9700 1.7200 0.0000
v -4.9700 0.0000 -11.9700
v -4.9700 0.0000 -12.0300
v -4.9700 0.3600 -12.0300
v -4.9700 0.3600 -11.9700
v -5.0300 0.0000 -12.0300
v -5.0300 0.0000 -11.9700
v -5.0300 0.3600 -11.9700
v -5.0300 0.3600 -12.0300
v -5.0300 0.3600 -11.9700
v -4.9700 0.3600 -11.9700
v -4.9700 0.3600 -12.0300
v -5.0300 0.3600 -12.0300
v -5.0300 0.0000 -12.0300
v -4.9700 0.0000 -12.0300
v -4.9700 0.0000 -11.9700
v -5.0300 0.0000 -11.9700
v -5.0300 0.0000 -11.9700
v -4.9700 0.0000 -11.9700
v -4.9700 0.3600 -11.9700
v -5.0300 0.3600 -11.9700
v -4.9700 0.0000 -12.0300
v -5.0300 0.0000 -12.0300
v -5.0300 0.3600 -12.0300
v -4.9700 0.3600 -12.0300
v -4.9700 0.0000 -18.9700
v -4.9700 0.0000 -19.0300
v -4.9700 0.3600 -19.0300
v -4.9700 0.3600 -18.9700
v -5.0300 0.0000 -19.0300
v -5.0300 0.0000 -18.9700
v -5.0300 0.3600 -18.9700
v -5.0300 0.3600 -19.0300
v -5.0300 0.3600 -18.9700
v -4.9700 0.3600 -18.9700
v -4.9700 0.3600 -19.0300
v -5.0300 0.3600 -19.0300
v -5.0300 0.0000 -19.0300
v -4.9700 0.0000 -19.0300
v -4.9700 0.0000 -18.9700
v -5.0300 0.0000 -18.9700
v -5.0300 0.0000 -18.9700
v -4.9700 0.0000 -18.9700
v -4.9700 0.3600 -18.9700
v -5.0300 0.3600 -18.9700
v -4.9700 0.0000 -19.0300
v -5.0300 0.0000 -19.0300
v -5.0300 0.3600 -19.0300
v -4.9700 0.3600 -19.0300
v -4.9700 0.3400 -19.4000
v -5.0300 0.3400 -19.4000
v -5.0300 0.4000 -19.4000
v -4.9700 0.4000 -19.4000
v -5.0300 0.3400 -11.6000
v -4.9700 0.3400 -11.6000
v -4.9700 0.4000 -11.6000
v -5.0300 0.4000 -11.6000
v -4.9700 0.4000 -11.6000
v -4.9700 0.4000 -19.4000
v -5.0300 0.4000 -19.4000
v -5.0300 0.4000 -11.6000
v -5.0300 0.3400 -11.6000
v -5.0300 0.3400 -19.4000
v -4.9700 0.3400 -19.4000
v -4.9700 0.3400 -11.6000
v -4.9700 0.3400 -11.6000
v -4.9700 0.3400 -19.4000
v -4.9700 0.4000 -19.4000
v -4.9700 0.4000 -11.6000
v -5.0300 0.3400 -19.4000
v -5.0300 0.3400 -11.6000
v -5.0300 0.4000 -11.6000
v -5.0300 0.4000 -19.4000
v 5.5900 0.4800 -19.2000
v 5.5500 0.4800 -19.2000
v 5.5500 0.5200 -19.2000
v 5.5900 0.5200 -19.2000
v 5.5500 0.4800 -11.8000
v 5.5900 0.4800 -11.8000
v 5.5900 0.5200 -11.8000
v 5.5500 0.5200 -11.8000
v 5.5900 0.5200 -11.8000
v 5.5900 0.5200 -19.2000
v 5.5500 0.5200 -19.2000
v 5.5500 0.5200 -11.8000
v 5.5500 0.4800 -11.8000
v 5.5500 0.4800 -19.2000
v 5.5900 0.4800 -19.2000
v 5.5900 0.4800 -11.8000
v 5.5900 0.4800 -11.8000
v 5.5900 0.4800 -19.2000
v 5.5900 0.5200 -19.2000
v 5.5900 0.5200 -11.8000
v 5.5500 0.4800 -19.2000
v 5.5500 0.4800 -11.8000
v 5.5500 0.5200 -11.8000
v 5.5500 0.5200 -19.2000
v 9.7000 3.5100 -33.1200
v 9.7000 3.5100 -33.2000
v 9.7000 3.5900 -33.2000
v 9.7000 3.5900 -33.1200
v -9.7000 3.5100 -33.2000
v -9.7000 3.5100 -33.1200
v -9.7000 3.5900 -33.1200
v -9.7000 3.5900 -33.2000
v -9.7000 3.5900 -33.1200
v 9.7000 3.5900 -33.1200
v 9.7000 3.5900 -33.2000
v -9.7000 3.5900 -33.2000
v -9.7000 3.5100 -33.2000
v 9.7000 3.5100 -33.2000
v 9.7000 3.5100 -33.1200
v -9.7000 3.5100 -33.1200
v -9.7000 3.5100 -33.1200
v 9.7000 3.5100 -33.1200
v 9.7000 3.5900 -33.1200
v -9.7000 3.5900 -33.1200
v 9.7000 3.5100 -33.2000
v -9.7000 3.5100 -33.2000
v -9.7000 3.5900 -33.2000
v 9.7000 3.5900 -33.2000
v -24.8800 2.3600 -9.8000
v -24.8000 2.3600 -9.8000
v -24.8000 2.4400 -9.8000
v -24.8800 2.4400 -9.8000
v -24.8000 2.3600 -18.2000
v -24.8800 2.3600 -18.2000
v -24.8800 2.4400 -18.2000
v -24.8000 2.4400 -18.2000
v -24.8800 2.4400 -18.2000
v -24.8800 2.4400 -9.8000
v -24.8000 2.4400 -9.8000
v -24.8000 2.4400 -18.2000
v -24.8000 2.3600 -18.2000
v -24.8000 2.3600 -9.8000
v -24.8800 2.3600 -9.8000
v -24.8800 2.3600 -18.2000
v -24.8800 2.3600 -18.2000
v -24.8800 2.3600 -9.8000
v -24.8800 2.4400 -9.8000
v -24.8800 2.4400 -18.2000
v -24.8000 2.3600 -9.8000
v -24.8000 2.3600 -18.2000
v -24.8000 2.4400 -18.2000
v -24.8000 2.4400 -9.8000
v -35.2000 2.3600 -9.8000
v -35.1200 2.3600 -9.8000
v -35.1200 2.4400 -9.8000
v -35.2000 2.4400 -9.8000
v -35.1200 2.3600 -18.2000
v -35.2000 2.3600 -18.2000
v -35.2000 2.4400 -18.2000
v -35.1200 2.4400 -18.2000
v -35.2000 2.4400 -18.2000
v -35.2000 2.4400 -9.8000
v -35.1200 2.4400 -9.8000
v -35.1200 2.4400 -18.2000
v -35.1200 2.3600 -18.2000
v -35.1200 2.3600 -9.8000
v -35.2000 2.3600 -9.8000
v -35.2000 2.3600 -18.2000
v -35.2000 2.3600 -18.2000
v -35.2000 2.3600 -9.8000
v -35.2000 2.4400 -9.8000
v -35.2000 2.4400 -18.2000
v -35.1200 2.3600 -9.8000
v -35.1200 2.3600 -18.2000
v -35.1200 2.4400 -18.2000
v -35.1200 2.4400 -9.8000
vt -0.0400 -0.0400
vt 0.0400 -0.0400
vt 0.0400 0.0400
vt -0.0400 0.0400
vt -0.0400 -0.0400
vt 0.0400 -0.0400
vt 0.0400 0.0400
vt -0.0400 0.0400
vt -1.6000 -0.0400
vt 1.6000 -0.0400
vt 1.6000 0.0400
vt -1.6000 0.0400
vt -1.6000 -0.0400
vt 1.6000 -0.0400
vt 1.6000 0.0400
vt -1.6000 0.0400
vt -1.6000 -0.0400
vt 1.6000 -0.0400
vt 1.6000 0.0400
vt -1.6000 0.0400
vt -1.6000 -0.0400
vt 1.6000 -0.0400
vt 1.6000 0.0400
vt -1.6000 0.0400
vt -0.0300 -0.0300
vt 0.0300 -0.0300
vt 0.0300 0.0300
vt -0.0300 0.0300
vt -0.0300 -0.0300
vt 0.0300 -0.0300
vt 0.0300 0.0300
vt -0.0300 0.0300
vt -1.7088 -0.0300
vt 1.7088 -0.0300
vt 1.7088 0.0300
vt -1.7088 0.0300
vt -1.7088 -0.0300
vt 1.7088 -0.0300
vt 1.7088 0.0300
vt -1.7088 0.0300
vt -1.7088 -0.0300
vt 1.7088 -0.0300
vt 1.7088 0.0300
vt -1.7088 0.0300
vt -1.7088 -0.0300
vt 1.7088 -0.0300
vt 1.7088 0.0300
vt -1.7088 0.0300
vt -0.0300 -0.3600
vt 0.0300 -0.3600
vt 0.0300 0.3600
vt -0.0300 0.3600
vt -0.0300 -0.3600
vt 0.0300 -0.3600
vt 0.0300 0.3600
vt -0.0300 0.3600
vt -0.0300 -0.0300
vt 0.0300 -0.0300
vt 0.0300 0.0300
vt -0.0300 0.0300
vt -0.0300 -0.0300
vt 0.0300 -0.0300
vt 0.0300 0.0300
vt -0.0300 0.0300
vt -0.0300 -0.3600
vt 0.0300 -0.3600
vt 0.0300 0.3600
vt -0.0300 0.3600
vt -0.0300 -0.3600
vt 0.0300 -0.3600
vt 0.0300 0.3600
vt -0.0300 0.3600
vt -0.0300 -0.3600
vt 0.0300 -0.3600
vt 0.0300 0.3600
vt -0.0300 0.3600
vt -0.0300 -0.3600
vt 0.0300 -0.3600
vt 0.0300 0.3600
vt -0.0300 0.3600
vt -0.0300 -0.0300
vt 0.0300 -0.0300
vt 0.0300 0.0300
vt -0.0300 0.0300
vt -0.0300 -0.0300
vt 0.0300 -0.0300
vt 0.0300 0.0300
vt -0.0300 0.0300
vt -0.0300 -0.3600
vt 0.0300 -0.3600
vt 0.0300 0.3600
vt -0.0300 0.3600
vt -0.0300 -0.3600
vt 0.0300 -0.3600
vt 0.0300 0.3600
vt -0.0300 0.3600
vt -0.0200 -0.0200
vt 0.0200 -0.0200
vt 0.0200 0.0200
vt -0.0200 0.0200
vt -0.0200 -0.0200
vt 0.0200 -0.0200
vt 0.0200 0.0200
vt -0.0200 0.0200
vt -3.5000 -0.0200
vt 3.5000 -0.0200
vt 3.5000 0.0200
vt -3.5000 0.0200
vt -3.5000 -0.0200
vt 3.5000 -0.0200
vt 3.5000 0.0200
vt -3.5000 0.0200
vt -3.5000 -0.0200
vt 3.5000 -0.0200
vt 3.5000 0.0200
vt -3.5000 0.0200
vt -3.5000 -0.0200
vt 3.5000 -0.0200
vt 3.5000 0.0200
vt -3.5000 0.0200
vt -0.0300 -0.1800
vt 0.0300 -0.1800
vt 0.0300 0.1800
vt -0.0300 0.1800
vt -0.0300 -0.1800
vt 0.0300 -0.1800
vt 0.0300 0.1800
vt -0.0300 0.1800
vt -0.0300 -0.0300
vt 0.0300 -0.0300
vt 0.0300 0.0300
vt -0.0300 0.0300
vt -0.0300 -0.0300
vt 0.0300 -0.0300
vt 0.0300 0.0300
vt -0.0300 0.0300
vt -0.0300 -0.1800
vt 0.0300 -0.1800
vt 0.0300 0.1800
vt -0.0300 0.1800
vt -0.0300 -0.1800
vt 0.0300 -0.1800
vt 0.0300 0.1800
vt -0.0300 0.1800
vt -0.0300 -0.1800
vt 0.0300 -0.1800
vt 0.0300 0.1800
vt -0.0300 0.1800
vt -0.0300 -0.1800
vt 0.0300 -0.1800
vt 0.0300 0.1800
vt -0.0300 0.1800
vt -0.0300 -0.0300
vt 0.0300 -0.0300
vt 0.0300 0.0300
vt -0.0300 0.0300
vt -0.0300 -0.0300
vt 0.0300 -0.0300
vt 0.0300 0.0300
vt -0.0300 0.0300
vt -0.0300 -0.1800
vt 0.0300 -0.1800
vt 0.0300 0.1800
vt -0.0300 0.1800
vt -0.0300 -0.1800
vt 0.0300 -0.1800
vt 0.0300 0.1800
vt -0.0300 0.1800
vt -0.0300 -0.0300
vt 0.0300 -0.0300
vt 0.0300 0.0300
vt -0.0300 0.0300
vt -0.0300 -0.0300
vt 0.0300 -0.0300
vt 0.0300 0.0300
vt -0.0300 0.0300
vt -3.9000 -0.0300
vt 3.9000 -0.0300
vt 3.9000 0.0300
vt -3.9000 0.0300
vt -3.9000 -0.0300
vt 3.9000 -0.0300
vt 3.9000 0.0300
vt -3.9000 0.0300
vt -3.9000 -0.0300
vt 3.9000 -0.0300
vt 3.9000 0.0300
vt -3.9000 0.0300
vt -3.9000 -0.0300
vt 3.9000 -0.0300
vt 3.9000 0.0300
vt -3.9000 0.0300
vt -0.0200 -0.0200
vt 0.0200 -0.0200
vt 0.0200 0.0200
vt -0.0200 0.0200
vt -0.0200 -0.0200
vt 0.0200 -0.0200
vt 0.0200 0.0200
vt -0.0200 0.0200
vt -3.7000 -0.0200
vt 3.7000 -0.0200
vt 3.7000 0.0200
vt -3.7000 0.0200
vt -3.7000 -0.0200
vt 3.7000 -0.0200
vt 3.7000 0.0200
vt -3.7000 0.0200
vt -3.7000 -0.0200
vt 3.7000 -0.0200
vt 3.7000 0.0200
vt -3.7000 0.0200
vt -3.7000 -0.0200
vt 3.7000 -0.0200
vt 3.7000 0.0200
vt -3.7000 0.0200
vt -0.0400 -0.0400
vt 0.0400 -0.0400
vt 0.0400 0.0400
vt -0.0400 0.0400
vt -0.0400 -0.0400
vt 0.0400 -0.0400
vt 0.0400 0.0400
vt -0.0400 0.0400
vt -9.7000 -0.0400
vt 9.7000 -0.0400
vt 9.7000 0.0400
vt -9.7000 0.0400
vt -9.7000 -0.0400
vt 9.7000 -0.0400
vt 9.7000 0.0400
vt -9.7000 0.0400
vt -9.7000 -0.0400
vt 9.7000 -0.0400
vt 9.7000 0.0400
vt -9.7000 0.0400
vt -9.7000 -0.0400
vt 9.7000 -0.0400
vt 9.7000 0.0400
vt -9.7000 0.0400
vt -0.0400 -0.0400
vt 0.0400 -0.0400
vt 0.0400 0.0400
vt -0.0400 0.0400
vt -0.0400 -0.0400
vt 0.0400 -0.0400
vt 0.0400 0.0400
vt -0.0400 0.0400
vt -4.2000 -0.0400
vt 4.2000 -0.0400
vt 4.2000 0.0400
vt -4.2000 0.0400
vt -4.2000 -0.0400
vt 4.2000 -0.0400
vt 4.2000 0.0400
vt -4.2000 0.0400
vt -4.2000 -0.0400
vt 4.2000 -0.0400
vt 4.2000 0.0400
vt -4.2000 0.0400
vt -4.2000 -0.0400
vt 4.2000 -0.0400
vt 4.2000 0.0400
vt -4.2000 0.0400
vt -0.0400 -0.0400
vt 0.0400 -0.0400
vt 0.0400 0.0400
vt -0.0400 0.0400
vt -0.0400 -0.0400
vt 0.0400 -0.0400
vt 0.0400 0.0400
vt -0.0400 0.0400
vt -4.2000 -0.0400
vt 4.2000 -0.0400
vt 4.2000 0.0400
vt -4.2000 0.0400
vt -4.2000 -0.0400
vt 4.2000 -0.0400
vt 4.2000 0.0400
vt -4.2000 0.0400
vt -4.2000 -0.0400
vt 4.2000 -0.0400
vt 4.2000 0.0400
vt -4.2000 0.0400
vt -4.2000 -0.0400
vt 4.2000 -0.0400
vt 4.2000 0.0400
vt -4.2000 0.0400
vn 0.0000 0.0000 -1.0000
vn -0.0000 0.0000 1.0000
vn 0.0000 1.0000 0.0000
vn 0.0000 -1.0000 0.0000
vn 1.0000 0.0000 0.0000
vn -1.0000 0.0000 -0.0000
vn 0.0000 -0.3511 -0.9363
vn -0.0000 0.3511 0.9363
vn 0.0000 0.9363 -0.3511
vn -0.0000 -0.9363 0.3511
vn 1.0000 0.0000 0.0000
vn -1.0000 -0.0000 -0.0000
vn 1.0000 0.0000 0.0000
vn -1.0000 0.0000 0.0000
vn 0.0000 1.0000 0.0000
vn 0.0000 -1.0000 0.0000
vn 0.0000 0.0000 1.0000
vn 0.0000 0.0000 -1.0000
vn 1.0000 0.0000 0.0000
vn -1.0000 0.0000 0.0000
vn 0.0000 1.0000 0.0000
vn 0.0000 -1.0000 0.0000
vn 0.0000 0.0000 1.0000
vn 0.0000 0.0000 -1.0000
vn 0.0000 0.0000 -1.0000
vn -0.0000 0.0000 1.0000
vn 0.0000 1.0000 0.0000
vn 0.0000 -1.0000 0.0000
vn 1.0000 0.0000 0.0000
vn -1.0000 0.0000 -0.0000
vn 1.0000 0.0000 0.0000
vn -1.0000 0.0000 0.0000
vn 0.0000 1.0000 0.0000
vn 0.0000 -1.0000 0.0000
vn 0.0000 0.0000 1.0000
vn 0.0000 0.0000 -1.0000
vn 1.0000 0.0000 0.0000
vn -1.0000 0.0000 0.0000
vn 0.0000 1.0000 0.0000
vn 0.0000 -1.0000 0.0000
vn 0.0000 0.0000 1.0000
vn 0.0000 0.0000 -1.0000
vn 0.0000 0.0000 -1.0000
vn -0.0000 0.0000 1.0000
vn 0.0000 1.0000 0.0000
vn 0.0000 -1.0000 0.0000
vn 1.0000 0.0000 0.0000
vn -1.0000 0.0000 -0.0000
vn 0.0000 0.0000 -1.0000
vn -0.0000 0.0000 1.0000
vn 0.0000 1.0000 0.0000
vn 0.0000 -1.0000 0.0000
vn 1.0000 0.0000 0.0000
vn -1.0000 0.0000 -0.0000
vn 1.0000 0.0000 0.0000
vn -1.0000 0.0000 0.0000
vn 0.0000 1.0000 0.0000
vn 0.0000 -1.0000 0.0000
vn 0.0000 0.0000 1.0000
vn 0.0000 0.0000 -1.0000
vn 0.0000 0.0000 1.0000
vn -0.0000 0.0000 -1.0000
vn 0.0000 1.0000 0.0000
vn 0.0000 -1.0000 0.0000
vn -1.0000 0.0000 0.0000
vn 1.0000 0.0000 -0.0000
vn 0.0000 0.0000 1.0000
vn -0.0000 0.0000 -1.0000
vn 0.0000 1.0000 0.0000
vn 0.0000 -1.0000 0.0000
vn -1.0000 0.0000 0.0000
vn 1.0000 0.0000 -0.0000
f 1/1/1 2/2/1 3/3/1
f 1/1/1 3/3/1 4/4/1
f 5/5/2 6/6/2 7/7/2
f 5/5/2 7/7/2 8/8/2
f 9/9/3 10/10/3 11/11/3
f 9/9/3 11/11/3 12/12/3
f 13/13/4 14/14/4 15/15/4
f 13/13/4 15/15/4 16/16/4
f 17/17/5 18/18/5 19/19/5
f 17/17/5 19/19/5 20/20/5
f 21/21/6 22/22/6 23/23/6
f 21/21/6 23/23/6 24/24/6
f 25/25/7 26/26/7 27/27/7
f 25/25/7 27/27/7 28/28/7
f 29/29/8 30/30/8 31/31/8
f 29/29/8 31/31/8 32/32/8
f 33/33/9 34/34/9 35/35/9
f 33/33/9 35/35/9 36/36/9
f 37/37/10 38/38/10 39/39/10
f 37/37/10 39/39/10 40/40/10
f 41/41/11 42/42/11 43/43/11
f 41/41/11 43/43/11 44/44/11
f 45/45/12 46/46/12 47/47/12
f 45/45/12 47/47/12 48/48/12
f 49/49/13 50/50/13 51/51/13
f 49/49/13 51/51/13 52/52/13
f 53/53/14 54/54/14 55/55/14
f 53/53/14 55/55/14 56/56/14
f 57/57/15 58/58/15 59/59/15
f 57/57/15 59/59/15 60/60/15
f 61/61/16 62/62/16 63/63/16
f 61/61/16 63/63/16 64/64/16
f 65/65/17 66/66/17 67/67/17
f 65/65/17 67/67/17 68/68/17
f 69/69/18 70/70/18 71/71/18
f 69/69/18 71/71/18 72/72/18
f 73/73/19 74/74/19 75/75/19
f 73/73/19 75/75/19 76/76/19
f 77/77/20 78/78/20 79/79/20
f 77/77/20 79/79/20 80/80/20
f 81/81/21 82/82/21 83/83/21
f 81/81/21 83/83/21 84/84/21
f 85/85/22 86/86/22 87/87/22
f 85/85/22 87/87/22 88/88/22
f 89/89/23 90/90/23 91/91/23
f 89/89/23 91/91/23 92/92/23
f 93/93/24 94/94/24 95/95/24
f 93/93/24 95/95/24 96/96/24
f 97/97/25 98/98/25 99/99/25
f 97/97/25 99/99/25 100/100/25
f 101/101/26 102/102/26 103/103/26
f 101/101/26 103/103/26 104/104/26
f 105/105/27 106/106/27 107/107/27
f 105/105/27 107/107/27 108/108/27
f 109/109/28 110/110/28 111/111/28
f 109/109/28 111/111/28 112/112/28
f 113/113/29 114/114/29 115/115/29
f 113/113/29 115/115/29 116/116/29
f 117/117/30 118/118/30 119/119/30
f 117/117/30 119/119/30 120/120/30
f 121/121/31 122/122/31 123/123/31
f 121/121/31 123/123/31 124/124/31
f 125/125/32 126/126/32 127/127/32
f 125/125/32 127/127/32 128/128/32
f 129/129/33 130/130/33 131/131/33
f 129/129/33 131/131/33 132/132/33
f 133/133/34 134/134/34 135/135/34
f 133/133/34 135/135/34 136/136/34
f 137/137/35 138/138/35 139/139/35
f 137/137/35 139/139/35 140/140/35
f 141/141/36 142/142/36 143/143/36
f 141/141/36 143/143/36 144/144/36
f 145/145/37 146/146/37 147/147/37
f 145/145/37 147/147/37 148/148/37
f 149/149/38 150/150/38 151/151/38
f 149/149/38 151/151/38 152/152/38
f 153/153/39 154/154/39 155/155/39
f 153/153/39 155/155/39 156/156/39
f 157/157/40 158/158/40 159/159/40
f 157/157/40 159/159/40 160/160/40
f 161/161/41 162/162/41 163/163/41
f 161/161/41 163/163/41 164/164/41
f 165/165/42 166/166/42 167/167/42
f 165/165/42 167/167/42 168/168/42
f 169/169/43 170/170/43 171/171/43
f 169/169/43 171/171/43 172/172/43
f 173/173/44 174/174/44 175/175/44
f 173/173/44 175/175/44 176/176/44
f 177/177/45 178/178/45 179/179/45
f 177/177/45 179/179/45 180/180/45
f 181/181/46 182/182/46 183/183/46
f 181/181/46 183/183/46 184/184/46
f 185/185/47 186/186/47 187/187/47
f 185/185/47 187/187/47 188/188/47
f 189/189/48 190/190/48 191/191/48
f 189/189/48 191/191/48 192/192/48
f 193/193/49 194/194/49 195/195/49
f 193/193/49 195/195/49 196/196/49
f 197/197/50 198/198/50 199/199/50
f 197/197/50 199/199/50 200/200/50
f 201/201/51 202/202/51 203/203/51
f 201/201/51 203/203/51 204/204/51
f 205/205/52 206/206/52 207/207/52
f 205/205/52 207/207/52 208/208/52
f 209/209/53 210/210/53 211/211/53
f 209/209/53 211/211/53 212/212/53
f 213/213/54 214/214/54 215/215/54
f 213/213/54 215/215/54 216/216/54
f 217/217/55 218/218/55 219/219/55
f 217/217/55 219/219/55 220/220/55
f 221/221/56 222/222/56 223/223/56
f 221/221/56 223/223/56 224/224/56
f 225/225/57 226/226/57 227/227/57
f 225/225/57 227/227/57 228/228/57
f 229/229/58 230/230/58 231/231/58
f 229/229/58 231/231/58 232/232/58
f 233/233/59 234/234/59 235/235/59
f 233/233/59 235/235/59 236/236/59
f 237/237/60 238/238/60 239/239/60
f 237/237/60 239/239/60 240/240/60
f 241/241/61 242/242/61 243/243/61
f 241/241/61 243/243/61 244/244/61
f 245/245/62 246/246/62 247/247/62
f 245/245/62 247/247/62 248/248/62
f 249/249/63 250/250/63 251/251/63
f 249/249/63 251/251/63 252/252/63
f 253/253/64 254/254/64 255/255/64
f 253/253/64 255/255/64 256/256/64
f 257/257/65 258/258/65 259/259/65
f 257/257/65 259/259/65 260/260/65
f 261/261/66 262/262/66 263/263/66
f 261/261/66 263/263/66 264/264/66
f 265/265/67 266/266/67 267/267/67
f 265/265/67 267/267/67 268/268/67
f 269/269/68 270/270/68 271/271/68
f 269/269/68 271/271/68 272/272/68
f 273/273/69 274/274/69 275/275/69
f 273/273/69 275/275/69 276/276/69
f 277/277/70 278/278/70 279/279/70
f 277/277/70 279/279/70 280/280/70
f 281/281/71 282/282/71 283/283/71
f 281/281/71 283/283/71 284/284/71
f 285/285/72 286/286/72 287/287/72
f 285/285/72 287/287/72 288/288/72
